<?xml version="1.0" encoding="UTF-8"?>
<svg id="Layer_1" xmlns="http://www.w3.org/2000/svg" version="1.1" viewBox="0 0 1392 1227">
  <!-- Generator: Adobe Illustrator 29.5.1, SVG Export Plug-In . SVG Version: 2.1.0 Build 141)  -->
  <defs>
    <style>
      .st0 {
        fill: #fff;
      }

      .st1 {
        fill: #db09be;
      }

      .st2 {
        fill: #138987;
      }
    </style>
  </defs>
  <rect class="st2" width="1392" height="1227"/>
  <g id="kauai">
    <rect x="394.9" y="244.8" width="38.4" height="53.3" rx="18.5" ry="18.5"/>
    <path fill="#fff" d="M399.5,275.6c2.1-5.1,7.1-8.6,12.7-9.4l.5-21.6.9-.4,21.2,7c.2.6.2,1.3-.2,1.9-1.1,1.8-16.7,4.5-19,6.9v6.2c5.8.3,10.8,4.2,13.2,9.3h-29.3Z"/>
    <path fill="#fff" d="M432,280.2c2.2,2.2,1.5,7.2-1.8,8.1h-32c-4.8-.8-4.1-8.6.6-9.3,9.5.7,20.6-1.1,29.8,0,.9,0,2.8.7,3.4,1.3Z"/>
    <path fill="#fff" d="M428.8,292.1c-.9.9-6.2,6.1-14.6,6.1s-13.7-5.1-14.6-6.1h29.3Z"/>
  </g>
  <g id="oahu">
    <rect x="601.3" y="358.3" width="38.4" height="53.3" rx="18.5" ry="18.5"/>
    <path fill="#fff" d="M606,389.2c2.1-5.1,7.1-8.6,12.7-9.4l.5-21.6.9-.4,21.2,7c.2.6.2,1.3-.2,1.9-1.1,1.8-16.7,4.5-19,6.9v6.2c5.8.3,10.8,4.2,13.2,9.3h-29.3Z"/>
    <path fill="#fff" d="M638.4,393.7c2.2,2.2,1.5,7.2-1.8,8.1h-32c-4.8-.8-4.1-8.6.6-9.3,9.5.7,20.6-1.1,29.8,0,.9,0,2.8.7,3.4,1.3Z"/>
    <path fill="#fff" d="M635.3,405.6c-.9.9-6.2,6.1-14.6,6.1s-13.7-5.1-14.6-6.1h29.3Z"/>
  </g>
  <g id="maui">
    <rect x="866" y="402.2" width="38.4" height="53.3" rx="18.5" ry="18.5"/>
    <path fill="#fff" d="M870.6,433.1c2.1-5.1,7.1-8.6,12.7-9.4l.5-21.6.9-.4,21.2,7c.2.6.2,1.3-.2,1.9-1.1,1.8-16.7,4.5-19,6.9v6.2c5.8.3,10.8,4.2,13.2,9.3h-29.3Z"/>
    <path fill="#fff" d="M903.1,437.6c2.2,2.2,1.5,7.2-1.8,8.1h-32c-4.8-.8-4.1-8.6.6-9.3,9.5.7,20.6-1.1,29.8,0,.9,0,2.8.7,3.4,1.3Z"/>
    <path fill="#fff" d="M899.9,449.5c-.9.9-6.2,6.1-14.6,6.1s-13.7-5.1-14.6-6.1h29.3Z"/>
  </g>
  <g id="bigisland">
    <rect x="900.4" y="624" width="38.4" height="53.3" rx="18.5" ry="18.5"/>
    <path fill="#fff" d="M904.7,655.3c2-5.2,6.8-8.9,12.3-9.8l-.2-21.6.9-.4,21.5,6.2c.2.6.2,1.3-.1,1.9-1,1.8-16.5,5.1-18.7,7.6l.2,6.2c5.8.1,11,3.8,13.6,8.9l-29.3,1h0Z"/>
    <path fill="#fff" d="M937.3,658.7c2.3,2.1,1.8,7.1-1.5,8.1l-32,1.1c-4.9-.6-4.4-8.4.2-9.3,9.5.4,20.5-1.8,29.8-1.1.9,0,2.8.6,3.5,1.1Z"/>
    <path fill="#fff" d="M934.6,670.7c-.9,1-6,6.3-14.4,6.6-8.4.3-13.9-4.6-14.8-5.6l29.3-1Z"/>
  </g>
</svg>