<svg width="1067" height="798" viewBox="0 0 1067 798" fill="none" xmlns="http://www.w3.org/2000/svg">
<g filter="url(#filter0_d_2378_413)">
<path d="M826.13 452.703C827.73 451.69 830.15 451.165 833.907 451.839C833.844 451.827 833.875 451.83 834.098 451.904C834.288 451.966 834.547 452.057 834.873 452.175C835.523 452.41 836.395 452.738 837.421 453.132C839.47 453.92 842.099 454.962 844.716 456.025C847.334 457.089 849.927 458.169 851.904 459.037C852.896 459.473 853.715 459.845 854.299 460.132C854.493 460.228 854.65 460.31 854.773 460.375C854.819 460.48 854.887 460.659 854.97 460.948C855.136 461.529 855.24 462.059 855.465 462.937C855.865 464.501 856.509 466.557 858.069 468.328V468.329C859.545 470.008 861.694 471.277 863.807 472.365C864.883 472.919 866.024 473.463 867.127 473.995C868.244 474.535 869.338 475.07 870.385 475.638C874.685 477.97 877.434 480.432 877.382 484.39L877.344 487.277L880.059 486.298C887.875 483.482 894.989 485.175 902.014 488.698C905.542 490.467 908.994 492.671 912.471 494.961C915.914 497.229 919.411 499.601 922.898 501.588C926.255 503.501 930.223 505.203 933.938 506.867C937.721 508.561 941.257 510.221 944.027 512.11V512.111C945.93 513.412 950.08 516.323 954.086 519.209C958.077 522.085 961.777 524.832 963.063 525.974C963.082 525.997 963.119 526.042 963.174 526.117C963.294 526.279 963.457 526.511 963.662 526.813C964.071 527.414 964.609 528.239 965.237 529.222C966.491 531.184 968.075 533.734 969.643 536.299C971.209 538.864 972.753 541.433 973.926 543.433C974.513 544.434 975.001 545.284 975.352 545.915C975.527 546.232 975.662 546.482 975.754 546.662C975.796 546.745 975.821 546.798 975.834 546.827C976.218 548.207 976.315 550.149 976.177 552.455C976.038 554.769 975.678 557.28 975.267 559.661C974.852 562.061 974.407 564.214 974.082 565.955C973.925 566.799 973.792 567.564 973.723 568.165C973.688 568.461 973.662 568.778 973.666 569.072C973.668 569.218 973.678 569.408 973.715 569.612C973.746 569.786 973.826 570.141 974.068 570.503V570.504C975.269 572.294 977.43 572.618 979.066 572.64C980.827 572.663 982.886 572.338 984.812 572.001C986.819 571.651 988.715 571.282 990.415 571.111C991.668 570.985 992.588 570.999 993.221 571.108C993.232 571.15 993.246 571.195 993.258 571.243C993.403 571.829 993.555 572.652 993.712 573.674C994.025 575.711 994.332 578.354 994.645 581.103C994.954 583.831 995.269 586.659 995.594 588.998C995.756 590.169 995.925 591.244 996.102 592.14C996.269 592.988 996.473 593.835 996.746 594.452L996.748 594.457C996.888 594.771 997.121 595.071 997.213 595.191C997.36 595.383 997.546 595.612 997.757 595.864C998.181 596.37 998.751 597.025 999.413 597.77C1000.74 599.264 1002.47 601.164 1004.21 603.046C1005.95 604.93 1007.7 606.804 1009.07 608.251C1009.76 608.974 1010.35 609.595 1010.81 610.059C1011.2 610.456 1011.62 610.882 1011.87 611.073L1011.9 611.094C1013.39 612.2 1015.36 613.014 1017.23 613.733C1019.2 614.488 1021.14 615.161 1022.96 616.017C1026.6 617.724 1028.9 619.744 1029 623.261V623.266C1029 623.245 1029 623.386 1028.93 623.777C1028.88 624.124 1028.79 624.569 1028.67 625.087C1028.44 626.122 1028.12 627.387 1027.78 628.628C1027.43 629.873 1027.07 631.065 1026.75 631.959C1026.65 632.272 1026.54 632.53 1026.46 632.734C1026.42 632.739 1026.38 632.749 1026.34 632.754C1025.87 632.812 1025.42 632.826 1024.68 632.885C1023.41 632.987 1021.51 633.206 1019.94 634.416L1019.94 634.42C1017.82 636.062 1017.46 638.552 1017.27 640.098C1017.16 641.004 1017.12 641.56 1017 642.051C1016.97 642.199 1016.94 642.29 1016.91 642.343C1016.73 642.448 1016.4 642.578 1015.85 642.725C1015.17 642.904 1014.48 643.037 1013.5 643.261C1011.68 643.681 1009.39 644.317 1007.19 645.824C1006.34 646.405 1005.09 647.512 1003.75 648.781C1002.37 650.086 1000.77 651.667 999.202 653.275C996.076 656.471 992.939 659.856 991.627 661.454C990.628 662.667 990.269 664.314 990.077 665.324C990.011 665.674 989.969 665.915 989.934 666.123C989.912 666.125 989.89 666.127 989.867 666.128C989.145 666.167 988.211 666.167 987.105 666.176C985.061 666.192 982.3 666.226 980.411 666.808C977.491 667.701 975.345 670.02 973.716 671.896C972.838 672.907 972.124 673.778 971.382 674.549C970.645 675.314 970.051 675.792 969.536 676.038H969.535C963.514 678.929 959.815 679.27 956.448 678.888C954.677 678.687 952.977 678.286 950.92 677.84C948.895 677.402 946.621 676.945 943.899 676.714C940.577 676.431 937.895 677.096 935.683 678.41C933.509 679.7 931.923 681.537 930.644 683.375C929.438 685.108 928.252 687.251 927.312 688.727C926.267 690.366 925.324 691.544 924.262 692.244L924.258 692.246C923.658 692.644 922.87 692.963 921.86 693.26C920.824 693.565 919.77 693.791 918.52 694.104C916.191 694.686 913.346 695.52 911.271 697.692C909.645 699.389 908.869 701.822 908.438 703.568C908.236 704.39 908.088 705.158 907.979 705.713C907.931 705.714 907.879 705.715 907.824 705.714C907.111 705.705 906.231 705.608 905.148 705.502C904.125 705.402 902.947 705.298 901.848 705.325C900.794 705.35 899.516 705.497 898.447 706.116L898.439 706.12C897.972 706.393 897.684 706.787 897.562 706.959C897.405 707.183 897.263 707.429 897.146 707.647C896.921 708.061 896.641 708.639 896.407 709.1C895.852 710.194 895.356 711.015 894.907 711.403L894.906 711.404C892.004 713.919 890.072 715.684 888.778 717.107C887.447 718.571 886.702 719.767 886.257 721.156C885.869 722.364 885.714 723.795 885.458 725.239C885.179 726.808 884.719 728.91 883.666 731.999V732C882.742 734.718 879.324 740.757 875.265 746.189C873.252 748.882 871.152 751.33 869.212 753.086C868.242 753.965 867.356 754.631 866.58 755.069C865.786 755.517 865.239 755.652 864.911 755.656H864.906C864.653 755.659 864.371 755.577 863.943 755.129C863.468 754.632 862.995 753.865 862.426 752.8C861.904 751.824 861.273 750.539 860.59 749.418C859.892 748.274 859.01 747.066 857.816 746.164L857.814 746.162L857.539 745.961C856.093 744.934 853.603 743.571 850.774 742.118C847.702 740.539 844.061 738.77 840.541 737.073C837.009 735.37 833.606 733.742 830.972 732.427C829.654 731.77 828.551 731.201 827.732 730.749C827.322 730.523 827.002 730.336 826.771 730.19C826.697 730.143 826.643 730.103 826.602 730.075C826.58 730.018 826.55 729.93 826.515 729.8C826.407 729.408 826.32 728.928 826.194 728.272C825.978 727.141 825.643 725.354 824.693 724.019L824.692 724.017C823.586 722.463 821.938 720.931 820.753 719.693C819.521 718.406 818.662 717.329 818.272 716.286L818.201 716.078C817.741 714.612 817.694 712.601 818.012 710.103C818.326 707.635 818.969 704.88 819.734 702.01C820.116 700.58 820.522 699.138 820.929 697.701C821.333 696.268 821.738 694.836 822.108 693.45C822.844 690.696 823.473 688.008 823.702 685.688L823.703 685.686C824.378 678.801 824.389 669.149 823.499 659.672C822.613 650.243 820.812 640.739 817.733 634.288C816.777 632.28 814.858 629.962 813.322 628.087C812.512 627.099 811.784 626.208 811.216 625.429C810.605 624.591 810.36 624.117 810.309 623.935H810.308C809.79 622.086 809.777 619.945 809.76 617.269C809.743 614.69 809.715 611.715 808.978 608.667L808.976 608.661L808.729 607.709C807.43 602.98 805.225 598.704 802.924 594.704C800.422 590.355 797.896 586.467 795.959 582.375C794.053 578.35 792.847 574.365 792.99 570.076C793.132 565.803 794.62 561.031 798.438 555.449C801.482 550.996 805.723 548.505 809.53 546.888C811.446 546.075 813.187 545.507 814.662 544.99C815.376 544.739 816.069 544.487 816.645 544.224C817.154 543.991 817.869 543.622 818.371 543.023L818.372 543.024C818.733 542.593 819.001 542.01 819.188 541.569C819.404 541.06 819.631 540.445 819.862 539.778C820.322 538.455 820.862 536.75 821.427 535.042C822.606 531.48 823.898 527.904 825.167 526.003L825.166 526.002C826.406 524.148 827.793 522.758 829.186 521.488C830.513 520.277 832.064 519 833.239 517.621C834.495 516.149 835.474 514.415 835.774 512.094C836.067 509.833 835.692 507.194 834.6 503.922C832.588 497.891 829.516 494.728 827.211 491.43C824.942 488.185 822.896 484.234 822.233 475.896V475.895C821.738 469.697 821.226 462.83 822.689 457.868C823.402 455.451 824.52 453.723 826.13 452.703ZM1017.01 642.288L1017.01 642.289C1017.01 642.288 1017.01 642.288 1017.01 642.286L1017.01 642.288Z" fill="#E17F69" stroke="white" stroke-width="4"/>
<path d="M845.07 601.575H852.523C853.503 601.575 854.404 601.684 855.227 601.903C856.049 602.122 856.753 602.434 857.336 602.84C857.93 603.236 858.388 603.715 858.711 604.278C859.044 604.83 859.211 605.444 859.211 606.122C859.211 606.622 859.159 607.075 859.055 607.481C858.951 607.877 858.768 608.247 858.508 608.59C858.247 608.924 857.898 609.241 857.461 609.543C857.034 609.846 856.492 610.153 855.836 610.465V610.528C856.492 610.632 857.086 610.809 857.617 611.059C858.148 611.309 858.602 611.632 858.977 612.028C859.362 612.413 859.654 612.861 859.852 613.372C860.06 613.882 860.164 614.45 860.164 615.075C860.164 615.773 860.008 616.429 859.695 617.043C859.393 617.648 858.961 618.174 858.398 618.622C857.836 619.069 857.154 619.424 856.352 619.684C855.56 619.944 854.674 620.075 853.695 620.075H845.07V601.575ZM848.18 609.903H852.133C852.758 609.903 853.31 609.814 853.789 609.637C854.279 609.46 854.69 609.215 855.023 608.903C855.357 608.59 855.607 608.221 855.773 607.793C855.951 607.366 856.039 606.903 856.039 606.403C856.039 605.861 855.935 605.372 855.727 604.934C855.529 604.486 855.211 604.106 854.773 603.793C854.346 603.481 853.799 603.241 853.133 603.075C852.466 602.898 851.669 602.809 850.742 602.809H848.18V609.903ZM848.18 618.715H851.539C852.445 618.715 853.227 618.632 853.883 618.465C854.549 618.288 855.096 618.043 855.523 617.731C855.961 617.418 856.284 617.049 856.492 616.622C856.701 616.184 856.805 615.7 856.805 615.168C856.805 614.585 856.711 614.043 856.523 613.543C856.336 613.043 856.029 612.611 855.602 612.247C855.185 611.872 854.633 611.58 853.945 611.372C853.268 611.153 852.435 611.043 851.445 611.043H848.18V618.715ZM864.008 598.512C864.227 598.512 864.435 598.549 864.633 598.622C864.841 598.694 865.018 598.799 865.164 598.934C865.31 599.059 865.424 599.21 865.508 599.387C865.602 599.554 865.648 599.736 865.648 599.934C865.648 600.122 865.602 600.304 865.508 600.481C865.424 600.648 865.31 600.799 865.164 600.934C865.018 601.059 864.841 601.163 864.633 601.247C864.435 601.319 864.227 601.356 864.008 601.356C863.789 601.356 863.581 601.319 863.383 601.247C863.185 601.163 863.013 601.059 862.867 600.934C862.721 600.799 862.602 600.648 862.508 600.481C862.424 600.304 862.383 600.122 862.383 599.934C862.383 599.736 862.424 599.554 862.508 599.387C862.602 599.21 862.721 599.059 862.867 598.934C863.013 598.799 863.185 598.694 863.383 598.622C863.581 598.549 863.789 598.512 864.008 598.512ZM862.633 606.325L864.617 605.512H865.445V620.075H862.633V606.325ZM883.055 606.559V607.731H880.352C880.633 608.127 880.857 608.569 881.023 609.059C881.19 609.538 881.273 610.012 881.273 610.481C881.273 611.221 881.112 611.898 880.789 612.512C880.466 613.116 880.008 613.637 879.414 614.075C878.831 614.512 878.133 614.851 877.32 615.09C876.508 615.33 875.617 615.45 874.648 615.45C874.294 615.45 873.93 615.418 873.555 615.356C873.18 615.293 872.857 615.221 872.586 615.137C872.315 615.356 872.086 615.611 871.898 615.903C871.711 616.194 871.617 616.491 871.617 616.793C871.617 617.075 871.773 617.304 872.086 617.481C872.398 617.658 872.836 617.757 873.398 617.778L878.695 617.997C879.539 618.038 880.237 618.142 880.789 618.309C881.352 618.465 881.799 618.679 882.133 618.95C882.477 619.221 882.716 619.543 882.852 619.918C882.987 620.293 883.055 620.715 883.055 621.184C883.055 622.017 882.862 622.767 882.477 623.434C882.091 624.111 881.534 624.689 880.805 625.168C880.076 625.648 879.185 626.012 878.133 626.262C877.091 626.523 875.914 626.653 874.602 626.653C872.237 626.653 870.471 626.387 869.305 625.856C868.148 625.325 867.57 624.622 867.57 623.747C867.57 623.351 867.669 622.971 867.867 622.606C868.065 622.241 868.315 621.892 868.617 621.559C868.919 621.226 869.258 620.908 869.633 620.606C870.008 620.304 870.378 620.012 870.742 619.731C870.211 619.564 869.768 619.335 869.414 619.043C869.06 618.741 868.883 618.392 868.883 617.997C868.883 617.705 868.956 617.408 869.102 617.106C869.258 616.793 869.466 616.497 869.727 616.215C869.987 615.934 870.294 615.679 870.648 615.45C871.003 615.21 871.378 615.017 871.773 614.872C870.805 614.465 870.049 613.898 869.508 613.168C868.966 612.439 868.695 611.601 868.695 610.653C868.695 609.944 868.857 609.278 869.18 608.653C869.503 608.028 869.945 607.486 870.508 607.028C871.07 606.559 871.732 606.189 872.492 605.918C873.263 605.648 874.091 605.512 874.977 605.512C875.393 605.512 875.81 605.543 876.227 605.606C876.643 605.658 877.029 605.731 877.383 605.825C877.747 605.918 878.065 606.033 878.336 606.168C878.617 606.293 878.836 606.424 878.992 606.559H883.055ZM871.617 619.95C871.19 620.262 870.862 620.642 870.633 621.09C870.414 621.549 870.305 621.976 870.305 622.372C870.305 622.694 870.414 623.002 870.633 623.293C870.862 623.585 871.201 623.84 871.648 624.059C872.096 624.288 872.659 624.465 873.336 624.59C874.013 624.726 874.799 624.793 875.695 624.793C876.643 624.793 877.492 624.715 878.242 624.559C878.992 624.413 879.628 624.215 880.148 623.965C880.669 623.726 881.065 623.45 881.336 623.137C881.617 622.835 881.758 622.528 881.758 622.215C881.758 621.58 881.44 621.116 880.805 620.825C880.169 620.533 879.305 620.387 878.211 620.387C877.523 620.387 876.831 620.372 876.133 620.34C875.435 620.309 874.784 620.267 874.18 620.215C873.586 620.174 873.06 620.127 872.602 620.075C872.143 620.033 871.815 619.991 871.617 619.95ZM875.148 614.715C875.555 614.715 875.94 614.627 876.305 614.45C876.68 614.262 877.008 614.012 877.289 613.7C877.57 613.377 877.794 613.002 877.961 612.575C878.128 612.148 878.211 611.689 878.211 611.2C878.211 610.502 878.117 609.856 877.93 609.262C877.742 608.658 877.482 608.137 877.148 607.7C876.826 607.252 876.445 606.903 876.008 606.653C875.581 606.403 875.122 606.278 874.633 606.278C874.154 606.278 873.737 606.377 873.383 606.575C873.039 606.773 872.753 607.043 872.523 607.387C872.305 607.731 872.138 608.137 872.023 608.606C871.919 609.075 871.867 609.58 871.867 610.122C871.867 610.767 871.945 611.372 872.102 611.934C872.258 612.486 872.482 612.971 872.773 613.387C873.065 613.804 873.409 614.132 873.805 614.372C874.211 614.601 874.659 614.715 875.148 614.715ZM894.352 601.575H897.461V620.075H894.352V601.575ZM905.992 619.403C906.378 619.403 906.732 619.346 907.055 619.231C907.388 619.106 907.669 618.944 907.898 618.747C908.138 618.549 908.326 618.325 908.461 618.075C908.596 617.825 908.664 617.564 908.664 617.293C908.664 616.856 908.555 616.476 908.336 616.153C908.117 615.83 907.826 615.538 907.461 615.278C907.107 615.017 906.701 614.783 906.242 614.575C905.784 614.356 905.315 614.137 904.836 613.918C904.367 613.689 903.904 613.444 903.445 613.184C902.987 612.924 902.576 612.622 902.211 612.278C901.857 611.934 901.57 611.538 901.352 611.09C901.133 610.642 901.023 610.111 901.023 609.497C901.023 608.924 901.143 608.392 901.383 607.903C901.633 607.413 901.971 606.991 902.398 606.637C902.836 606.283 903.352 606.007 903.945 605.809C904.539 605.611 905.19 605.512 905.898 605.512C906.367 605.512 906.81 605.549 907.227 605.622C907.643 605.684 908.044 605.809 908.43 605.997C908.826 606.184 909.221 606.455 909.617 606.809C910.013 607.153 910.424 607.606 910.852 608.168L909.82 609.09C909.279 608.205 908.669 607.549 907.992 607.122C907.326 606.684 906.612 606.465 905.852 606.465C905.445 606.465 905.076 606.517 904.742 606.622C904.409 606.715 904.122 606.851 903.883 607.028C903.643 607.194 903.456 607.392 903.32 607.622C903.195 607.851 903.133 608.096 903.133 608.356C903.133 608.783 903.253 609.158 903.492 609.481C903.732 609.793 904.044 610.08 904.43 610.34C904.826 610.601 905.268 610.84 905.758 611.059C906.258 611.267 906.768 611.486 907.289 611.715C907.81 611.934 908.315 612.174 908.805 612.434C909.305 612.694 909.747 612.997 910.133 613.34C910.529 613.674 910.846 614.064 911.086 614.512C911.326 614.96 911.445 615.481 911.445 616.075C911.445 616.679 911.331 617.247 911.102 617.778C910.883 618.299 910.544 618.752 910.086 619.137C909.638 619.523 909.07 619.83 908.383 620.059C907.706 620.278 906.909 620.387 905.992 620.387C905.576 620.387 905.148 620.351 904.711 620.278C904.273 620.215 903.831 620.09 903.383 619.903C902.935 619.715 902.487 619.45 902.039 619.106C901.591 618.752 901.154 618.293 900.727 617.731L901.883 616.684C902.227 617.174 902.555 617.59 902.867 617.934C903.19 618.278 903.513 618.559 903.836 618.778C904.169 618.997 904.508 619.158 904.852 619.262C905.206 619.356 905.586 619.403 905.992 619.403ZM917.273 620.075H914.445V599.309L916.461 598.512H917.273V620.075ZM931.258 620.075H928.414V618.122C928.081 618.382 927.753 618.648 927.43 618.918C927.107 619.179 926.758 619.418 926.383 619.637C926.008 619.856 925.591 620.033 925.133 620.168C924.674 620.314 924.143 620.387 923.539 620.387C922.977 620.387 922.466 620.293 922.008 620.106C921.56 619.929 921.18 619.684 920.867 619.372C920.555 619.049 920.31 618.668 920.133 618.231C919.966 617.793 919.883 617.325 919.883 616.825C919.883 616.21 920.003 615.658 920.242 615.168C920.492 614.679 920.826 614.241 921.242 613.856C921.669 613.46 922.159 613.111 922.711 612.809C923.273 612.507 923.872 612.236 924.508 611.997C925.143 611.757 925.794 611.549 926.461 611.372C927.128 611.184 927.779 611.007 928.414 610.84V609.95C928.414 609.304 928.346 608.762 928.211 608.325C928.086 607.877 927.904 607.517 927.664 607.247C927.424 606.965 927.133 606.767 926.789 606.653C926.456 606.528 926.076 606.465 925.648 606.465C925.169 606.465 924.779 606.528 924.477 606.653C924.174 606.778 923.935 606.944 923.758 607.153C923.591 607.351 923.477 607.58 923.414 607.84C923.352 608.09 923.32 608.351 923.32 608.622C923.32 608.872 923.299 609.111 923.258 609.34C923.216 609.569 923.143 609.773 923.039 609.95C922.935 610.127 922.789 610.267 922.602 610.372C922.424 610.476 922.195 610.528 921.914 610.528C921.477 610.528 921.117 610.372 920.836 610.059C920.565 609.736 920.43 609.335 920.43 608.856C920.43 608.387 920.581 607.95 920.883 607.543C921.195 607.127 921.612 606.773 922.133 606.481C922.664 606.179 923.279 605.944 923.977 605.778C924.674 605.601 925.409 605.512 926.18 605.512C927.117 605.512 927.909 605.606 928.555 605.793C929.201 605.971 929.721 606.226 930.117 606.559C930.523 606.882 930.815 607.278 930.992 607.747C931.169 608.215 931.258 608.736 931.258 609.309V620.075ZM928.414 611.762C927.799 611.95 927.159 612.189 926.492 612.481C925.826 612.762 925.211 613.085 924.648 613.45C924.086 613.814 923.622 614.221 923.258 614.668C922.893 615.106 922.711 615.575 922.711 616.075C922.711 616.418 922.773 616.747 922.898 617.059C923.034 617.372 923.206 617.648 923.414 617.887C923.633 618.116 923.878 618.304 924.148 618.45C924.43 618.585 924.721 618.653 925.023 618.653C925.346 618.653 925.648 618.611 925.93 618.528C926.221 618.444 926.503 618.335 926.773 618.2C927.044 618.054 927.315 617.887 927.586 617.7C927.857 617.502 928.133 617.299 928.414 617.09V611.762ZM935.055 605.809H937.883V608.418C938.747 607.439 939.643 606.71 940.57 606.231C941.497 605.752 942.445 605.512 943.414 605.512C943.914 605.512 944.378 605.627 944.805 605.856C945.242 606.085 945.622 606.398 945.945 606.793C946.279 607.179 946.539 607.637 946.727 608.168C946.914 608.689 947.008 609.247 947.008 609.84V620.075H944.164V610.309C944.164 609.361 943.951 608.648 943.523 608.168C943.107 607.689 942.565 607.45 941.898 607.45C941.596 607.45 941.279 607.502 940.945 607.606C940.612 607.7 940.268 607.835 939.914 608.012C939.57 608.189 939.227 608.403 938.883 608.653C938.539 608.903 938.206 609.184 937.883 609.497V620.075H935.055V605.809ZM960.367 618.684C960.044 618.944 959.69 619.179 959.305 619.387C958.919 619.596 958.523 619.778 958.117 619.934C957.711 620.08 957.294 620.189 956.867 620.262C956.451 620.346 956.044 620.387 955.648 620.387C954.805 620.387 954.018 620.194 953.289 619.809C952.56 619.413 951.919 618.887 951.367 618.231C950.826 617.564 950.398 616.793 950.086 615.918C949.773 615.033 949.617 614.101 949.617 613.122C949.617 612.153 949.815 611.215 950.211 610.309C950.607 609.392 951.143 608.58 951.82 607.872C952.497 607.153 953.289 606.58 954.195 606.153C955.102 605.726 956.07 605.512 957.102 605.512C957.799 605.512 958.409 605.637 958.93 605.887C959.451 606.127 959.93 606.444 960.367 606.84V599.309L962.352 598.512H963.18V620.387H960.367V618.684ZM960.367 610.34C960.367 609.778 960.263 609.267 960.055 608.809C959.846 608.34 959.57 607.944 959.227 607.622C958.893 607.288 958.513 607.033 958.086 606.856C957.669 606.668 957.242 606.575 956.805 606.575C956.242 606.575 955.711 606.715 955.211 606.997C954.721 607.278 954.294 607.674 953.93 608.184C953.565 608.694 953.273 609.304 953.055 610.012C952.846 610.71 952.742 611.481 952.742 612.325C952.742 613.231 952.857 614.08 953.086 614.872C953.326 615.663 953.648 616.356 954.055 616.95C954.461 617.533 954.935 617.997 955.477 618.34C956.029 618.674 956.617 618.84 957.242 618.84C957.534 618.84 957.826 618.804 958.117 618.731C958.419 618.648 958.706 618.538 958.977 618.403C959.247 618.267 959.503 618.111 959.742 617.934C959.982 617.757 960.19 617.569 960.367 617.372V610.34Z" fill="white"/>
</g>
<g filter="url(#filter1_d_2378_413)">
<path d="M701.825 278.457C708.686 274.629 712.413 274.582 715.25 276.023C716.778 276.799 718.237 278.097 719.854 279.939C721.479 281.792 723.131 284.038 725.138 286.663L725.139 286.664C730.344 293.471 735.234 302.342 738.79 310.517L734.908 310.963L740.666 313.841L740.704 313.86L745.263 316.139L744.248 313.665C753.714 312.021 761.728 307.518 769.466 304.182C777.751 300.609 786.086 298.142 796.726 300.706C798.09 303.386 799.825 305.411 801.603 307.211C803.639 309.273 805.465 310.812 807.276 312.915L807.28 312.92C807.378 313.033 807.516 313.259 807.676 313.689C807.836 314.119 807.968 314.604 808.138 315.209C808.296 315.773 808.487 316.448 808.747 317.081C809.007 317.713 809.384 318.43 809.982 319.029C811.024 320.07 812.507 320.723 813.908 321.184C815.353 321.66 816.974 322.011 818.481 322.314C820.037 322.627 821.437 322.882 822.624 323.179C823.901 323.498 824.488 323.77 824.657 323.912C824.793 324.026 825.027 324.348 825.254 325.078C825.47 325.775 825.614 326.623 825.737 327.555C825.85 328.406 825.958 329.458 826.092 330.24C826.162 330.648 826.255 331.093 826.396 331.5C826.521 331.856 826.773 332.461 827.323 332.913C827.686 333.211 828.119 333.36 828.298 333.422C828.556 333.51 828.856 333.594 829.165 333.673C829.786 333.831 830.602 334.009 831.521 334.209C833.386 334.614 835.802 335.136 838.42 335.85C843.571 337.256 849.174 339.325 852.764 342.433L853.104 342.737C857.272 346.564 859.431 350.26 860.253 353.742C861.073 357.216 860.607 360.669 859.188 364.099C856.308 371.063 849.612 377.671 842.564 383.379C834.066 390.258 829.641 392.008 825.229 392.539C822.9 392.819 820.564 392.766 817.422 392.809C814.327 392.853 810.646 392.995 805.895 393.698H805.894C801.737 394.314 797.457 395.846 793.176 397.635C791.028 398.532 788.848 399.508 786.667 400.479C784.478 401.455 782.283 402.428 780.07 403.339C771.574 406.836 763.162 409.247 754.858 407.251C754.294 403.676 752.759 400.479 751.308 397.562C749.622 394.174 748.067 391.184 747.524 387.932C747.272 386.41 747.122 383.128 746.902 378.795C746.687 374.549 746.409 369.454 745.885 364.535C745.363 359.641 744.586 354.794 743.332 351.083C742.707 349.232 741.923 347.539 740.903 346.251C739.869 344.944 738.472 343.916 736.669 343.77L735.836 343.703L735.221 344.268C731.403 347.776 726.387 348.469 721.02 347.43C715.634 346.387 710.145 343.631 705.832 340.629L705.831 340.628L705.418 340.335C696.792 334.09 690.558 321.66 689.191 309.104C687.804 296.352 691.484 284.228 701.825 278.457Z" fill="#E17F69" stroke="white" stroke-width="3.82521"/>
<path d="M765.693 346.835H768.865L776.068 361.038H776.209L783.272 346.835H786.397V365.335H783.272V350.178H783.162L775.584 365.335H774.943L767.272 350.288H767.053V365.335H765.693V346.835ZM800.912 365.335H798.068V363.381C797.735 363.642 797.407 363.908 797.084 364.178C796.761 364.439 796.412 364.678 796.037 364.897C795.662 365.116 795.246 365.293 794.787 365.428C794.329 365.574 793.798 365.647 793.193 365.647C792.631 365.647 792.121 365.553 791.662 365.366C791.214 365.189 790.834 364.944 790.522 364.631C790.209 364.309 789.964 363.928 789.787 363.491C789.621 363.053 789.537 362.585 789.537 362.085C789.537 361.47 789.657 360.918 789.897 360.428C790.147 359.939 790.48 359.501 790.897 359.116C791.324 358.72 791.813 358.371 792.365 358.069C792.928 357.767 793.527 357.496 794.162 357.256C794.798 357.017 795.449 356.809 796.115 356.631C796.782 356.444 797.433 356.267 798.068 356.1V355.21C798.068 354.564 798.001 354.022 797.865 353.585C797.74 353.137 797.558 352.777 797.318 352.506C797.079 352.225 796.787 352.027 796.443 351.913C796.11 351.788 795.73 351.725 795.303 351.725C794.824 351.725 794.433 351.788 794.131 351.913C793.829 352.038 793.589 352.204 793.412 352.413C793.246 352.611 793.131 352.84 793.068 353.1C793.006 353.35 792.975 353.611 792.975 353.881C792.975 354.131 792.954 354.371 792.912 354.6C792.871 354.829 792.798 355.033 792.693 355.21C792.589 355.387 792.443 355.527 792.256 355.631C792.079 355.736 791.85 355.788 791.568 355.788C791.131 355.788 790.772 355.631 790.49 355.319C790.219 354.996 790.084 354.595 790.084 354.116C790.084 353.647 790.235 353.21 790.537 352.803C790.85 352.387 791.266 352.033 791.787 351.741C792.318 351.439 792.933 351.204 793.631 351.038C794.329 350.861 795.063 350.772 795.834 350.772C796.772 350.772 797.563 350.866 798.209 351.053C798.855 351.23 799.376 351.486 799.772 351.819C800.178 352.142 800.469 352.538 800.647 353.006C800.824 353.475 800.912 353.996 800.912 354.569V365.335ZM798.068 357.022C797.454 357.21 796.813 357.449 796.147 357.741C795.48 358.022 794.865 358.345 794.303 358.71C793.74 359.074 793.277 359.48 792.912 359.928C792.548 360.366 792.365 360.835 792.365 361.335C792.365 361.678 792.428 362.006 792.553 362.319C792.688 362.631 792.86 362.908 793.068 363.147C793.287 363.376 793.532 363.564 793.803 363.71C794.084 363.845 794.376 363.913 794.678 363.913C795.001 363.913 795.303 363.871 795.584 363.788C795.876 363.704 796.157 363.595 796.428 363.46C796.699 363.314 796.969 363.147 797.24 362.96C797.511 362.762 797.787 362.559 798.068 362.35V357.022ZM807.537 351.069V361.225C807.537 361.579 807.621 361.913 807.787 362.225C807.954 362.527 808.178 362.798 808.459 363.038C808.74 363.267 809.068 363.449 809.443 363.585C809.829 363.72 810.24 363.788 810.678 363.788C810.959 363.788 811.261 363.73 811.584 363.616C811.907 363.491 812.219 363.324 812.522 363.116C812.824 362.908 813.11 362.663 813.381 362.381C813.652 362.1 813.876 361.803 814.053 361.491V351.069H816.881V365.335H814.053V362.663C813.803 363.069 813.49 363.454 813.115 363.819C812.74 364.184 812.329 364.501 811.881 364.772C811.443 365.043 810.99 365.256 810.522 365.413C810.063 365.569 809.626 365.647 809.209 365.647C808.584 365.647 807.996 365.533 807.443 365.303C806.902 365.064 806.428 364.746 806.022 364.35C805.615 363.944 805.292 363.475 805.053 362.944C804.824 362.402 804.709 361.829 804.709 361.225V351.069H807.537ZM821.725 343.772C821.943 343.772 822.152 343.809 822.35 343.881C822.558 343.954 822.735 344.059 822.881 344.194C823.027 344.319 823.141 344.47 823.225 344.647C823.318 344.814 823.365 344.996 823.365 345.194C823.365 345.381 823.318 345.564 823.225 345.741C823.141 345.908 823.027 346.059 822.881 346.194C822.735 346.319 822.558 346.423 822.35 346.506C822.152 346.579 821.943 346.616 821.725 346.616C821.506 346.616 821.298 346.579 821.1 346.506C820.902 346.423 820.73 346.319 820.584 346.194C820.438 346.059 820.318 345.908 820.225 345.741C820.141 345.564 820.1 345.381 820.1 345.194C820.1 344.996 820.141 344.814 820.225 344.647C820.318 344.47 820.438 344.319 820.584 344.194C820.73 344.059 820.902 343.954 821.1 343.881C821.298 343.809 821.506 343.772 821.725 343.772ZM820.35 351.585L822.334 350.772H823.162V365.335H820.35V351.585Z" fill="white"/>
</g>
<g filter="url(#filter2_d_2378_413)">
<path d="M419.469 119.136C428.99 123.142 434.675 130.937 440.255 139.992C441.367 141.809 445.566 149.106 449.562 156.197C451.557 159.738 453.491 163.212 454.953 165.902C455.685 167.249 456.293 168.39 456.729 169.241C456.947 169.668 457.116 170.009 457.233 170.261C457.315 170.435 457.35 170.523 457.361 170.549C458.001 173.059 457.907 176.465 457.834 180.213C457.799 182.028 457.774 183.899 457.883 185.629C457.991 187.343 458.238 189.064 458.818 190.544L458.82 190.549C459.322 191.816 460.135 192.869 460.938 193.756C461.691 194.589 462.678 195.523 463.365 196.23C464.914 197.825 465.836 199.139 465.863 200.819L465.914 203.992L468.475 202.711C469.552 202.557 470.445 202.115 471.107 201.319C471.705 200.602 472.002 199.662 472.141 199.298C472.328 198.807 472.467 198.536 472.685 198.309C472.888 198.096 473.297 197.783 474.231 197.53C477.797 196.565 481.254 196.588 485.004 196.681C484.539 198.017 484.299 199.262 484.261 200.445C484.196 202.456 484.717 204.126 485.444 205.591C486.133 206.977 487.084 208.307 487.812 209.428C488.585 210.615 489.234 211.74 489.641 213.026C490.137 214.601 490.201 216.249 490.353 218.381C490.489 220.301 490.701 222.497 491.554 224.798L491.732 225.259C492.972 228.308 495.987 231.63 499.279 234.191C501.813 236.162 504.791 237.9 507.633 238.7C504.556 247.471 498.732 254.047 489.69 255.146L488.952 250.854L488.674 249.239L487.037 249.196C482.627 249.081 478.668 251.096 475.321 252.648C471.782 254.29 468.82 255.485 465.658 254.971C462.397 254.44 459.652 252.512 456.828 250.061C456.129 249.454 455.441 248.83 454.74 248.195C454.045 247.566 453.337 246.924 452.622 246.309C451.199 245.084 449.68 243.895 448.029 243.002L448.027 243.001C435.959 236.487 425.555 238.329 416.251 241.078C411.521 242.475 407.352 244.008 403.072 244.99C399.205 245.878 395.529 246.234 391.868 245.532C389.103 239.685 386.793 233.705 384.164 227.614C381.431 221.282 378.402 214.959 374.312 209.086V209.085L373.978 208.622C372.229 206.291 369.41 203.704 367.018 201.48C365.698 200.254 364.485 199.119 363.517 198.109C362.627 197.181 362.094 196.509 361.85 196.078L361.763 195.908C360.844 193.84 360.73 191.459 360.777 188.625C360.823 185.924 361.028 182.711 360.407 179.672L360.285 179.143C359.607 176.489 357.924 173.702 356.325 171.203C354.52 168.381 352.768 165.845 351.756 163.557C350.718 161.211 350.863 160.04 351.484 159.318C351.872 158.868 352.64 158.326 354.135 157.863C355.623 157.402 357.699 157.061 360.531 156.914L360.534 156.913C362.731 156.797 364.969 157.223 367.608 157.719C370.172 158.2 373.059 158.731 376.176 158.588H376.177C389.041 157.99 395.39 148.823 400.802 139.922C403.57 135.368 406.08 130.899 409.149 127.095C412.027 123.528 415.285 120.7 419.469 119.136Z" fill="#E17F69" stroke="white" stroke-width="3.99273"/>
<path d="M390.969 198.95C390.011 198.95 389.094 198.83 388.219 198.591C387.344 198.362 386.526 198.034 385.766 197.606C385.016 197.179 384.328 196.669 383.703 196.075C383.089 195.481 382.563 194.82 382.125 194.091C381.698 193.362 381.365 192.58 381.125 191.747C380.886 190.914 380.766 190.049 380.766 189.153C380.766 188.268 380.886 187.419 381.125 186.606C381.365 185.794 381.698 185.034 382.125 184.325C382.563 183.617 383.089 182.971 383.703 182.388C384.328 181.804 385.016 181.31 385.766 180.903C386.526 180.487 387.344 180.164 388.219 179.935C389.094 179.705 390.011 179.591 390.969 179.591C392.406 179.591 393.745 179.841 394.985 180.341C396.224 180.841 397.297 181.523 398.203 182.388C399.12 183.252 399.839 184.268 400.36 185.435C400.891 186.591 401.156 187.83 401.156 189.153C401.156 190.049 401.037 190.914 400.797 191.747C400.557 192.58 400.219 193.362 399.781 194.091C399.354 194.82 398.834 195.481 398.219 196.075C397.604 196.669 396.917 197.179 396.156 197.606C395.406 198.034 394.594 198.362 393.719 198.591C392.844 198.83 391.927 198.95 390.969 198.95ZM390.969 198.028C392.021 198.028 392.953 197.81 393.766 197.372C394.578 196.924 395.261 196.304 395.813 195.513C396.375 194.721 396.797 193.784 397.078 192.7C397.37 191.617 397.516 190.435 397.516 189.153C397.516 187.882 397.37 186.721 397.078 185.669C396.797 184.606 396.375 183.695 395.813 182.935C395.261 182.164 394.578 181.565 393.766 181.138C392.953 180.711 392.021 180.497 390.969 180.497C389.886 180.497 388.932 180.711 388.11 181.138C387.297 181.565 386.615 182.164 386.063 182.935C385.511 183.695 385.094 184.606 384.813 185.669C384.542 186.721 384.406 187.882 384.406 189.153C384.406 190.435 384.542 191.617 384.813 192.7C385.094 193.784 385.511 194.721 386.063 195.513C386.615 196.304 387.297 196.924 388.11 197.372C388.932 197.81 389.886 198.028 390.969 198.028ZM414.875 198.513H412.031V196.56C411.698 196.82 411.37 197.086 411.047 197.356C410.724 197.617 410.375 197.856 410 198.075C409.625 198.294 409.209 198.471 408.75 198.606C408.292 198.752 407.761 198.825 407.156 198.825C406.594 198.825 406.084 198.731 405.625 198.544C405.177 198.367 404.797 198.122 404.485 197.81C404.172 197.487 403.927 197.106 403.75 196.669C403.584 196.231 403.5 195.763 403.5 195.263C403.5 194.648 403.62 194.096 403.86 193.606C404.11 193.117 404.443 192.679 404.86 192.294C405.287 191.898 405.776 191.549 406.328 191.247C406.891 190.945 407.49 190.674 408.125 190.435C408.761 190.195 409.412 189.987 410.078 189.81C410.745 189.622 411.396 189.445 412.031 189.278V188.388C412.031 187.742 411.964 187.2 411.828 186.763C411.703 186.315 411.521 185.955 411.281 185.685C411.042 185.403 410.75 185.205 410.406 185.091C410.073 184.966 409.693 184.903 409.266 184.903C408.787 184.903 408.396 184.966 408.094 185.091C407.792 185.216 407.552 185.382 407.375 185.591C407.209 185.789 407.094 186.018 407.031 186.278C406.969 186.528 406.938 186.789 406.938 187.06C406.938 187.31 406.917 187.549 406.875 187.778C406.834 188.007 406.761 188.211 406.656 188.388C406.552 188.565 406.406 188.705 406.219 188.81C406.042 188.914 405.813 188.966 405.531 188.966C405.094 188.966 404.735 188.81 404.453 188.497C404.182 188.174 404.047 187.773 404.047 187.294C404.047 186.825 404.198 186.388 404.5 185.981C404.813 185.565 405.229 185.211 405.75 184.919C406.281 184.617 406.896 184.382 407.594 184.216C408.292 184.039 409.026 183.95 409.797 183.95C410.735 183.95 411.526 184.044 412.172 184.231C412.818 184.409 413.339 184.664 413.735 184.997C414.141 185.32 414.432 185.716 414.61 186.185C414.787 186.653 414.875 187.174 414.875 187.747V198.513ZM412.031 190.2C411.417 190.388 410.776 190.627 410.11 190.919C409.443 191.2 408.828 191.523 408.266 191.888C407.703 192.252 407.24 192.659 406.875 193.106C406.511 193.544 406.328 194.013 406.328 194.513C406.328 194.856 406.391 195.185 406.516 195.497C406.651 195.81 406.823 196.086 407.031 196.325C407.25 196.554 407.495 196.742 407.766 196.888C408.047 197.023 408.339 197.091 408.641 197.091C408.964 197.091 409.266 197.049 409.547 196.966C409.839 196.882 410.12 196.773 410.391 196.638C410.662 196.492 410.932 196.325 411.203 196.138C411.474 195.94 411.75 195.737 412.031 195.528V190.2ZM421.5 186.856C422.354 185.877 423.245 185.148 424.172 184.669C425.11 184.19 426.063 183.95 427.031 183.95C427.531 183.95 427.995 184.065 428.422 184.294C428.86 184.523 429.24 184.836 429.563 185.231C429.886 185.617 430.141 186.075 430.328 186.606C430.516 187.127 430.61 187.685 430.61 188.278V198.513H427.781V188.747C427.781 187.799 427.568 187.086 427.141 186.606C426.724 186.127 426.177 185.888 425.5 185.888C425.198 185.888 424.88 185.94 424.547 186.044C424.214 186.138 423.875 186.273 423.531 186.45C423.188 186.627 422.844 186.841 422.5 187.091C422.156 187.341 421.823 187.622 421.5 187.935V198.513H418.672V177.747L420.688 176.95H421.5V186.856ZM436.781 184.247V194.403C436.781 194.757 436.865 195.091 437.031 195.403C437.198 195.705 437.422 195.976 437.703 196.216C437.985 196.445 438.313 196.627 438.688 196.763C439.073 196.898 439.485 196.966 439.922 196.966C440.203 196.966 440.505 196.909 440.828 196.794C441.151 196.669 441.464 196.502 441.766 196.294C442.068 196.086 442.354 195.841 442.625 195.56C442.896 195.278 443.12 194.981 443.297 194.669V184.247H446.125V198.513H443.297V195.841C443.047 196.247 442.735 196.632 442.36 196.997C441.985 197.362 441.573 197.679 441.125 197.95C440.688 198.221 440.235 198.435 439.766 198.591C439.307 198.747 438.87 198.825 438.453 198.825C437.828 198.825 437.24 198.711 436.688 198.481C436.146 198.242 435.672 197.924 435.266 197.528C434.86 197.122 434.537 196.653 434.297 196.122C434.068 195.58 433.953 195.007 433.953 194.403V184.247H436.781Z" fill="white"/>
</g>
<g filter="url(#filter3_d_2378_413)">
<path d="M165.725 21.1797C169.585 20.6931 176.073 20.7584 182.29 21.6348C185.389 22.0716 188.362 22.7025 190.868 23.54C193.412 24.3902 195.294 25.3945 196.387 26.4746V26.4756C199.666 29.7286 202.395 35.1571 204.196 41.1445C205.99 47.1072 206.782 53.3538 206.389 58.0713C206.069 61.8626 204.713 64.9417 203.184 67.9414C201.706 70.8396 199.901 73.9235 199.228 77.2646C198.524 80.7411 198.647 84.154 198.7 87.3203C198.755 90.5496 198.743 93.5948 197.939 96.7305C197.554 98.2258 196.289 100.456 194.275 103.108C192.303 105.706 189.751 108.531 187.012 111.188C184.272 113.844 181.377 116.3 178.732 118.171C176.026 120.085 173.783 121.24 172.309 121.537L172.305 121.538C170.064 121.995 166.979 121.739 163.224 120.974C159.51 120.217 155.368 119.014 151.083 117.743C146.831 116.482 142.438 115.154 138.341 114.199C134.56 113.318 130.887 112.718 127.693 112.817C125.764 111.234 124.316 109.352 122.694 107.258C120.963 105.021 119.045 102.564 116.236 100.502H116.235C113.818 98.7172 110.991 97.3746 108.185 96.1816C105.298 94.9545 102.537 93.9239 99.8682 92.6592C94.6135 90.1693 90.6356 87.1764 89.4053 81.6494C88.1047 75.8069 89.3479 71.5672 91.6436 67.5254C92.8198 65.4545 94.2631 63.4524 95.835 61.2773C97.194 59.3968 98.6389 57.3986 99.9863 55.2139L100.558 54.2666C101.711 52.304 102.31 49.7685 102.812 47.7646C103.077 46.7056 103.316 45.7719 103.593 44.9717C103.874 44.1562 104.143 43.636 104.393 43.333C104.581 43.1036 105.075 42.734 106.045 42.2598C106.965 41.8101 108.1 41.3653 109.368 40.8896C111.783 39.9838 114.799 38.9364 116.835 37.6338L116.836 37.6348C118.856 36.348 121.018 34.6974 123.213 32.9902C125.432 31.2645 127.695 29.4718 130.004 27.8154C134.358 24.692 138.525 22.3237 142.284 21.8408L143.147 21.8008C145.164 21.7052 147.111 22.5854 148.954 23.7031C149.405 23.9766 149.836 24.254 150.255 24.5273C150.664 24.7942 151.082 25.0699 151.466 25.3066C151.846 25.5412 152.256 25.7772 152.66 25.957C153.033 26.123 153.572 26.3185 154.178 26.3164V26.3174C154.181 26.3174 154.184 26.3164 154.188 26.3164C154.191 26.3164 154.195 26.3174 154.199 26.3174L154.198 26.3164C154.578 26.3128 154.89 26.2093 155.051 26.1494C155.243 26.0778 155.424 25.9904 155.576 25.9102C155.879 25.7503 156.221 25.5395 156.559 25.3262C157.271 24.8761 158.084 24.3363 159.063 23.7598C161.023 22.6057 163.357 21.4819 165.725 21.1797Z" fill="#E17F69" stroke="white" stroke-width="3.75551"/>
<path d="M120.318 57.2808H123.427V65.4683L133.146 57.2808H135.177L125.927 65.062L137.662 75.7808H133.709L123.427 66.3901V75.7808H120.318V57.2808ZM149.912 75.7808H147.068V73.8276C146.735 74.0881 146.407 74.3537 146.084 74.6245C145.761 74.8849 145.412 75.1245 145.037 75.3433C144.662 75.562 144.245 75.7391 143.787 75.8745C143.328 76.0203 142.797 76.0933 142.193 76.0933C141.63 76.0933 141.12 75.9995 140.662 75.812C140.214 75.6349 139.834 75.3901 139.521 75.0776C139.209 74.7547 138.964 74.3745 138.787 73.937C138.62 73.4995 138.537 73.0308 138.537 72.5308C138.537 71.9162 138.657 71.3641 138.896 70.8745C139.146 70.3849 139.479 69.9474 139.896 69.562C140.323 69.1662 140.813 68.8172 141.365 68.5151C141.927 68.2131 142.526 67.9422 143.162 67.7026C143.797 67.4631 144.448 67.2547 145.115 67.0776C145.782 66.8901 146.433 66.7131 147.068 66.5464V65.6558C147.068 65.0099 147 64.4683 146.865 64.0308C146.74 63.5828 146.558 63.2235 146.318 62.9526C146.078 62.6714 145.787 62.4735 145.443 62.3589C145.11 62.2339 144.729 62.1714 144.302 62.1714C143.823 62.1714 143.433 62.2339 143.13 62.3589C142.828 62.4839 142.589 62.6506 142.412 62.8589C142.245 63.0568 142.13 63.286 142.068 63.5464C142.005 63.7964 141.974 64.0568 141.974 64.3276C141.974 64.5776 141.953 64.8172 141.912 65.0464C141.87 65.2756 141.797 65.4787 141.693 65.6558C141.589 65.8328 141.443 65.9735 141.255 66.0776C141.078 66.1818 140.849 66.2339 140.568 66.2339C140.13 66.2339 139.771 66.0776 139.49 65.7651C139.219 65.4422 139.084 65.0412 139.084 64.562C139.084 64.0933 139.235 63.6558 139.537 63.2495C139.849 62.8328 140.266 62.4787 140.787 62.187C141.318 61.8849 141.933 61.6506 142.63 61.4839C143.328 61.3068 144.063 61.2183 144.834 61.2183C145.771 61.2183 146.563 61.312 147.209 61.4995C147.854 61.6766 148.375 61.9318 148.771 62.2651C149.177 62.5881 149.469 62.9839 149.646 63.4526C149.823 63.9214 149.912 64.4422 149.912 65.0151V75.7808ZM147.068 67.4683C146.453 67.6558 145.813 67.8953 145.146 68.187C144.479 68.4683 143.865 68.7912 143.302 69.1558C142.74 69.5203 142.276 69.9266 141.912 70.3745C141.547 70.812 141.365 71.2808 141.365 71.7808C141.365 72.1245 141.427 72.4526 141.552 72.7651C141.688 73.0776 141.86 73.3537 142.068 73.5933C142.287 73.8224 142.532 74.0099 142.802 74.1558C143.084 74.2912 143.375 74.3589 143.677 74.3589C144 74.3589 144.302 74.3172 144.584 74.2339C144.875 74.1506 145.157 74.0412 145.427 73.9058C145.698 73.7599 145.969 73.5933 146.24 73.4058C146.511 73.2078 146.787 73.0047 147.068 72.7964V67.4683ZM156.537 61.5151V71.6714C156.537 72.0256 156.62 72.3589 156.787 72.6714C156.953 72.9735 157.177 73.2443 157.459 73.4839C157.74 73.7131 158.068 73.8953 158.443 74.0308C158.828 74.1662 159.24 74.2339 159.677 74.2339C159.959 74.2339 160.261 74.1766 160.584 74.062C160.907 73.937 161.219 73.7703 161.521 73.562C161.823 73.3537 162.11 73.1089 162.38 72.8276C162.651 72.5464 162.875 72.2495 163.052 71.937V61.5151H165.88V75.7808H163.052V73.1089C162.802 73.5151 162.49 73.9006 162.115 74.2651C161.74 74.6297 161.328 74.9474 160.88 75.2183C160.443 75.4891 159.99 75.7026 159.521 75.8589C159.063 76.0151 158.625 76.0933 158.209 76.0933C157.584 76.0933 156.995 75.9787 156.443 75.7495C155.901 75.5099 155.427 75.1922 155.021 74.7964C154.615 74.3901 154.292 73.9214 154.052 73.3901C153.823 72.8485 153.709 72.2756 153.709 71.6714V61.5151H156.537ZM179.724 75.7808H176.88V73.8276C176.547 74.0881 176.219 74.3537 175.896 74.6245C175.573 74.8849 175.224 75.1245 174.849 75.3433C174.474 75.562 174.058 75.7391 173.599 75.8745C173.141 76.0203 172.61 76.0933 172.005 76.0933C171.443 76.0933 170.933 75.9995 170.474 75.812C170.026 75.6349 169.646 75.3901 169.334 75.0776C169.021 74.7547 168.776 74.3745 168.599 73.937C168.433 73.4995 168.349 73.0308 168.349 72.5308C168.349 71.9162 168.469 71.3641 168.709 70.8745C168.959 70.3849 169.292 69.9474 169.709 69.562C170.136 69.1662 170.625 68.8172 171.177 68.5151C171.74 68.2131 172.339 67.9422 172.974 67.7026C173.61 67.4631 174.261 67.2547 174.927 67.0776C175.594 66.8901 176.245 66.7131 176.88 66.5464V65.6558C176.88 65.0099 176.813 64.4683 176.677 64.0308C176.552 63.5828 176.37 63.2235 176.13 62.9526C175.891 62.6714 175.599 62.4735 175.255 62.3589C174.922 62.2339 174.542 62.1714 174.115 62.1714C173.636 62.1714 173.245 62.2339 172.943 62.3589C172.641 62.4839 172.401 62.6506 172.224 62.8589C172.058 63.0568 171.943 63.286 171.88 63.5464C171.818 63.7964 171.787 64.0568 171.787 64.3276C171.787 64.5776 171.766 64.8172 171.724 65.0464C171.683 65.2756 171.61 65.4787 171.505 65.6558C171.401 65.8328 171.255 65.9735 171.068 66.0776C170.891 66.1818 170.662 66.2339 170.38 66.2339C169.943 66.2339 169.584 66.0776 169.302 65.7651C169.032 65.4422 168.896 65.0412 168.896 64.562C168.896 64.0933 169.047 63.6558 169.349 63.2495C169.662 62.8328 170.078 62.4787 170.599 62.187C171.13 61.8849 171.745 61.6506 172.443 61.4839C173.141 61.3068 173.875 61.2183 174.646 61.2183C175.584 61.2183 176.375 61.312 177.021 61.4995C177.667 61.6766 178.188 61.9318 178.584 62.2651C178.99 62.5881 179.282 62.9839 179.459 63.4526C179.636 63.9214 179.724 64.4422 179.724 65.0151V75.7808ZM176.88 67.4683C176.266 67.6558 175.625 67.8953 174.959 68.187C174.292 68.4683 173.677 68.7912 173.115 69.1558C172.552 69.5203 172.089 69.9266 171.724 70.3745C171.36 70.812 171.177 71.2808 171.177 71.7808C171.177 72.1245 171.24 72.4526 171.365 72.7651C171.5 73.0776 171.672 73.3537 171.88 73.5933C172.099 73.8224 172.344 74.0099 172.615 74.1558C172.896 74.2912 173.188 74.3589 173.49 74.3589C173.813 74.3589 174.115 74.3172 174.396 74.2339C174.688 74.1506 174.969 74.0412 175.24 73.9058C175.511 73.7599 175.782 73.5933 176.052 73.4058C176.323 73.2078 176.599 73.0047 176.88 72.7964V67.4683ZM185.037 54.2183C185.255 54.2183 185.464 54.2547 185.662 54.3276C185.87 54.4006 186.047 54.5047 186.193 54.6401C186.339 54.7651 186.453 54.9162 186.537 55.0933C186.63 55.2599 186.677 55.4422 186.677 55.6401C186.677 55.8276 186.63 56.0099 186.537 56.187C186.453 56.3537 186.339 56.5047 186.193 56.6401C186.047 56.7651 185.87 56.8693 185.662 56.9526C185.464 57.0256 185.255 57.062 185.037 57.062C184.818 57.062 184.61 57.0256 184.412 56.9526C184.214 56.8693 184.042 56.7651 183.896 56.6401C183.75 56.5047 183.63 56.3537 183.537 56.187C183.453 56.0099 183.412 55.8276 183.412 55.6401C183.412 55.4422 183.453 55.2599 183.537 55.0933C183.63 54.9162 183.75 54.7651 183.896 54.6401C184.042 54.5047 184.214 54.4006 184.412 54.3276C184.61 54.2547 184.818 54.2183 185.037 54.2183ZM183.662 62.0308L185.646 61.2183H186.474V75.7808H183.662V62.0308Z" fill="white"/>
</g>
<path d="M613.643 243.066L616.826 236.777C625.982 231.154 624.587 247.795 631.56 249.083C635.547 249.811 648.735 246.567 654.056 246.355C659.377 246.143 664.834 245.946 669.851 248.113C668.729 278.227 636.684 280.939 613.552 271.816C609.353 270.164 602.82 264.92 599.636 264.799C594.831 264.632 586.524 267.391 581.34 267.618C572.032 268.027 562.619 267.36 553.311 267.618C550.962 258.343 563.028 252.266 564.802 246.476C566.075 242.309 562.861 236.959 566.409 235.989L613.643 243.066Z" fill="#F9B9AA"/>
<path d="M612.036 301.323C624.83 299.02 634.395 300.853 642.793 310.78C655.845 326.208 656.83 339.696 635.85 346.349C605.791 355.882 620.495 338.135 611.263 322.601C608.353 317.691 602.668 318.63 601.774 313.811C600.455 306.718 605.563 302.49 612.036 301.323Z" fill="#F9B9AA"/>
<path d="M37.9323 87.2711C23.2739 89.3625 16.8467 99.3801 13.5421 112.914C9.70694 115.581 1.65769 107.685 0.657224 104.018C0.323734 102.79 4.31046 85.3767 4.94712 84.6038C5.91728 83.452 8.66099 83.6793 9.55535 82.8458C13.8604 78.86 20.3635 75.2985 22.3189 73.1919C25.0778 70.2215 26.8362 59.6432 29.8528 58.6429C34.2791 59.2188 40.5396 57.188 41.7523 62.8864C41.2369 71.2066 33.5667 79.0873 37.9475 87.2711H37.9323Z" fill="#F9B9AA"/>
<path d="M704.898 397.953L673.186 402.454C671.033 396.028 667.122 392.603 673.792 387.329C677.476 384.434 681.038 385.146 683.6 383.494C685.389 382.343 685.859 379.221 688.284 377.584C703.094 367.536 702.639 388.738 704.883 397.968L704.898 397.953Z" fill="#F9B9AA"/>
<defs>
<filter id="filter0_d_2378_413" x="754.979" y="417.543" width="312.021" height="380.118" filterUnits="userSpaceOnUse" color-interpolation-filters="sRGB">
<feFlood flood-opacity="0" result="BackgroundImageFix"/>
<feColorMatrix in="SourceAlpha" type="matrix" values="0 0 0 0 0 0 0 0 0 0 0 0 0 0 0 0 0 0 127 0" result="hardAlpha"/>
<feOffset dy="4.00564"/>
<feGaussianBlur stdDeviation="18"/>
<feComposite in2="hardAlpha" operator="out"/>
<feColorMatrix type="matrix" values="0 0 0 0 0 0 0 0 0 0 0 0 0 0 0 0 0 0 0.25 0"/>
<feBlend mode="normal" in2="BackgroundImageFix" result="effect1_dropShadow_2378_413"/>
<feBlend mode="normal" in="SourceGraphic" in2="effect1_dropShadow_2378_413" result="shape"/>
</filter>
<filter id="filter1_d_2378_413" x="641.098" y="232.434" width="267.374" height="228.458" filterUnits="userSpaceOnUse" color-interpolation-filters="sRGB">
<feFlood flood-opacity="0" result="BackgroundImageFix"/>
<feColorMatrix in="SourceAlpha" type="matrix" values="0 0 0 0 0 0 0 0 0 0 0 0 0 0 0 0 0 0 127 0" result="hardAlpha"/>
<feOffset dy="5.10028"/>
<feGaussianBlur stdDeviation="22.9512"/>
<feComposite in2="hardAlpha" operator="out"/>
<feColorMatrix type="matrix" values="0 0 0 0 0 0 0 0 0 0 0 0 0 0 0 0 0 0 0.25 0"/>
<feBlend mode="normal" in2="BackgroundImageFix" result="effect1_dropShadow_2378_413"/>
<feBlend mode="normal" in="SourceGraphic" in2="effect1_dropShadow_2378_413" result="shape"/>
</filter>
<filter id="filter2_d_2378_413" x="301.087" y="74.4109" width="257.052" height="236.109" filterUnits="userSpaceOnUse" color-interpolation-filters="sRGB">
<feFlood flood-opacity="0" result="BackgroundImageFix"/>
<feColorMatrix in="SourceAlpha" type="matrix" values="0 0 0 0 0 0 0 0 0 0 0 0 0 0 0 0 0 0 127 0" result="hardAlpha"/>
<feOffset dy="5.32364"/>
<feGaussianBlur stdDeviation="23.9564"/>
<feComposite in2="hardAlpha" operator="out"/>
<feColorMatrix type="matrix" values="0 0 0 0 0 0 0 0 0 0 0 0 0 0 0 0 0 0 0.25 0"/>
<feBlend mode="normal" in2="BackgroundImageFix" result="effect1_dropShadow_2378_413"/>
<feBlend mode="normal" in="SourceGraphic" in2="effect1_dropShadow_2378_413" result="shape"/>
</filter>
<filter id="filter3_d_2378_413" x="35.9251" y="0.472832" width="231.026" height="214.303" filterUnits="userSpaceOnUse" color-interpolation-filters="sRGB">
<feFlood flood-opacity="0" result="BackgroundImageFix"/>
<feColorMatrix in="SourceAlpha" type="matrix" values="0 0 0 0 0 0 0 0 0 0 0 0 0 0 0 0 0 0 127 0" result="hardAlpha"/>
<feOffset dx="3.75551" dy="36.3032"/>
<feGaussianBlur stdDeviation="27.4152"/>
<feColorMatrix type="matrix" values="0 0 0 0 0 0 0 0 0 0 0 0 0 0 0 0 0 0 0.1 0"/>
<feBlend mode="normal" in2="BackgroundImageFix" result="effect1_dropShadow_2378_413"/>
<feBlend mode="normal" in="SourceGraphic" in2="effect1_dropShadow_2378_413" result="shape"/>
</filter>
</defs>
</svg>
