<svg width="1392" height="1227" viewBox="0 0 1392 1227" fill="none" xmlns="http://www.w3.org/2000/svg">
<g clip-path="url(#clip0_2394_368)">
<path d="M974.399 132.7C974.399 132.7 979.399 152.7 1012.4 132.7C1012.4 132.7 1029.4 156.59 1044.4 137.14C1044.4 137.14 1067.4 154.7 1074.4 132.7" stroke="white" stroke-width="2" stroke-miterlimit="10"/>
</g>
<g clip-path="url(#clip1_2394_368)">
<path d="M1259.4 0.669922C1259.4 0.669922 1264.4 20.6699 1297.4 0.669922C1297.4 0.669922 1314.4 24.5599 1329.4 5.10992C1329.4 5.10992 1352.4 22.6699 1359.4 0.669922" stroke="white" stroke-width="2" stroke-miterlimit="10"/>
</g>
<g clip-path="url(#clip2_2394_368)">
<path d="M476.879 265.203C476.879 265.203 481.879 285.203 514.879 265.203C514.879 265.203 531.879 289.093 546.879 269.643C546.879 269.643 569.879 287.203 576.879 265.203" stroke="white" stroke-width="2" stroke-miterlimit="10"/>
</g>
<g clip-path="url(#clip3_2394_368)">
<path d="M826.817 251.963C826.817 251.963 831.817 271.963 864.817 251.963C864.817 251.963 881.817 275.853 896.817 256.403C896.817 256.403 919.817 273.963 926.817 251.963" stroke="white" stroke-width="2" stroke-miterlimit="10"/>
</g>
<g clip-path="url(#clip4_2394_368)">
<path d="M1223.4 522.823C1223.4 522.823 1228.4 542.823 1261.4 522.823C1261.4 522.823 1278.4 546.713 1293.4 527.263C1293.4 527.263 1316.4 544.823 1323.4 522.823" stroke="white" stroke-width="2" stroke-miterlimit="10"/>
</g>
<g clip-path="url(#clip5_2394_368)">
<path d="M44.218 654.654C44.218 654.654 49.4194 680.232 83.7486 654.654C83.7486 654.654 101.433 685.207 117.037 660.333C117.037 660.333 140.964 682.79 148.246 654.654" stroke="white" stroke-width="2" stroke-miterlimit="10"/>
</g>
<path d="M573.389 700C573.389 700 585.901 727.599 609.361 700C609.361 700 625.001 741.833 653.153 706.131" stroke="white" stroke-width="2" stroke-miterlimit="10"/>
<g clip-path="url(#clip6_2394_368)">
<path d="M428.585 990.692C428.585 990.692 433.787 1016.27 468.116 990.692C468.116 990.692 485.801 1021.24 501.405 996.37C501.405 996.37 525.331 1018.83 532.613 990.692" stroke="white" stroke-width="2" stroke-miterlimit="10"/>
</g>
<g clip-path="url(#clip7_2394_368)">
<path d="M2.21997 397.089C2.21997 397.089 15.236 424.494 39.641 397.089C39.641 397.089 55.9111 438.627 85.1971 403.177" stroke="white" stroke-width="2" stroke-miterlimit="10"/>
</g>
<g clip-path="url(#clip8_2394_368)">
<path d="M174.386 344.655C174.386 344.655 187.402 372.06 211.807 344.655C211.807 344.655 228.077 386.192 257.363 350.743" stroke="white" stroke-width="2" stroke-miterlimit="10"/>
</g>
<g clip-path="url(#clip9_2394_368)">
<path d="M607.12 550.117C607.12 550.117 620.713 585.832 646.201 550.117C646.201 550.117 663.192 604.25 693.777 558.051" stroke="white" stroke-width="2" stroke-miterlimit="10"/>
</g>
<g clip-path="url(#clip10_2394_368)">
<path d="M350.128 352.047C350.128 352.047 363.876 386.571 389.653 352.047C389.653 352.047 406.838 404.375 437.77 359.716" stroke="white" stroke-width="2" stroke-miterlimit="10"/>
</g>
<g clip-path="url(#clip11_2394_368)">
<path d="M28.7471 988.416C28.7471 988.416 41.7631 1015.82 66.1681 988.416C66.1681 988.416 82.4382 1029.95 111.724 994.504" stroke="white" stroke-width="2" stroke-miterlimit="10"/>
</g>
<g clip-path="url(#clip12_2394_368)">
<path d="M688.815 1011.44C688.815 1011.44 701.831 1038.84 726.237 1011.44C726.237 1011.44 742.507 1052.97 771.793 1017.52" stroke="white" stroke-width="2" stroke-miterlimit="10"/>
</g>
<g clip-path="url(#clip13_2394_368)">
<path d="M1308.29 698.26C1308.29 698.26 1321.3 725.665 1345.71 698.26C1345.71 698.26 1361.98 739.797 1391.27 704.348" stroke="white" stroke-width="2" stroke-miterlimit="10"/>
</g>
<g clip-path="url(#clip14_2394_368)">
<path d="M1078.37 400.557C1078.37 400.557 1091.38 427.962 1115.79 400.557C1115.79 400.557 1132.06 442.095 1161.34 406.645" stroke="white" stroke-width="2" stroke-miterlimit="10"/>
</g>
<g clip-path="url(#clip15_2394_368)">
<path d="M664.562 867.716C664.562 867.716 677.074 895.12 700.534 867.716C700.534 867.716 716.174 909.253 744.326 873.803" stroke="white" stroke-width="2" stroke-miterlimit="10"/>
</g>
<path d="M1.69971 1205.34C1.69971 1205.34 14.7157 1232.74 39.1208 1205.34C39.1208 1205.34 55.3908 1246.88 84.6769 1211.43" stroke="white" stroke-width="2" stroke-miterlimit="10"/>
<g clip-path="url(#clip16_2394_368)">
<path d="M1125.51 602.01C1125.51 602.01 1138.52 629.414 1162.93 602.01C1162.93 602.01 1179.2 643.547 1208.48 608.097" stroke="white" stroke-width="2" stroke-miterlimit="10"/>
</g>
<path d="M766.389 769C766.389 769 771.389 794.759 804.389 769C804.389 769 821.389 799.77 836.389 774.719C836.389 774.719 859.389 797.335 866.389 769" stroke="white" stroke-width="2" stroke-miterlimit="10"/>
<g clip-path="url(#clip17_2394_368)">
<path d="M322.407 114.654C322.407 114.654 327.407 134.654 360.407 114.654C360.407 114.654 377.407 138.544 392.407 119.094C392.407 119.094 415.407 136.654 422.407 114.654" stroke="white" stroke-width="2" stroke-miterlimit="10"/>
</g>
<g clip-path="url(#clip18_2394_368)">
<path d="M2.21973 128.849C2.21973 128.849 15.2358 156.253 39.6408 128.849C39.6408 128.849 55.9108 170.386 85.1969 134.936" stroke="white" stroke-width="2" stroke-miterlimit="10"/>
</g>
<g clip-path="url(#clip19_2394_368)">
<path d="M1027.68 983.885C1027.68 983.885 1032.68 1003.88 1065.68 983.885C1065.68 983.885 1082.68 1007.77 1097.68 988.325C1097.68 988.325 1120.68 1005.88 1127.68 983.885" stroke="white" stroke-width="2" stroke-miterlimit="10"/>
</g>
<g clip-path="url(#clip20_2394_368)">
<path d="M1189.83 909.663C1189.83 909.663 1202.84 937.068 1227.25 909.663C1227.25 909.663 1243.52 951.201 1272.8 915.751" stroke="white" stroke-width="2" stroke-miterlimit="10"/>
</g>
<g clip-path="url(#clip21_2394_368)">
<path d="M270.426 816.867C270.426 816.867 275.627 842.445 309.956 816.867C309.956 816.867 327.641 847.42 343.245 822.545C343.245 822.545 367.172 845.002 374.454 816.867" stroke="white" stroke-width="2" stroke-miterlimit="10"/>
<path d="M270.426 816.867C270.426 816.867 275.627 842.445 309.956 816.867C309.956 816.867 327.641 847.42 343.245 822.545C343.245 822.545 367.172 845.002 374.454 816.867" stroke="white" stroke-width="2" stroke-miterlimit="10"/>
</g>
<defs>
<clipPath id="clip0_2394_368">
<rect width="100.96" height="13.24" fill="white" transform="translate(973.909 132.03)"/>
</clipPath>
<clipPath id="clip1_2394_368">
<rect width="100.96" height="13.24" fill="white" transform="translate(1258.91)"/>
</clipPath>
<clipPath id="clip2_2394_368">
<rect width="100.96" height="13.24" fill="white" transform="translate(476.389 264.533)"/>
</clipPath>
<clipPath id="clip3_2394_368">
<rect width="100.96" height="13.24" fill="white" transform="translate(826.327 251.293)"/>
</clipPath>
<clipPath id="clip4_2394_368">
<rect width="100.96" height="13.24" fill="white" transform="translate(1222.91 522.153)"/>
</clipPath>
<clipPath id="clip5_2394_368">
<rect width="105.026" height="16.9323" fill="white" transform="translate(43.7083 653.797)"/>
</clipPath>
<clipPath id="clip6_2394_368">
<rect width="105.026" height="16.9323" fill="white" transform="translate(428.076 989.835)"/>
</clipPath>
<clipPath id="clip7_2394_368">
<rect width="84.2625" height="23.0198" fill="white" transform="translate(1.52026 395.464)"/>
</clipPath>
<clipPath id="clip8_2394_368">
<rect width="84.2625" height="23.0198" fill="white" transform="translate(173.686 343.03)"/>
</clipPath>
<clipPath id="clip9_2394_368">
<rect width="88" height="30" fill="white" transform="translate(606.389 548)"/>
</clipPath>
<clipPath id="clip10_2394_368">
<rect width="89" height="29" fill="white" transform="translate(349.389 350)"/>
</clipPath>
<clipPath id="clip11_2394_368">
<rect width="84.2625" height="23.0198" fill="white" transform="translate(28.0474 986.791)"/>
</clipPath>
<clipPath id="clip12_2394_368">
<rect width="84.2625" height="23.0198" fill="white" transform="translate(688.116 1009.81)"/>
</clipPath>
<clipPath id="clip13_2394_368">
<rect width="84.2625" height="23.0198" fill="white" transform="translate(1307.59 696.635)"/>
</clipPath>
<clipPath id="clip14_2394_368">
<rect width="84.2625" height="23.0198" fill="white" transform="translate(1077.67 398.932)"/>
</clipPath>
<clipPath id="clip15_2394_368">
<rect width="81" height="23.0198" fill="white" transform="translate(663.889 866.091)"/>
</clipPath>
<clipPath id="clip16_2394_368">
<rect width="84.2625" height="23.0198" fill="white" transform="translate(1124.81 600.385)"/>
</clipPath>
<clipPath id="clip17_2394_368">
<rect width="100.96" height="13.24" fill="white" transform="translate(321.917 113.984)"/>
</clipPath>
<clipPath id="clip18_2394_368">
<rect width="84.2625" height="23.0198" fill="white" transform="translate(1.52002 127.224)"/>
</clipPath>
<clipPath id="clip19_2394_368">
<rect width="100.96" height="13.24" fill="white" transform="translate(1027.19 983.215)"/>
</clipPath>
<clipPath id="clip20_2394_368">
<rect width="84.2625" height="23.0198" fill="white" transform="translate(1189.13 908.039)"/>
</clipPath>
<clipPath id="clip21_2394_368">
<rect width="105.026" height="16.9323" fill="white" transform="translate(294.389 818)"/>
</clipPath>
</defs>
</svg>
