<svg width="54" height="68" viewBox="0 0 54 68" fill="none" xmlns="http://www.w3.org/2000/svg">
<g filter="url(#filter0_d_2397_485)">
<path d="M10.9443 33.2643C13.2206 27.8254 18.532 24.1105 24.4064 23.3093L24.9694 0.388488L25.924 0L48.4913 7.40555C48.6626 8.0854 48.6626 8.76525 48.271 9.39655C47.0961 11.2904 30.55 14.2284 28.0779 16.7535L28.0289 23.3578C34.2215 23.722 39.5329 27.8497 42.1029 33.2885H10.9443V33.2643Z" fill="white"/>
<path d="M45.4317 38.096C47.7814 40.427 47.0471 45.7444 43.5225 46.667H9.50017C4.36011 45.8415 5.14336 37.5376 10.0876 36.8092C20.1474 37.5619 31.9696 35.668 41.7847 36.7606C42.7637 36.8577 44.7708 37.4647 45.4317 38.096Z" fill="white"/>
<path d="M42.0784 50.7463C41.0749 51.7418 35.4698 57.2049 26.5114 57.2049C17.553 57.2049 11.9479 51.7418 10.9443 50.7463H42.0784Z" fill="white"/>
</g>
<defs>
<filter id="filter0_d_2397_485" x="0.671237" y="0" width="53.253" height="67.8764" filterUnits="userSpaceOnUse" color-interpolation-filters="sRGB">
<feFlood flood-opacity="0" result="BackgroundImageFix"/>
<feColorMatrix in="SourceAlpha" type="matrix" values="0 0 0 0 0 0 0 0 0 0 0 0 0 0 0 0 0 0 127 0" result="hardAlpha"/>
<feOffset dy="5.32364"/>
<feGaussianBlur stdDeviation="2.66182"/>
<feComposite in2="hardAlpha" operator="out"/>
<feColorMatrix type="matrix" values="0 0 0 0 0 0 0 0 0 0 0 0 0 0 0 0 0 0 0.25 0"/>
<feBlend mode="normal" in2="BackgroundImageFix" result="effect1_dropShadow_2397_485"/>
<feBlend mode="normal" in="SourceGraphic" in2="effect1_dropShadow_2397_485" result="shape"/>
</filter>
</defs>
</svg>
