<svg width="41" height="54" viewBox="0 0 41 54" fill="none" xmlns="http://www.w3.org/2000/svg" overflow="visible">
  <path d="M4.65039 31.2879C6.79146 26.1722 11.7873 22.678 17.3126 21.9244L17.8422 0.365406L18.74 0L39.9665 6.96556C40.1277 7.60502 40.1277 8.24448 39.7593 8.83827C38.6543 10.6196 23.0912 13.383 20.766 15.7582L20.7199 21.9701C26.5446 22.3126 31.5404 26.1951 33.9577 31.3108H4.65039V31.2879Z" fill="white"/>
  <path d="M37.0888 35.8326C39.299 38.0251 38.6083 43.0266 35.2931 43.8944H3.29215C-1.54252 43.1179 -0.805809 35.3074 3.84469 34.6222C13.3068 35.3302 24.4266 33.5489 33.6585 34.5766C34.5794 34.6679 36.4672 35.2389 37.0888 35.8326Z" fill="white"/>
  <path d="M33.9347 47.7312C32.9908 48.6676 27.7187 53.8061 19.2926 53.8061C10.8664 53.8061 5.5943 48.6676 4.65039 47.7312H33.9347Z" fill="white"/>
</svg>
