<svg width="1392" height="1227" viewBox="0 0 1392 1227" fill="none" xmlns="http://www.w3.org/2000/svg">
<g clip-path="url(#clip0_2397_484)">
<path d="M973.974 132.785C973.974 132.785 978.974 152.785 1011.97 132.785C1011.97 132.785 1028.97 156.675 1043.97 137.225C1043.97 137.225 1066.97 154.785 1073.97 132.785" stroke="white" stroke-width="2" stroke-miterlimit="10"/>
</g>
<g clip-path="url(#clip1_2397_484)">
<path d="M1258.97 0.755066C1258.97 0.755066 1263.97 20.7551 1296.97 0.755066C1296.97 0.755066 1313.97 24.6451 1328.97 5.19507C1328.97 5.19507 1351.97 22.7551 1358.97 0.755066" stroke="white" stroke-width="2" stroke-miterlimit="10"/>
</g>
<g clip-path="url(#clip2_2397_484)">
<path d="M476.453 265.288C476.453 265.288 481.453 285.288 514.453 265.288C514.453 265.288 531.453 289.178 546.453 269.728C546.453 269.728 569.453 287.288 576.453 265.288" stroke="white" stroke-width="2" stroke-miterlimit="10"/>
</g>
<g clip-path="url(#clip3_2397_484)">
<path d="M826.392 252.048C826.392 252.048 831.392 272.048 864.392 252.048C864.392 252.048 881.392 275.938 896.392 256.488C896.392 256.488 919.392 274.048 926.392 252.048" stroke="white" stroke-width="2" stroke-miterlimit="10"/>
</g>
<g clip-path="url(#clip4_2397_484)">
<path d="M1222.97 522.908C1222.97 522.908 1227.97 542.908 1260.97 522.908C1260.97 522.908 1277.97 546.798 1292.97 527.348C1292.97 527.348 1315.97 544.908 1322.97 522.908" stroke="white" stroke-width="2" stroke-miterlimit="10"/>
</g>
<g clip-path="url(#clip5_2397_484)">
<path d="M43.7925 654.739C43.7925 654.739 48.9939 680.317 83.323 654.739C83.323 654.739 101.008 685.291 116.612 660.417C116.612 660.417 140.538 682.874 147.82 654.739" stroke="white" stroke-width="2" stroke-miterlimit="10"/>
</g>
<path d="M572.963 700.085C572.963 700.085 585.475 727.685 608.935 700.085C608.935 700.085 624.575 741.918 652.727 706.216" stroke="white" stroke-width="2" stroke-miterlimit="10"/>
<g clip-path="url(#clip6_2397_484)">
<path d="M428.16 990.777C428.16 990.777 433.361 1016.35 467.69 990.777C467.69 990.777 485.375 1021.33 500.979 996.455C500.979 996.455 524.906 1018.91 532.187 990.777" stroke="white" stroke-width="2" stroke-miterlimit="10"/>
</g>
<g clip-path="url(#clip7_2397_484)">
<path d="M1.79395 397.174C1.79395 397.174 14.81 424.579 39.215 397.174C39.215 397.174 55.4851 438.711 84.7711 403.262" stroke="white" stroke-width="2" stroke-miterlimit="10"/>
</g>
<g clip-path="url(#clip8_2397_484)">
<path d="M173.96 344.74C173.96 344.74 186.976 372.145 211.381 344.74C211.381 344.74 227.651 386.278 256.937 350.828" stroke="white" stroke-width="2" stroke-miterlimit="10"/>
</g>
<g clip-path="url(#clip9_2397_484)">
<path d="M606.693 550.202C606.693 550.202 620.287 585.917 645.774 550.202C645.774 550.202 662.766 604.335 693.351 558.136" stroke="white" stroke-width="2" stroke-miterlimit="10"/>
</g>
<g clip-path="url(#clip10_2397_484)">
<path d="M349.702 352.132C349.702 352.132 363.449 386.656 389.227 352.132C389.227 352.132 406.411 404.46 437.344 359.801" stroke="white" stroke-width="2" stroke-miterlimit="10"/>
</g>
<g clip-path="url(#clip11_2397_484)">
<path d="M28.3213 988.501C28.3213 988.501 41.3373 1015.91 65.7424 988.501C65.7424 988.501 82.0124 1030.04 111.298 994.589" stroke="white" stroke-width="2" stroke-miterlimit="10"/>
</g>
<g clip-path="url(#clip12_2397_484)">
<path d="M688.39 1011.52C688.39 1011.52 701.406 1038.93 725.811 1011.52C725.811 1011.52 742.081 1053.06 771.367 1017.61" stroke="white" stroke-width="2" stroke-miterlimit="10"/>
</g>
<g clip-path="url(#clip13_2397_484)">
<path d="M1307.86 698.345C1307.86 698.345 1320.88 725.75 1345.28 698.345C1345.28 698.345 1361.55 739.883 1390.84 704.433" stroke="white" stroke-width="2" stroke-miterlimit="10"/>
</g>
<g clip-path="url(#clip14_2397_484)">
<path d="M1077.94 400.642C1077.94 400.642 1090.96 428.047 1115.36 400.642C1115.36 400.642 1131.63 442.179 1160.92 406.73" stroke="white" stroke-width="2" stroke-miterlimit="10"/>
</g>
<g clip-path="url(#clip15_2397_484)">
<path d="M664.135 867.801C664.135 867.801 676.647 895.205 700.107 867.801C700.107 867.801 715.748 909.338 743.9 873.888" stroke="white" stroke-width="2" stroke-miterlimit="10"/>
</g>
<path d="M1.27393 1205.42C1.27393 1205.42 14.29 1232.83 38.695 1205.42C38.695 1205.42 54.965 1246.96 84.2511 1211.51" stroke="white" stroke-width="2" stroke-miterlimit="10"/>
<g clip-path="url(#clip16_2397_484)">
<path d="M1125.08 602.095C1125.08 602.095 1138.1 629.499 1162.5 602.095C1162.5 602.095 1178.77 643.632 1208.06 608.182" stroke="white" stroke-width="2" stroke-miterlimit="10"/>
</g>
<path d="M765.963 769.085C765.963 769.085 770.963 794.845 803.963 769.085C803.963 769.085 820.963 799.855 835.963 774.804C835.963 774.804 858.963 797.421 865.963 769.085" stroke="white" stroke-width="2" stroke-miterlimit="10"/>
<g clip-path="url(#clip17_2397_484)">
<path d="M321.982 114.739C321.982 114.739 326.982 134.739 359.982 114.739C359.982 114.739 376.982 138.629 391.982 119.179C391.982 119.179 414.982 136.739 421.982 114.739" stroke="white" stroke-width="2" stroke-miterlimit="10"/>
</g>
<g clip-path="url(#clip18_2397_484)">
<path d="M1.79395 128.934C1.79395 128.934 14.81 156.338 39.215 128.934C39.215 128.934 55.4851 170.471 84.7711 135.021" stroke="white" stroke-width="2" stroke-miterlimit="10"/>
</g>
<g clip-path="url(#clip19_2397_484)">
<path d="M1027.25 983.97C1027.25 983.97 1032.25 1003.97 1065.25 983.97C1065.25 983.97 1082.25 1007.86 1097.25 988.41C1097.25 988.41 1120.25 1005.97 1127.25 983.97" stroke="white" stroke-width="2" stroke-miterlimit="10"/>
</g>
<g clip-path="url(#clip20_2397_484)">
<path d="M1189.4 909.748C1189.4 909.748 1202.42 937.153 1226.82 909.748C1226.82 909.748 1243.09 951.286 1272.38 915.836" stroke="white" stroke-width="2" stroke-miterlimit="10"/>
</g>
<g clip-path="url(#clip21_2397_484)">
<path d="M270 816.952C270 816.952 275.201 842.53 309.53 816.952C309.53 816.952 327.215 847.505 342.819 822.63C342.819 822.63 366.745 845.087 374.027 816.952" stroke="white" stroke-width="2" stroke-miterlimit="10"/>
<path d="M270 816.952C270 816.952 275.201 842.53 309.53 816.952C309.53 816.952 327.215 847.505 342.819 822.63C342.819 822.63 366.745 845.087 374.027 816.952" stroke="white" stroke-width="2" stroke-miterlimit="10"/>
</g>
<path d="M307 567.952C307 567.952 312.201 593.53 346.531 567.952C346.531 567.952 364.215 598.505 379.819 573.63C379.819 573.63 403.746 596.087 411.028 567.952" stroke="white" stroke-width="2" stroke-miterlimit="10"/>
<path d="M307 567.952C307 567.952 312.201 593.53 346.531 567.952C346.531 567.952 364.215 598.505 379.819 573.63C379.819 573.63 403.746 596.087 411.028 567.952" stroke="white" stroke-width="2" stroke-miterlimit="10"/>
<g clip-path="url(#clip22_2397_484)">
<g filter="url(#filter0_d_2397_484)">
<path d="M953.346 567.329C954.712 566.465 956.778 566.017 959.986 566.592C959.932 566.582 959.959 566.584 960.149 566.647C960.311 566.7 960.532 566.778 960.811 566.879C961.366 567.079 962.11 567.359 962.986 567.695C964.736 568.368 966.98 569.257 969.215 570.164C971.45 571.072 973.664 571.994 975.352 572.735C976.199 573.107 976.898 573.424 977.397 573.669C977.562 573.751 977.696 573.821 977.801 573.876C977.841 573.966 977.899 574.119 977.97 574.365C978.111 574.861 978.2 575.314 978.392 576.063C978.734 577.398 979.284 579.152 980.615 580.663V580.664C981.876 582.097 983.71 583.18 985.515 584.109C986.433 584.581 987.407 585.046 988.349 585.5C989.303 585.96 990.237 586.417 991.131 586.902C994.802 588.892 997.149 590.993 997.105 594.37L997.072 596.834L999.39 595.999C1006.06 593.596 1012.14 595.04 1018.14 598.047C1021.15 599.556 1024.1 601.437 1027.06 603.392C1030 605.327 1032.99 607.351 1035.97 609.047C1038.83 610.68 1042.22 612.132 1045.39 613.552C1048.62 614.998 1051.64 616.414 1054.01 618.026V618.027C1055.63 619.137 1059.17 621.622 1062.59 624.084C1066 626.539 1069.16 628.883 1070.26 629.858C1070.28 629.877 1070.31 629.916 1070.35 629.98C1070.46 630.118 1070.6 630.316 1070.77 630.574C1071.12 631.086 1071.58 631.79 1072.12 632.629C1073.19 634.304 1074.54 636.48 1075.88 638.669C1077.21 640.858 1078.53 643.05 1079.53 644.757C1080.03 645.611 1080.45 646.336 1080.75 646.875C1080.9 647.145 1081.02 647.359 1081.09 647.512C1081.13 647.583 1081.15 647.628 1081.16 647.653C1081.49 648.831 1081.57 650.488 1081.46 652.456C1081.34 654.431 1081.03 656.574 1080.68 658.606C1080.32 660.654 1079.94 662.491 1079.67 663.977C1079.53 664.697 1079.42 665.35 1079.36 665.863C1079.33 666.115 1079.31 666.386 1079.31 666.637C1079.31 666.761 1079.32 666.923 1079.35 667.098C1079.38 667.246 1079.45 667.549 1079.65 667.858V667.859C1080.68 669.386 1082.53 669.663 1083.92 669.682C1085.43 669.701 1087.18 669.424 1088.83 669.136C1090.54 668.838 1092.16 668.523 1093.61 668.377C1094.68 668.269 1095.47 668.281 1096.01 668.374C1096.02 668.41 1096.03 668.448 1096.04 668.489C1096.16 668.989 1096.29 669.692 1096.43 670.564C1096.69 672.302 1096.96 674.558 1097.22 676.904C1097.49 679.232 1097.76 681.645 1098.03 683.641C1098.17 684.641 1098.32 685.558 1098.47 686.323C1098.61 687.046 1098.78 687.769 1099.02 688.296L1099.02 688.3C1099.14 688.568 1099.34 688.824 1099.42 688.926C1099.54 689.09 1099.7 689.286 1099.88 689.501C1100.24 689.932 1100.73 690.491 1101.29 691.127C1102.43 692.402 1103.9 694.023 1105.39 695.63C1106.88 697.237 1108.37 698.837 1109.54 700.071C1110.13 700.688 1110.63 701.218 1111.03 701.614C1111.36 701.953 1111.72 702.317 1111.93 702.48L1111.96 702.498C1113.23 703.441 1114.91 704.136 1116.51 704.75C1118.19 705.394 1119.84 705.968 1121.4 706.699C1124.51 708.156 1126.47 709.879 1126.56 712.881V712.885C1126.56 712.867 1126.56 712.987 1126.5 713.321C1126.45 713.617 1126.38 713.997 1126.27 714.439C1126.08 715.322 1125.8 716.402 1125.51 717.461C1125.22 718.523 1124.91 719.54 1124.63 720.303C1124.55 720.571 1124.46 720.791 1124.39 720.965C1124.35 720.969 1124.32 720.978 1124.28 720.982C1123.88 721.031 1123.5 721.043 1122.87 721.094C1121.78 721.181 1120.16 721.368 1118.82 722.4V722.404C1117.01 723.805 1116.7 725.93 1116.54 727.249C1116.45 728.022 1116.41 728.497 1116.31 728.916C1116.28 729.042 1116.26 729.12 1116.23 729.165C1116.08 729.255 1115.8 729.365 1115.33 729.491C1114.75 729.644 1114.16 729.757 1113.32 729.948C1111.77 730.307 1109.81 730.85 1107.93 732.136C1107.21 732.631 1106.14 733.576 1105 734.659C1103.82 735.773 1102.45 737.122 1101.11 738.494C1098.45 741.222 1095.77 744.11 1094.65 745.474C1093.79 746.509 1093.49 747.915 1093.32 748.777C1093.27 749.075 1093.23 749.281 1093.2 749.458C1093.18 749.46 1093.16 749.462 1093.14 749.463C1092.53 749.496 1091.73 749.496 1090.79 749.504C1089.04 749.517 1086.68 749.546 1085.07 750.043C1082.58 750.805 1080.75 752.784 1079.35 754.385C1078.6 755.248 1078 755.991 1077.36 756.649C1076.73 757.302 1076.23 757.71 1075.79 757.92H1075.78C1070.64 760.387 1067.49 760.678 1064.61 760.352C1063.1 760.18 1061.65 759.838 1059.89 759.458C1058.16 759.084 1056.22 758.694 1053.9 758.497C1051.06 758.255 1048.77 758.823 1046.88 759.944C1045.03 761.045 1043.67 762.612 1042.58 764.181C1041.55 765.66 1040.54 767.489 1039.73 768.748C1038.84 770.147 1038.04 771.152 1037.13 771.75L1037.13 771.751C1036.62 772.091 1035.94 772.363 1035.08 772.617C1034.2 772.877 1033.3 773.07 1032.23 773.337C1030.24 773.834 1027.81 774.545 1026.04 776.399C1024.65 777.847 1023.99 779.923 1023.62 781.413C1023.45 782.115 1023.32 782.77 1023.23 783.244C1023.19 783.245 1023.14 783.246 1023.1 783.245C1022.49 783.237 1021.74 783.154 1020.81 783.064C1019.94 782.978 1018.93 782.89 1017.99 782.913C1017.09 782.934 1016 783.06 1015.09 783.588L1015.08 783.591C1014.68 783.824 1014.44 784.16 1014.33 784.307C1014.2 784.498 1014.08 784.708 1013.98 784.894C1013.79 785.248 1013.55 785.741 1013.35 786.134C1012.87 787.068 1012.45 787.769 1012.07 788.1L1012.07 788.1C1009.59 790.247 1007.94 791.753 1006.83 792.967C1005.7 794.217 1005.06 795.237 1004.68 796.423C1004.35 797.454 1004.22 798.675 1004 799.907C1003.76 801.246 1003.37 803.04 1002.47 805.676C1001.68 807.995 998.763 813.15 995.297 817.785C993.579 820.084 991.786 822.173 990.129 823.671C989.301 824.421 988.545 824.99 987.882 825.363C987.204 825.746 986.737 825.861 986.457 825.864H986.453C986.237 825.867 985.996 825.797 985.631 825.415C985.225 824.991 984.821 824.336 984.335 823.427C983.89 822.594 983.351 821.498 982.768 820.541C982.172 819.565 981.419 818.534 980.399 817.764L980.398 817.762L980.163 817.591C978.928 816.714 976.802 815.551 974.387 814.311C971.764 812.964 968.656 811.454 965.65 810.006C962.635 808.553 959.729 807.163 957.48 806.041C956.355 805.48 955.413 804.995 954.714 804.609C954.364 804.416 954.091 804.257 953.893 804.132C953.83 804.092 953.784 804.058 953.749 804.034C953.73 803.985 953.705 803.91 953.675 803.799C953.583 803.465 953.508 803.055 953.401 802.495C953.216 801.53 952.93 800.005 952.119 798.866L952.118 798.864C951.174 797.538 949.767 796.231 948.755 795.174C947.703 794.076 946.97 793.157 946.637 792.267L946.576 792.089C946.184 790.838 946.143 789.122 946.415 786.99C946.683 784.884 947.232 782.533 947.885 780.084C948.211 778.863 948.558 777.633 948.906 776.407C949.25 775.184 949.596 773.962 949.912 772.779C950.54 770.429 951.078 768.135 951.273 766.155L951.274 766.153C951.85 760.278 951.86 752.041 951.1 743.953C950.343 735.907 948.806 727.796 946.177 722.291C945.361 720.577 943.722 718.599 942.411 716.999C941.719 716.156 941.098 715.396 940.613 714.731C940.091 714.016 939.882 713.611 939.838 713.456H939.837C939.395 711.878 939.384 710.051 939.369 707.767C939.355 705.566 939.331 703.028 938.702 700.426L938.7 700.421L938.489 699.609C937.38 695.573 935.498 691.924 933.533 688.511C931.397 684.799 929.24 681.481 927.586 677.989C925.959 674.554 924.929 671.154 925.051 667.493C925.173 663.847 926.443 659.775 929.703 655.011C932.302 651.211 935.923 649.085 939.173 647.705C940.809 647.011 942.295 646.527 943.555 646.086C944.164 645.871 944.756 645.656 945.248 645.432C945.682 645.233 946.293 644.918 946.721 644.407L946.722 644.408C947.031 644.04 947.259 643.542 947.419 643.166C947.603 642.732 947.797 642.207 947.995 641.638C948.387 640.509 948.848 639.054 949.331 637.596C950.337 634.556 951.44 631.505 952.524 629.882L952.523 629.881C953.582 628.299 954.766 627.113 955.955 626.029C957.088 624.996 958.413 623.906 959.416 622.729C960.488 621.473 961.324 619.993 961.58 618.013C961.83 616.083 961.51 613.831 960.578 611.039C958.86 605.892 956.237 603.193 954.269 600.378C952.332 597.609 950.585 594.237 950.019 587.122V587.121C949.596 581.832 949.159 575.972 950.408 571.737C951.017 569.674 951.971 568.2 953.346 567.329ZM1116.32 729.118C1116.32 729.117 1116.32 729.118 1116.32 729.116V729.118Z" fill="#E17F69" stroke="white" stroke-width="4"/>
<path d="M969.517 694.374H975.88C976.717 694.374 977.486 694.467 978.189 694.654C978.891 694.841 979.492 695.107 979.99 695.454C980.497 695.792 980.888 696.201 981.164 696.681C981.448 697.152 981.591 697.676 981.591 698.255C981.591 698.681 981.546 699.068 981.457 699.414C981.369 699.752 981.212 700.068 980.99 700.361C980.768 700.646 980.47 700.916 980.096 701.174C979.732 701.433 979.269 701.695 978.709 701.961V702.015C979.269 702.103 979.776 702.254 980.23 702.468C980.683 702.681 981.071 702.957 981.391 703.295C981.72 703.623 981.969 704.006 982.138 704.442C982.315 704.877 982.404 705.362 982.404 705.895C982.404 706.491 982.271 707.05 982.004 707.574C981.746 708.091 981.377 708.54 980.896 708.922C980.417 709.303 979.834 709.606 979.15 709.828C978.473 710.05 977.717 710.162 976.881 710.162H969.517V694.374ZM972.172 701.481H975.547C976.081 701.481 976.552 701.405 976.961 701.254C977.38 701.103 977.731 700.894 978.015 700.628C978.3 700.361 978.514 700.046 978.655 699.681C978.807 699.316 978.882 698.921 978.882 698.494C978.882 698.032 978.794 697.615 978.616 697.241C978.447 696.858 978.175 696.534 977.801 696.267C977.437 696.001 976.97 695.796 976.401 695.654C975.832 695.503 975.151 695.427 974.36 695.427H972.172V701.481ZM972.172 709.001H975.04C975.814 709.001 976.481 708.93 977.042 708.788C977.61 708.637 978.077 708.428 978.442 708.162C978.816 707.894 979.092 707.58 979.269 707.215C979.448 706.841 979.536 706.428 979.536 705.974C979.536 705.477 979.456 705.014 979.296 704.588C979.136 704.161 978.874 703.792 978.509 703.482C978.153 703.162 977.682 702.912 977.095 702.735C976.517 702.548 975.805 702.454 974.96 702.454H972.172V709.001ZM985.686 691.76C985.873 691.76 986.051 691.792 986.22 691.854C986.397 691.916 986.549 692.005 986.673 692.121C986.798 692.227 986.895 692.356 986.967 692.507C987.047 692.65 987.087 692.805 987.087 692.974C987.087 693.134 987.047 693.29 986.967 693.441C986.895 693.583 986.798 693.712 986.673 693.827C986.549 693.934 986.397 694.023 986.22 694.094C986.051 694.156 985.873 694.187 985.686 694.187C985.499 694.187 985.322 694.156 985.153 694.094C984.984 694.023 984.837 693.934 984.712 693.827C984.587 693.712 984.486 693.583 984.406 693.441C984.334 693.29 984.299 693.134 984.299 692.974C984.299 692.805 984.334 692.65 984.406 692.507C984.486 692.356 984.587 692.227 984.712 692.121C984.837 692.005 984.984 691.916 985.153 691.854C985.322 691.792 985.499 691.76 985.686 691.76ZM984.512 698.428L986.206 697.734H986.913V710.162H984.512V698.428ZM1001.95 698.628V699.628H999.641C999.881 699.966 1000.07 700.343 1000.21 700.761C1000.36 701.17 1000.43 701.574 1000.43 701.975C1000.43 702.606 1000.29 703.184 1000.01 703.708C999.738 704.223 999.347 704.668 998.84 705.042C998.342 705.415 997.746 705.704 997.052 705.908C996.359 706.113 995.598 706.215 994.771 706.215C994.468 706.215 994.158 706.188 993.837 706.135C993.517 706.081 993.242 706.02 993.01 705.948C992.779 706.135 992.583 706.352 992.423 706.602C992.263 706.85 992.183 707.103 992.183 707.361C992.183 707.602 992.316 707.797 992.583 707.948C992.85 708.099 993.224 708.184 993.703 708.202L998.226 708.389C998.947 708.424 999.543 708.512 1000.01 708.655C1000.49 708.788 1000.88 708.971 1001.16 709.202C1001.46 709.433 1001.66 709.708 1001.78 710.028C1001.89 710.348 1001.95 710.708 1001.95 711.108C1001.95 711.819 1001.78 712.459 1001.46 713.028C1001.13 713.606 1000.65 714.099 1000.03 714.508C999.405 714.918 998.644 715.228 997.746 715.442C996.856 715.665 995.852 715.775 994.731 715.775C992.712 715.775 991.204 715.548 990.209 715.095C989.221 714.642 988.727 714.042 988.727 713.295C988.727 712.958 988.812 712.633 988.981 712.322C989.15 712.01 989.364 711.712 989.621 711.428C989.879 711.144 990.169 710.873 990.489 710.615C990.809 710.357 991.125 710.108 991.436 709.868C990.982 709.726 990.604 709.53 990.302 709.281C990 709.023 989.849 708.726 989.849 708.389C989.849 708.139 989.911 707.886 990.035 707.628C990.169 707.361 990.346 707.108 990.569 706.868C990.791 706.628 991.053 706.41 991.355 706.215C991.659 706.01 991.979 705.845 992.316 705.722C991.49 705.374 990.844 704.891 990.382 704.268C989.919 703.645 989.688 702.93 989.688 702.121C989.688 701.516 989.826 700.948 990.102 700.415C990.378 699.881 990.755 699.419 991.236 699.028C991.716 698.628 992.281 698.312 992.93 698.081C993.588 697.85 994.295 697.734 995.052 697.734C995.407 697.734 995.763 697.761 996.119 697.814C996.474 697.859 996.804 697.921 997.106 698.001C997.417 698.081 997.688 698.179 997.919 698.294C998.159 698.401 998.346 698.512 998.48 698.628H1001.95ZM992.183 710.055C991.818 710.321 991.538 710.646 991.343 711.028C991.156 711.42 991.063 711.784 991.063 712.122C991.063 712.397 991.156 712.66 991.343 712.908C991.538 713.157 991.828 713.375 992.209 713.562C992.592 713.757 993.072 713.908 993.65 714.015C994.228 714.131 994.9 714.188 995.665 714.188C996.474 714.188 997.199 714.122 997.839 713.988C998.48 713.864 999.023 713.695 999.467 713.482C999.911 713.278 1000.25 713.042 1000.48 712.775C1000.72 712.517 1000.84 712.255 1000.84 711.988C1000.84 711.446 1000.57 711.05 1000.03 710.802C999.484 710.553 998.747 710.428 997.813 710.428C997.225 710.428 996.634 710.415 996.039 710.388C995.443 710.362 994.887 710.326 994.371 710.281C993.864 710.246 993.415 710.206 993.024 710.162C992.632 710.126 992.352 710.09 992.183 710.055ZM995.198 705.588C995.545 705.588 995.874 705.513 996.185 705.362C996.506 705.201 996.786 704.988 997.026 704.722C997.265 704.446 997.457 704.126 997.599 703.761C997.742 703.397 997.813 703.005 997.813 702.588C997.813 701.992 997.732 701.441 997.573 700.934C997.412 700.419 997.19 699.974 996.905 699.601C996.63 699.219 996.305 698.921 995.932 698.708C995.567 698.494 995.175 698.388 994.758 698.388C994.349 698.388 993.993 698.472 993.691 698.641C993.397 698.81 993.153 699.041 992.956 699.334C992.77 699.628 992.628 699.974 992.529 700.374C992.441 700.775 992.396 701.206 992.396 701.668C992.396 702.219 992.463 702.735 992.597 703.214C992.73 703.686 992.921 704.099 993.17 704.454C993.419 704.81 993.713 705.09 994.051 705.295C994.398 705.49 994.78 705.588 995.198 705.588ZM1011.59 694.374H1014.25V710.162H1011.59V694.374ZM1021.53 709.588C1021.86 709.588 1022.16 709.54 1022.44 709.442C1022.72 709.335 1022.96 709.197 1023.16 709.029C1023.36 708.86 1023.52 708.668 1023.64 708.455C1023.76 708.242 1023.81 708.019 1023.81 707.788C1023.81 707.415 1023.72 707.091 1023.53 706.815C1023.35 706.539 1023.1 706.29 1022.79 706.068C1022.48 705.845 1022.14 705.646 1021.75 705.468C1021.35 705.281 1020.95 705.094 1020.55 704.908C1020.14 704.712 1019.75 704.503 1019.36 704.281C1018.97 704.059 1018.62 703.802 1018.3 703.508C1018 703.214 1017.76 702.877 1017.57 702.494C1017.38 702.112 1017.29 701.659 1017.29 701.135C1017.29 700.646 1017.39 700.192 1017.6 699.774C1017.81 699.356 1018.1 698.996 1018.46 698.694C1018.84 698.392 1019.28 698.156 1019.78 697.988C1020.29 697.819 1020.85 697.734 1021.45 697.734C1021.85 697.734 1022.23 697.766 1022.59 697.828C1022.94 697.881 1023.28 697.988 1023.61 698.148C1023.95 698.308 1024.29 698.539 1024.63 698.841C1024.97 699.134 1025.32 699.521 1025.68 700.001L1024.8 700.787C1024.34 700.032 1023.82 699.472 1023.24 699.108C1022.67 698.734 1022.06 698.547 1021.41 698.547C1021.06 698.547 1020.75 698.592 1020.46 698.681C1020.18 698.761 1019.94 698.877 1019.73 699.028C1019.53 699.169 1019.37 699.338 1019.25 699.535C1019.14 699.73 1019.09 699.939 1019.09 700.161C1019.09 700.525 1019.19 700.845 1019.4 701.121C1019.6 701.387 1019.87 701.632 1020.2 701.854C1020.54 702.077 1020.91 702.281 1021.33 702.468C1021.76 702.645 1022.19 702.832 1022.64 703.028C1023.08 703.214 1023.52 703.419 1023.93 703.641C1024.36 703.863 1024.74 704.122 1025.07 704.414C1025.41 704.699 1025.68 705.032 1025.88 705.415C1026.09 705.797 1026.19 706.241 1026.19 706.748C1026.19 707.264 1026.09 707.749 1025.89 708.202C1025.71 708.646 1025.42 709.033 1025.03 709.361C1024.64 709.691 1024.16 709.953 1023.57 710.148C1023 710.335 1022.31 710.428 1021.53 710.428C1021.18 710.428 1020.81 710.397 1020.44 710.335C1020.06 710.281 1019.69 710.175 1019.3 710.015C1018.92 709.855 1018.54 709.629 1018.16 709.335C1017.77 709.033 1017.4 708.641 1017.04 708.162L1018.02 707.268C1018.32 707.686 1018.6 708.041 1018.86 708.335C1019.14 708.628 1019.42 708.868 1019.69 709.055C1019.98 709.242 1020.26 709.379 1020.56 709.468C1020.86 709.548 1021.19 709.588 1021.53 709.588ZM1031.16 710.162H1028.75V692.441L1030.47 691.76H1031.16V710.162ZM1043.1 710.162H1040.68V708.495C1040.39 708.717 1040.11 708.944 1039.84 709.175C1039.56 709.397 1039.26 709.601 1038.94 709.788C1038.62 709.975 1038.27 710.126 1037.87 710.241C1037.48 710.366 1037.03 710.428 1036.51 710.428C1036.03 710.428 1035.6 710.348 1035.21 710.188C1034.82 710.037 1034.5 709.828 1034.23 709.562C1033.97 709.286 1033.76 708.961 1033.61 708.588C1033.46 708.214 1033.39 707.815 1033.39 707.388C1033.39 706.864 1033.49 706.392 1033.7 705.974C1033.91 705.557 1034.2 705.183 1034.55 704.855C1034.92 704.517 1035.34 704.219 1035.81 703.961C1036.29 703.703 1036.8 703.472 1037.34 703.268C1037.88 703.063 1038.44 702.886 1039.01 702.735C1039.58 702.574 1040.13 702.423 1040.68 702.281V701.521C1040.68 700.97 1040.62 700.508 1040.5 700.135C1040.4 699.752 1040.24 699.445 1040.04 699.215C1039.83 698.974 1039.58 698.805 1039.29 698.708C1039 698.601 1038.68 698.547 1038.31 698.547C1037.91 698.547 1037.57 698.601 1037.31 698.708C1037.06 698.814 1036.85 698.956 1036.7 699.134C1036.56 699.303 1036.46 699.499 1036.41 699.721C1036.35 699.934 1036.33 700.157 1036.33 700.388C1036.33 700.601 1036.31 700.805 1036.27 701.001C1036.24 701.196 1036.18 701.37 1036.09 701.521C1036 701.672 1035.87 701.792 1035.71 701.881C1035.56 701.97 1035.37 702.015 1035.13 702.015C1034.75 702.015 1034.45 701.882 1034.21 701.614C1033.97 701.339 1033.86 700.997 1033.86 700.588C1033.86 700.188 1033.99 699.815 1034.25 699.467C1034.51 699.112 1034.87 698.81 1035.31 698.561C1035.77 698.303 1036.29 698.103 1036.89 697.961C1037.48 697.81 1038.11 697.734 1038.77 697.734C1039.57 697.734 1040.24 697.814 1040.8 697.974C1041.35 698.126 1041.79 698.343 1042.13 698.628C1042.48 698.903 1042.73 699.241 1042.88 699.641C1043.03 700.041 1043.1 700.485 1043.1 700.974V710.162ZM1040.68 703.068C1040.15 703.228 1039.6 703.432 1039.03 703.681C1038.47 703.921 1037.94 704.197 1037.46 704.508C1036.98 704.819 1036.58 705.166 1036.27 705.548C1035.96 705.921 1035.81 706.322 1035.81 706.748C1035.81 707.041 1035.86 707.322 1035.97 707.588C1036.08 707.855 1036.23 708.091 1036.41 708.295C1036.59 708.49 1036.8 708.651 1037.03 708.775C1037.27 708.89 1037.52 708.948 1037.78 708.948C1038.06 708.948 1038.31 708.913 1038.55 708.842C1038.8 708.77 1039.04 708.677 1039.27 708.562C1039.51 708.437 1039.74 708.295 1039.97 708.135C1040.2 707.966 1040.44 707.793 1040.68 707.615V703.068ZM1046.35 697.988H1048.76V700.214C1049.5 699.379 1050.26 698.756 1051.05 698.348C1051.85 697.939 1052.66 697.734 1053.48 697.734C1053.91 697.734 1054.31 697.832 1054.67 698.028C1055.04 698.223 1055.37 698.49 1055.64 698.827C1055.93 699.157 1056.15 699.548 1056.31 700.001C1056.47 700.445 1056.55 700.921 1056.55 701.428V710.162H1054.12V701.828C1054.12 701.019 1053.94 700.41 1053.58 700.001C1053.22 699.592 1052.76 699.388 1052.19 699.388C1051.93 699.388 1051.66 699.432 1051.37 699.521C1051.09 699.601 1050.8 699.716 1050.49 699.868C1050.2 700.019 1049.91 700.201 1049.61 700.415C1049.32 700.628 1049.04 700.868 1048.76 701.135V710.162H1046.35V697.988ZM1067.96 708.975C1067.68 709.197 1067.38 709.397 1067.05 709.575C1066.72 709.753 1066.38 709.908 1066.04 710.042C1065.69 710.166 1065.33 710.259 1064.97 710.321C1064.61 710.393 1064.27 710.428 1063.93 710.428C1063.21 710.428 1062.54 710.263 1061.91 709.935C1061.29 709.597 1060.74 709.148 1060.27 708.588C1059.81 708.019 1059.45 707.361 1059.18 706.614C1058.91 705.859 1058.78 705.064 1058.78 704.228C1058.78 703.401 1058.95 702.601 1059.29 701.828C1059.62 701.045 1060.08 700.352 1060.66 699.748C1061.24 699.134 1061.91 698.645 1062.69 698.281C1063.46 697.917 1064.29 697.734 1065.17 697.734C1065.76 697.734 1066.29 697.841 1066.73 698.054C1067.18 698.259 1067.58 698.529 1067.96 698.867V692.441L1069.65 691.76H1070.36V710.428H1067.96V708.975ZM1067.96 701.854C1067.96 701.375 1067.87 700.939 1067.69 700.548C1067.51 700.147 1067.28 699.809 1066.98 699.535C1066.7 699.25 1066.37 699.032 1066.01 698.881C1065.65 698.721 1065.29 698.641 1064.92 698.641C1064.44 698.641 1063.98 698.761 1063.55 699.001C1063.14 699.241 1062.77 699.579 1062.46 700.014C1062.15 700.45 1061.9 700.97 1061.71 701.574C1061.54 702.17 1061.45 702.828 1061.45 703.548C1061.45 704.321 1061.55 705.046 1061.74 705.722C1061.95 706.397 1062.22 706.988 1062.57 707.495C1062.91 707.993 1063.32 708.389 1063.78 708.681C1064.25 708.966 1064.76 709.108 1065.29 709.108C1065.54 709.108 1065.79 709.077 1066.04 709.015C1066.29 708.944 1066.54 708.85 1066.77 708.735C1067 708.619 1067.22 708.486 1067.42 708.335C1067.63 708.184 1067.81 708.023 1067.96 707.855V701.854Z" fill="white"/>
</g>
<g filter="url(#filter1_d_2397_484)">
<path d="M847.215 418.631C853.073 415.364 856.255 415.324 858.677 416.554C859.982 417.216 861.228 418.323 862.608 419.895C863.996 421.477 865.406 423.393 867.12 425.633L867.12 425.634C871.564 431.443 875.74 439.014 878.776 445.99L875.461 446.371L880.377 448.827L880.41 448.843L884.302 450.788L883.436 448.677C891.518 447.274 898.36 443.431 904.967 440.584C912.04 437.535 919.157 435.429 928.241 437.618C929.406 439.905 930.887 441.633 932.405 443.169C934.143 444.928 935.702 446.242 937.249 448.037L937.252 448.041C937.336 448.137 937.454 448.33 937.59 448.697C937.727 449.064 937.84 449.478 937.985 449.994C938.12 450.475 938.283 451.052 938.505 451.592C938.727 452.131 939.048 452.743 939.559 453.254C940.449 454.142 941.715 454.7 942.911 455.093C944.145 455.499 945.529 455.799 946.815 456.057C948.144 456.325 949.339 456.542 950.353 456.796C951.443 457.068 951.944 457.3 952.088 457.421C952.205 457.518 952.404 457.793 952.598 458.416C952.783 459.011 952.906 459.735 953.011 460.53C953.107 461.256 953.199 462.154 953.314 462.821C953.373 463.17 953.453 463.549 953.573 463.897C953.68 464.2 953.895 464.717 954.365 465.102C954.675 465.357 955.044 465.484 955.197 465.537C955.417 465.612 955.674 465.684 955.937 465.751C956.468 465.886 957.164 466.038 957.949 466.208C959.541 466.554 961.604 467 963.839 467.609C968.237 468.809 973.021 470.574 976.086 473.227L976.376 473.486C979.935 476.752 981.778 479.906 982.48 482.878C983.18 485.842 982.782 488.789 981.571 491.716C979.112 497.659 973.395 503.298 967.377 508.169C960.122 514.04 956.344 515.533 952.577 515.986C950.588 516.225 948.594 516.18 945.911 516.217C943.269 516.254 940.126 516.375 936.07 516.975H936.069C932.519 517.501 928.865 518.808 925.21 520.335C923.376 521.101 921.515 521.934 919.653 522.762C917.784 523.595 915.91 524.425 914.02 525.203C906.766 528.187 899.584 530.245 892.494 528.541C892.013 525.49 890.702 522.762 889.463 520.273C888.024 517.382 886.696 514.83 886.233 512.055C886.018 510.756 885.889 507.955 885.702 504.257C885.518 500.634 885.281 496.286 884.833 492.088C884.388 487.912 883.724 483.775 882.654 480.608C882.12 479.029 881.451 477.584 880.58 476.485C879.697 475.37 878.504 474.492 876.965 474.368L876.254 474.31L875.728 474.793C872.469 477.786 868.186 478.378 863.604 477.491C859.005 476.601 854.319 474.249 850.636 471.687L850.635 471.686L850.283 471.436C842.918 466.107 837.595 455.499 836.428 444.784C835.244 433.902 838.386 423.556 847.215 418.631Z" fill="#E17F69" stroke="white" stroke-width="3.82521"/>
<path d="M901.745 476.983H904.453L910.603 489.104H910.724L916.754 476.983H919.422V492.771H916.754V479.836H916.66L910.19 492.771H909.643L903.093 479.93H902.906V492.771H901.745V476.983ZM931.815 492.771H929.387V491.103C929.102 491.326 928.822 491.553 928.547 491.784C928.271 492.006 927.973 492.21 927.653 492.397C927.333 492.584 926.977 492.735 926.585 492.85C926.194 492.975 925.741 493.037 925.224 493.037C924.745 493.037 924.309 492.957 923.917 492.797C923.535 492.646 923.21 492.437 922.944 492.17C922.677 491.895 922.468 491.57 922.316 491.197C922.175 490.823 922.103 490.424 922.103 489.997C922.103 489.473 922.205 489.002 922.41 488.583C922.624 488.166 922.908 487.792 923.264 487.464C923.629 487.126 924.046 486.828 924.518 486.57C924.998 486.312 925.51 486.081 926.052 485.876C926.595 485.672 927.151 485.495 927.719 485.343C928.289 485.183 928.845 485.032 929.387 484.89V484.13C929.387 483.579 929.33 483.117 929.213 482.744C929.107 482.361 928.951 482.054 928.746 481.823C928.542 481.583 928.293 481.414 927.999 481.317C927.715 481.21 927.391 481.156 927.026 481.156C926.617 481.156 926.283 481.21 926.025 481.317C925.768 481.423 925.563 481.565 925.411 481.743C925.27 481.912 925.172 482.108 925.118 482.33C925.065 482.543 925.038 482.766 925.038 482.996C925.038 483.21 925.02 483.414 924.985 483.61C924.95 483.805 924.887 483.979 924.798 484.13C924.709 484.281 924.584 484.401 924.424 484.49C924.273 484.579 924.078 484.624 923.837 484.624C923.464 484.624 923.157 484.49 922.917 484.223C922.685 483.948 922.57 483.606 922.57 483.197C922.57 482.797 922.699 482.424 922.957 482.076C923.224 481.721 923.579 481.419 924.024 481.17C924.477 480.912 925.003 480.712 925.598 480.57C926.194 480.419 926.821 480.343 927.479 480.343C928.28 480.343 928.956 480.423 929.507 480.583C930.059 480.734 930.503 480.952 930.842 481.237C931.188 481.512 931.437 481.85 931.589 482.25C931.74 482.65 931.815 483.094 931.815 483.583V492.771ZM929.387 485.677C928.863 485.837 928.315 486.041 927.747 486.29C927.177 486.53 926.652 486.806 926.172 487.117C925.692 487.428 925.296 487.774 924.985 488.157C924.674 488.53 924.518 488.931 924.518 489.357C924.518 489.65 924.571 489.93 924.678 490.197C924.793 490.463 924.94 490.7 925.118 490.904C925.305 491.099 925.514 491.26 925.745 491.384C925.985 491.499 926.235 491.557 926.492 491.557C926.768 491.557 927.026 491.522 927.266 491.451C927.515 491.379 927.755 491.286 927.987 491.171C928.218 491.046 928.448 490.904 928.68 490.744C928.911 490.575 929.147 490.402 929.387 490.224V485.677ZM937.471 480.597V489.263C937.471 489.566 937.543 489.851 937.685 490.117C937.827 490.375 938.019 490.606 938.259 490.811C938.498 491.006 938.779 491.161 939.099 491.277C939.428 491.393 939.779 491.451 940.153 491.451C940.393 491.451 940.651 491.401 940.927 491.304C941.202 491.197 941.469 491.055 941.727 490.877C941.985 490.7 942.23 490.491 942.461 490.25C942.692 490.01 942.884 489.757 943.035 489.49V480.597H945.449V492.771H943.035V490.491C942.821 490.837 942.554 491.166 942.234 491.477C941.914 491.789 941.563 492.059 941.18 492.29C940.806 492.522 940.419 492.703 940.02 492.837C939.628 492.971 939.255 493.037 938.899 493.037C938.365 493.037 937.863 492.94 937.391 492.744C936.929 492.54 936.524 492.268 936.178 491.93C935.83 491.584 935.555 491.184 935.351 490.73C935.155 490.268 935.057 489.779 935.057 489.263V480.597H937.471ZM949.585 474.369C949.771 474.369 949.95 474.401 950.119 474.462C950.296 474.525 950.447 474.614 950.572 474.73C950.697 474.836 950.794 474.965 950.866 475.116C950.945 475.259 950.985 475.414 950.985 475.583C950.985 475.742 950.945 475.899 950.866 476.05C950.794 476.192 950.697 476.321 950.572 476.436C950.447 476.543 950.296 476.632 950.119 476.703C949.95 476.765 949.771 476.796 949.585 476.796C949.398 476.796 949.22 476.765 949.051 476.703C948.882 476.632 948.735 476.543 948.611 476.436C948.486 476.321 948.384 476.192 948.304 476.05C948.233 475.899 948.198 475.742 948.198 475.583C948.198 475.414 948.233 475.259 948.304 475.116C948.384 474.965 948.486 474.836 948.611 474.73C948.735 474.614 948.882 474.525 949.051 474.462C949.22 474.401 949.398 474.369 949.585 474.369ZM948.411 481.037L950.105 480.343H950.812V492.771H948.411V481.037Z" fill="white"/>
</g>
<g filter="url(#filter2_d_2397_484)">
<path d="M606.141 282.669C614.27 286.087 619.124 292.739 623.888 300.467C624.837 302.017 628.422 308.245 631.834 314.296C633.537 317.318 635.189 320.282 636.437 322.578C637.062 323.728 637.581 324.701 637.953 325.427C638.139 325.792 638.284 326.083 638.384 326.298C638.454 326.446 638.483 326.522 638.493 326.544C639.039 328.686 638.959 331.592 638.897 334.791C638.867 336.34 638.845 337.936 638.939 339.413C639.031 340.875 639.242 342.344 639.737 343.607L639.739 343.611C640.167 344.693 640.861 345.591 641.547 346.348C642.19 347.059 643.032 347.856 643.619 348.459C644.942 349.821 645.729 350.942 645.752 352.376L645.795 355.083L647.982 353.99C648.901 353.859 649.664 353.482 650.229 352.802C650.74 352.19 650.993 351.388 651.112 351.078C651.272 350.659 651.39 350.427 651.576 350.234C651.75 350.052 652.099 349.785 652.896 349.569C655.941 348.745 658.893 348.765 662.094 348.844C661.697 349.984 661.492 351.047 661.46 352.056C661.404 353.773 661.849 355.198 662.47 356.448C663.058 357.631 663.87 358.766 664.492 359.722C665.152 360.735 665.706 361.695 666.053 362.793C666.477 364.137 666.531 365.543 666.661 367.363C666.777 369.001 666.958 370.875 667.687 372.839L667.839 373.232C668.897 375.834 671.472 378.669 674.282 380.855C676.446 382.537 678.988 384.02 681.415 384.703C678.788 392.188 673.815 397.8 666.095 398.737L665.465 395.075L665.228 393.696L663.83 393.66C660.065 393.562 656.685 395.281 653.827 396.606C650.805 398.007 648.276 399.027 645.577 398.588C642.793 398.135 640.449 396.49 638.038 394.398C637.441 393.88 636.854 393.347 636.255 392.806C635.662 392.269 635.057 391.721 634.447 391.196C633.232 390.151 631.935 389.136 630.525 388.374L630.524 388.373C620.22 382.814 611.337 384.386 603.393 386.732C599.355 387.924 595.795 389.232 592.141 390.07C588.839 390.828 585.701 391.132 582.575 390.533C580.214 385.543 578.242 380.44 575.998 375.242C573.664 369.838 571.078 364.442 567.586 359.431L567.301 359.035C565.808 357.045 563.401 354.838 561.358 352.94C560.231 351.893 559.196 350.925 558.369 350.063C557.609 349.271 557.154 348.698 556.946 348.33L556.872 348.185C556.087 346.42 555.99 344.388 556.03 341.969C556.069 339.664 556.244 336.923 555.714 334.329L555.61 333.878C555.031 331.613 553.594 329.234 552.229 327.102C550.688 324.694 549.192 322.529 548.328 320.577C547.442 318.575 547.565 317.575 548.096 316.959C548.427 316.575 549.083 316.113 550.359 315.718C551.629 315.324 553.402 315.033 555.82 314.908L555.822 314.907C557.698 314.808 559.609 315.172 561.862 315.595C564.051 316.005 566.516 316.458 569.177 316.336H569.178C580.162 315.826 585.582 308.003 590.203 300.407C592.566 296.521 594.709 292.707 597.33 289.461C599.787 286.417 602.569 284.003 606.141 282.669Z" fill="#E17F69" stroke="white" stroke-width="3.99273"/>
<path d="M581.807 350.781C580.99 350.781 580.207 350.678 579.46 350.474C578.712 350.279 578.014 349.999 577.365 349.634C576.725 349.269 576.137 348.834 575.604 348.327C575.08 347.82 574.63 347.256 574.257 346.634C573.892 346.012 573.608 345.345 573.403 344.634C573.199 343.923 573.096 343.185 573.096 342.42C573.096 341.665 573.199 340.94 573.403 340.247C573.608 339.554 573.892 338.905 574.257 338.3C574.63 337.696 575.08 337.144 575.604 336.647C576.137 336.149 576.725 335.727 577.365 335.38C578.014 335.025 578.712 334.749 579.46 334.554C580.207 334.357 580.99 334.26 581.807 334.26C583.034 334.26 584.178 334.473 585.236 334.9C586.294 335.327 587.21 335.909 587.984 336.647C588.767 337.384 589.381 338.251 589.825 339.247C590.279 340.234 590.505 341.291 590.505 342.42C590.505 343.185 590.403 343.923 590.199 344.634C589.994 345.345 589.705 346.012 589.331 346.634C588.967 347.256 588.523 347.82 587.997 348.327C587.472 348.834 586.886 349.269 586.236 349.634C585.596 349.999 584.902 350.279 584.155 350.474C583.408 350.678 582.625 350.781 581.807 350.781ZM581.807 349.994C582.706 349.994 583.501 349.808 584.196 349.434C584.889 349.052 585.472 348.523 585.943 347.848C586.423 347.172 586.783 346.372 587.023 345.447C587.273 344.523 587.397 343.514 587.397 342.42C587.397 341.335 587.273 340.345 587.023 339.447C586.783 338.54 586.423 337.762 585.943 337.114C585.472 336.456 584.889 335.945 584.196 335.58C583.501 335.216 582.706 335.033 581.807 335.033C580.883 335.033 580.068 335.216 579.366 335.58C578.672 335.945 578.09 336.456 577.619 337.114C577.147 337.762 576.791 338.54 576.552 339.447C576.32 340.345 576.204 341.335 576.204 342.42C576.204 343.514 576.32 344.523 576.552 345.447C576.791 346.372 577.147 347.172 577.619 347.848C578.09 348.523 578.672 349.052 579.366 349.434C580.068 349.808 580.883 349.994 581.807 349.994ZM602.218 350.408H599.79V348.741C599.506 348.963 599.226 349.19 598.95 349.42C598.674 349.643 598.376 349.847 598.056 350.034C597.736 350.221 597.381 350.372 596.989 350.487C596.598 350.612 596.144 350.674 595.628 350.674C595.148 350.674 594.713 350.594 594.321 350.434C593.938 350.283 593.614 350.074 593.347 349.808C593.08 349.532 592.871 349.207 592.72 348.834C592.578 348.46 592.506 348.061 592.506 347.634C592.506 347.109 592.609 346.638 592.814 346.22C593.027 345.803 593.312 345.429 593.668 345.101C594.032 344.763 594.45 344.465 594.921 344.207C595.402 343.949 595.913 343.718 596.455 343.514C596.998 343.309 597.554 343.132 598.123 342.981C598.692 342.82 599.248 342.669 599.79 342.527V341.767C599.79 341.216 599.733 340.753 599.617 340.38C599.51 339.998 599.355 339.691 599.15 339.461C598.946 339.22 598.696 339.051 598.403 338.954C598.118 338.847 597.794 338.793 597.429 338.793C597.02 338.793 596.687 338.847 596.429 338.954C596.171 339.06 595.966 339.202 595.815 339.38C595.673 339.549 595.575 339.745 595.521 339.967C595.468 340.18 595.442 340.403 595.442 340.634C595.442 340.847 595.424 341.051 595.388 341.247C595.353 341.442 595.291 341.616 595.201 341.767C595.112 341.918 594.988 342.038 594.828 342.127C594.677 342.216 594.481 342.26 594.24 342.26C593.867 342.26 593.561 342.127 593.32 341.86C593.089 341.585 592.973 341.242 592.973 340.834C592.973 340.433 593.102 340.06 593.36 339.713C593.627 339.358 593.983 339.056 594.427 338.807C594.881 338.549 595.406 338.349 596.002 338.207C596.598 338.056 597.224 337.98 597.883 337.98C598.684 337.98 599.359 338.06 599.911 338.22C600.462 338.372 600.907 338.589 601.245 338.873C601.592 339.149 601.84 339.487 601.992 339.887C602.143 340.287 602.218 340.731 602.218 341.22V350.408ZM599.79 343.314C599.266 343.474 598.719 343.678 598.15 343.927C597.58 344.167 597.055 344.443 596.576 344.754C596.095 345.065 595.7 345.412 595.388 345.793C595.077 346.167 594.921 346.568 594.921 346.994C594.921 347.287 594.975 347.568 595.081 347.834C595.197 348.101 595.344 348.337 595.521 348.541C595.708 348.736 595.917 348.896 596.149 349.021C596.389 349.136 596.638 349.194 596.896 349.194C597.172 349.194 597.429 349.158 597.669 349.088C597.919 349.016 598.159 348.923 598.39 348.808C598.621 348.683 598.852 348.541 599.083 348.381C599.315 348.212 599.55 348.039 599.79 347.86V343.314ZM607.875 340.46C608.604 339.624 609.365 339.002 610.156 338.594C610.957 338.185 611.771 337.98 612.597 337.98C613.024 337.98 613.42 338.078 613.785 338.273C614.159 338.469 614.483 338.736 614.759 339.073C615.035 339.403 615.252 339.793 615.412 340.247C615.573 340.691 615.653 341.167 615.653 341.673V350.408H613.237V342.074C613.237 341.265 613.056 340.656 612.691 340.247C612.335 339.838 611.868 339.634 611.29 339.634C611.032 339.634 610.761 339.678 610.476 339.767C610.192 339.847 609.902 339.962 609.609 340.113C609.316 340.264 609.022 340.447 608.729 340.66C608.435 340.874 608.15 341.114 607.875 341.381V350.408H605.46V332.686L607.181 332.006H607.875V340.46ZM620.922 338.233V346.9C620.922 347.202 620.993 347.487 621.135 347.754C621.278 348.011 621.469 348.243 621.709 348.448C621.95 348.643 622.23 348.798 622.55 348.914C622.878 349.03 623.23 349.088 623.603 349.088C623.843 349.088 624.101 349.039 624.377 348.941C624.653 348.834 624.92 348.692 625.178 348.514C625.436 348.337 625.68 348.127 625.911 347.888C626.143 347.647 626.334 347.394 626.485 347.127V338.233H628.899V350.408H626.485V348.127C626.271 348.474 626.005 348.803 625.685 349.114C625.365 349.425 625.013 349.696 624.63 349.927C624.257 350.159 623.871 350.341 623.47 350.474C623.078 350.607 622.705 350.674 622.349 350.674C621.815 350.674 621.313 350.577 620.842 350.38C620.379 350.176 619.975 349.905 619.628 349.567C619.281 349.221 619.006 348.82 618.801 348.367C618.605 347.905 618.507 347.416 618.507 346.9V338.233H620.922Z" fill="white"/>
</g>
<g filter="url(#filter3_d_2397_484)">
<path d="M389.495 199.074C392.791 198.659 398.33 198.715 403.638 199.463C406.284 199.836 408.823 200.374 410.962 201.089C413.134 201.814 414.741 202.671 415.674 203.593C418.474 206.369 420.804 211.002 422.342 216.112C423.873 221.2 424.549 226.531 424.214 230.557C423.941 233.792 422.783 236.42 421.477 238.98C420.216 241.453 418.674 244.085 418.1 246.936C417.499 249.903 417.604 252.816 417.649 255.518C417.696 258.274 417.686 260.872 416.999 263.548C416.671 264.824 415.591 266.727 413.871 268.991C412.187 271.208 410.008 273.619 407.67 275.886C405.33 278.153 402.859 280.248 400.6 281.845C398.29 283.479 396.375 284.464 395.117 284.718L395.113 284.718C393.2 285.108 390.566 284.89 387.36 284.237C384.189 283.591 380.652 282.565 376.994 281.48C373.364 280.404 369.613 279.27 366.115 278.456C362.887 277.704 359.751 277.192 357.024 277.276C355.377 275.925 354.14 274.319 352.755 272.532C351.278 270.623 349.64 268.526 347.242 266.767C345.178 265.244 342.763 264.098 340.368 263.08C337.903 262.033 335.545 261.153 333.267 260.074C328.78 257.949 325.384 255.395 324.334 250.678C323.223 245.692 324.285 242.074 326.245 238.625C327.249 236.858 328.481 235.149 329.823 233.293C330.984 231.688 332.217 229.983 333.368 228.119L333.856 227.31C334.84 225.635 335.352 223.472 335.78 221.761C336.007 220.858 336.211 220.061 336.447 219.378C336.687 218.682 336.917 218.238 337.13 217.98C337.291 217.784 337.712 217.468 338.541 217.064C339.326 216.68 340.295 216.3 341.378 215.894C343.44 215.121 346.015 214.228 347.753 213.116L347.754 213.117C349.479 212.019 351.324 210.61 353.199 209.153C355.093 207.681 357.025 206.151 358.997 204.737C362.714 202.072 366.272 200.051 369.481 199.639L370.218 199.604C371.94 199.523 373.603 200.274 375.176 201.228C375.561 201.461 375.929 201.698 376.287 201.931C376.636 202.159 376.993 202.394 377.321 202.596C377.645 202.796 377.995 202.998 378.34 203.151C378.659 203.293 379.119 203.46 379.636 203.458C379.639 203.458 379.641 203.458 379.645 203.458C379.647 203.458 379.651 203.459 379.654 203.459L379.653 203.458C379.978 203.455 380.244 203.367 380.382 203.315C380.546 203.254 380.7 203.18 380.83 203.111C381.089 202.975 381.381 202.795 381.669 202.613C382.277 202.229 382.971 201.768 383.807 201.276C385.481 200.291 387.473 199.332 389.495 199.074Z" fill="#E17F69" stroke="white" stroke-width="3.75551"/>
<path d="M350.727 229.882H353.382V236.869L361.68 229.882H363.414L355.516 236.523L365.535 245.67H362.16L353.382 237.656V245.67H350.727V229.882ZM375.994 245.67H373.566V244.003C373.282 244.225 373.002 244.452 372.726 244.683C372.45 244.905 372.152 245.11 371.832 245.297C371.512 245.483 371.156 245.634 370.765 245.75C370.373 245.874 369.92 245.937 369.404 245.937C368.923 245.937 368.488 245.857 368.097 245.697C367.714 245.545 367.39 245.337 367.122 245.07C366.856 244.794 366.647 244.47 366.496 244.097C366.353 243.723 366.282 243.323 366.282 242.897C366.282 242.372 366.385 241.901 366.589 241.483C366.802 241.065 367.087 240.692 367.443 240.363C367.807 240.025 368.226 239.727 368.697 239.47C369.177 239.212 369.688 238.981 370.231 238.776C370.773 238.572 371.329 238.394 371.899 238.243C372.468 238.083 373.024 237.932 373.566 237.79V237.029C373.566 236.478 373.508 236.016 373.393 235.643C373.286 235.26 373.131 234.954 372.926 234.723C372.721 234.483 372.472 234.314 372.179 234.216C371.894 234.109 371.569 234.056 371.204 234.056C370.796 234.056 370.463 234.109 370.204 234.216C369.946 234.323 369.742 234.465 369.591 234.643C369.448 234.812 369.35 235.007 369.297 235.229C369.243 235.443 369.217 235.665 369.217 235.896C369.217 236.109 369.199 236.314 369.164 236.509C369.128 236.705 369.066 236.878 368.977 237.029C368.888 237.181 368.763 237.301 368.603 237.389C368.452 237.478 368.256 237.523 368.016 237.523C367.642 237.523 367.336 237.389 367.096 237.123C366.865 236.847 366.749 236.505 366.749 236.096C366.749 235.696 366.878 235.323 367.136 234.976C367.403 234.62 367.759 234.318 368.203 234.069C368.657 233.811 369.182 233.612 369.777 233.469C370.373 233.318 371 233.243 371.659 233.243C372.459 233.243 373.135 233.323 373.686 233.483C374.237 233.634 374.682 233.851 375.02 234.136C375.367 234.412 375.616 234.749 375.767 235.149C375.918 235.549 375.994 235.994 375.994 236.483V245.67ZM373.566 238.576C373.041 238.736 372.495 238.941 371.925 239.19C371.356 239.43 370.831 239.705 370.351 240.016C369.871 240.327 369.475 240.674 369.164 241.056C368.852 241.43 368.697 241.83 368.697 242.256C368.697 242.55 368.75 242.83 368.857 243.096C368.973 243.363 369.12 243.599 369.297 243.803C369.484 243.999 369.693 244.159 369.924 244.283C370.165 244.399 370.413 244.457 370.671 244.457C370.947 244.457 371.204 244.421 371.445 244.35C371.694 244.279 371.934 244.185 372.165 244.07C372.396 243.945 372.628 243.803 372.859 243.643C373.091 243.474 373.326 243.301 373.566 243.123V238.576ZM381.651 233.496V242.163C381.651 242.465 381.722 242.75 381.864 243.016C382.006 243.274 382.197 243.505 382.438 243.71C382.678 243.905 382.958 244.061 383.278 244.177C383.607 244.292 383.958 244.35 384.332 244.35C384.572 244.35 384.83 244.301 385.106 244.203C385.382 244.097 385.648 243.954 385.906 243.777C386.164 243.599 386.409 243.39 386.639 243.15C386.871 242.91 387.062 242.656 387.213 242.39V233.496H389.628V245.67H387.213V243.39C387 243.736 386.733 244.065 386.413 244.377C386.093 244.688 385.741 244.959 385.359 245.19C384.986 245.421 384.599 245.603 384.198 245.737C383.807 245.87 383.433 245.937 383.078 245.937C382.545 245.937 382.042 245.839 381.57 245.643C381.108 245.439 380.703 245.168 380.356 244.83C380.01 244.483 379.734 244.083 379.529 243.63C379.333 243.168 379.236 242.679 379.236 242.163V233.496H381.651ZM401.448 245.67H399.019V244.003C398.735 244.225 398.455 244.452 398.179 244.683C397.904 244.905 397.606 245.11 397.285 245.297C396.965 245.483 396.61 245.634 396.218 245.75C395.827 245.874 395.374 245.937 394.857 245.937C394.377 245.937 393.942 245.857 393.55 245.697C393.168 245.545 392.843 245.337 392.577 245.07C392.309 244.794 392.1 244.47 391.949 244.097C391.807 243.723 391.736 243.323 391.736 242.897C391.736 242.372 391.838 241.901 392.043 241.483C392.257 241.065 392.541 240.692 392.897 240.363C393.261 240.025 393.679 239.727 394.15 239.47C394.631 239.212 395.142 238.981 395.685 238.776C396.228 238.572 396.783 238.394 397.352 238.243C397.921 238.083 398.477 237.932 399.019 237.79V237.029C399.019 236.478 398.962 236.016 398.846 235.643C398.739 235.26 398.584 234.954 398.379 234.723C398.175 234.483 397.926 234.314 397.632 234.216C397.348 234.109 397.023 234.056 396.659 234.056C396.25 234.056 395.916 234.109 395.658 234.216C395.4 234.323 395.195 234.465 395.044 234.643C394.902 234.812 394.804 235.007 394.75 235.229C394.698 235.443 394.671 235.665 394.671 235.896C394.671 236.109 394.653 236.314 394.617 236.509C394.582 236.705 394.52 236.878 394.43 237.029C394.341 237.181 394.217 237.301 394.057 237.389C393.906 237.478 393.711 237.523 393.47 237.523C393.097 237.523 392.79 237.389 392.549 237.123C392.319 236.847 392.203 236.505 392.203 236.096C392.203 235.696 392.332 235.323 392.59 234.976C392.857 234.62 393.212 234.318 393.657 234.069C394.11 233.811 394.635 233.612 395.231 233.469C395.827 233.318 396.454 233.243 397.112 233.243C397.913 233.243 398.588 233.323 399.14 233.483C399.691 233.634 400.136 233.851 400.474 234.136C400.821 234.412 401.07 234.749 401.221 235.149C401.373 235.549 401.448 235.994 401.448 236.483V245.67ZM399.019 238.576C398.495 238.736 397.948 238.941 397.379 239.19C396.81 239.43 396.285 239.705 395.805 240.016C395.324 240.327 394.929 240.674 394.617 241.056C394.306 241.43 394.15 241.83 394.15 242.256C394.15 242.55 394.204 242.83 394.311 243.096C394.426 243.363 394.573 243.599 394.75 243.803C394.937 243.999 395.147 244.159 395.378 244.283C395.618 244.399 395.867 244.457 396.125 244.457C396.401 244.457 396.659 244.421 396.899 244.35C397.148 244.279 397.388 244.185 397.619 244.07C397.851 243.945 398.082 243.803 398.312 243.643C398.544 243.474 398.78 243.301 399.019 243.123V238.576ZM405.984 227.269C406.17 227.269 406.348 227.3 406.517 227.362C406.695 227.424 406.846 227.513 406.971 227.629C407.095 227.736 407.193 227.864 407.265 228.016C407.344 228.158 407.384 228.313 407.384 228.482C407.384 228.642 407.344 228.798 407.265 228.949C407.193 229.091 407.095 229.22 406.971 229.336C406.846 229.442 406.695 229.531 406.517 229.602C406.348 229.665 406.17 229.696 405.984 229.696C405.797 229.696 405.619 229.665 405.45 229.602C405.281 229.531 405.134 229.442 405.01 229.336C404.885 229.22 404.783 229.091 404.703 228.949C404.631 228.798 404.596 228.642 404.596 228.482C404.596 228.313 404.631 228.158 404.703 228.016C404.783 227.864 404.885 227.736 405.01 227.629C405.134 227.513 405.281 227.424 405.45 227.362C405.619 227.3 405.797 227.269 405.984 227.269ZM404.81 233.936L406.504 233.243H407.211V245.67H404.81V233.936Z" fill="white"/>
</g>
<path d="M771.926 388.429L774.643 383.062C782.461 378.263 781.27 392.464 787.223 393.563C790.627 394.185 801.887 391.416 806.43 391.235C810.973 391.054 815.633 390.886 819.916 392.736C818.958 418.434 791.598 420.749 771.848 412.963C768.263 411.554 762.685 407.078 759.967 406.975C755.864 406.833 748.772 409.187 744.346 409.381C736.399 409.73 728.362 409.161 720.415 409.381C718.409 401.466 728.711 396.28 730.226 391.339C731.313 387.783 728.568 383.217 731.598 382.389L771.926 388.429Z" fill="#F9B9AA"/>
<path d="M770.554 438.144C781.477 436.179 789.644 437.743 796.814 446.215C807.958 459.381 808.799 470.891 790.886 476.569C765.222 484.704 777.776 469.559 769.894 456.302C767.409 452.112 762.555 452.914 761.792 448.801C760.666 442.748 765.027 439.14 770.554 438.144Z" fill="#F9B9AA"/>
<path d="M280.387 255.476C267.871 257.261 262.384 265.809 259.562 277.359C256.288 279.635 249.416 272.897 248.561 269.767C248.277 268.719 251.68 253.859 252.224 253.2C253.052 252.217 255.395 252.411 256.158 251.699C259.834 248.298 265.386 245.259 267.056 243.461C269.411 240.926 270.913 231.899 273.488 231.045C277.268 231.536 282.613 229.803 283.648 234.666C283.208 241.767 276.659 248.492 280.4 255.476H280.387Z" fill="#F9B9AA"/>
<path d="M849.839 520.606L822.763 524.448C820.925 518.964 817.586 516.041 823.281 511.54C826.426 509.07 829.467 509.677 831.655 508.267C833.182 507.285 833.584 504.621 835.654 503.224C848.299 494.649 847.91 512.743 849.826 520.619L849.839 520.606Z" fill="#F9B9AA"/>
</g>
<defs>
<filter id="filter0_d_2397_484" x="887.042" y="532.34" width="277.514" height="335.53" filterUnits="userSpaceOnUse" color-interpolation-filters="sRGB">
<feFlood flood-opacity="0" result="BackgroundImageFix"/>
<feColorMatrix in="SourceAlpha" type="matrix" values="0 0 0 0 0 0 0 0 0 0 0 0 0 0 0 0 0 0 127 0" result="hardAlpha"/>
<feOffset dy="4.00564"/>
<feGaussianBlur stdDeviation="18"/>
<feComposite in2="hardAlpha" operator="out"/>
<feColorMatrix type="matrix" values="0 0 0 0 0 0 0 0 0 0 0 0 0 0 0 0 0 0 0.25 0"/>
<feBlend mode="normal" in2="BackgroundImageFix" result="effect1_dropShadow_2397_484"/>
<feBlend mode="normal" in="SourceGraphic" in2="effect1_dropShadow_2397_484" result="shape"/>
</filter>
<filter id="filter1_d_2397_484" x="788.375" y="373.093" width="242.265" height="208.98" filterUnits="userSpaceOnUse" color-interpolation-filters="sRGB">
<feFlood flood-opacity="0" result="BackgroundImageFix"/>
<feColorMatrix in="SourceAlpha" type="matrix" values="0 0 0 0 0 0 0 0 0 0 0 0 0 0 0 0 0 0 127 0" result="hardAlpha"/>
<feOffset dy="5.10028"/>
<feGaussianBlur stdDeviation="22.9512"/>
<feComposite in2="hardAlpha" operator="out"/>
<feColorMatrix type="matrix" values="0 0 0 0 0 0 0 0 0 0 0 0 0 0 0 0 0 0 0.25 0"/>
<feBlend mode="normal" in2="BackgroundImageFix" result="effect1_dropShadow_2397_484"/>
<feBlend mode="normal" in="SourceGraphic" in2="effect1_dropShadow_2397_484" result="shape"/>
</filter>
<filter id="filter2_d_2397_484" x="497.77" y="237.932" width="234.146" height="216.253" filterUnits="userSpaceOnUse" color-interpolation-filters="sRGB">
<feFlood flood-opacity="0" result="BackgroundImageFix"/>
<feColorMatrix in="SourceAlpha" type="matrix" values="0 0 0 0 0 0 0 0 0 0 0 0 0 0 0 0 0 0 127 0" result="hardAlpha"/>
<feOffset dy="5.32364"/>
<feGaussianBlur stdDeviation="23.9564"/>
<feComposite in2="hardAlpha" operator="out"/>
<feColorMatrix type="matrix" values="0 0 0 0 0 0 0 0 0 0 0 0 0 0 0 0 0 0 0.25 0"/>
<feBlend mode="normal" in2="BackgroundImageFix" result="effect1_dropShadow_2397_484"/>
<feBlend mode="normal" in="SourceGraphic" in2="effect1_dropShadow_2397_484" result="shape"/>
</filter>
<filter id="filter3_d_2397_484" x="270.931" y="178.411" width="213.831" height="199.512" filterUnits="userSpaceOnUse" color-interpolation-filters="sRGB">
<feFlood flood-opacity="0" result="BackgroundImageFix"/>
<feColorMatrix in="SourceAlpha" type="matrix" values="0 0 0 0 0 0 0 0 0 0 0 0 0 0 0 0 0 0 127 0" result="hardAlpha"/>
<feOffset dx="3.75551" dy="36.3032"/>
<feGaussianBlur stdDeviation="27.4152"/>
<feColorMatrix type="matrix" values="0 0 0 0 0 0 0 0 0 0 0 0 0 0 0 0 0 0 0.1 0"/>
<feBlend mode="normal" in2="BackgroundImageFix" result="effect1_dropShadow_2397_484"/>
<feBlend mode="normal" in="SourceGraphic" in2="effect1_dropShadow_2397_484" result="shape"/>
</filter>
<clipPath id="clip0_2397_484">
<rect width="100.96" height="13.24" fill="white" transform="translate(973.483 132.115)"/>
</clipPath>
<clipPath id="clip1_2397_484">
<rect width="100.96" height="13.24" fill="white" transform="translate(1258.48 0.085083)"/>
</clipPath>
<clipPath id="clip2_2397_484">
<rect width="100.96" height="13.24" fill="white" transform="translate(475.963 264.618)"/>
</clipPath>
<clipPath id="clip3_2397_484">
<rect width="100.96" height="13.24" fill="white" transform="translate(825.901 251.378)"/>
</clipPath>
<clipPath id="clip4_2397_484">
<rect width="100.96" height="13.24" fill="white" transform="translate(1222.48 522.238)"/>
</clipPath>
<clipPath id="clip5_2397_484">
<rect width="105.026" height="16.9323" fill="white" transform="translate(43.2827 653.882)"/>
</clipPath>
<clipPath id="clip6_2397_484">
<rect width="105.026" height="16.9323" fill="white" transform="translate(427.65 989.92)"/>
</clipPath>
<clipPath id="clip7_2397_484">
<rect width="84.2625" height="23.0198" fill="white" transform="translate(1.09424 395.549)"/>
</clipPath>
<clipPath id="clip8_2397_484">
<rect width="84.2625" height="23.0198" fill="white" transform="translate(173.26 343.115)"/>
</clipPath>
<clipPath id="clip9_2397_484">
<rect width="88" height="30" fill="white" transform="translate(605.963 548.085)"/>
</clipPath>
<clipPath id="clip10_2397_484">
<rect width="89" height="29" fill="white" transform="translate(348.963 350.085)"/>
</clipPath>
<clipPath id="clip11_2397_484">
<rect width="84.2625" height="23.0198" fill="white" transform="translate(27.6216 986.876)"/>
</clipPath>
<clipPath id="clip12_2397_484">
<rect width="84.2625" height="23.0198" fill="white" transform="translate(687.69 1009.9)"/>
</clipPath>
<clipPath id="clip13_2397_484">
<rect width="84.2625" height="23.0198" fill="white" transform="translate(1307.16 696.72)"/>
</clipPath>
<clipPath id="clip14_2397_484">
<rect width="84.2625" height="23.0198" fill="white" transform="translate(1077.24 399.017)"/>
</clipPath>
<clipPath id="clip15_2397_484">
<rect width="81" height="23.0198" fill="white" transform="translate(663.463 866.176)"/>
</clipPath>
<clipPath id="clip16_2397_484">
<rect width="84.2625" height="23.0198" fill="white" transform="translate(1124.38 600.47)"/>
</clipPath>
<clipPath id="clip17_2397_484">
<rect width="100.96" height="13.24" fill="white" transform="translate(321.492 114.069)"/>
</clipPath>
<clipPath id="clip18_2397_484">
<rect width="84.2625" height="23.0198" fill="white" transform="translate(1.09424 127.309)"/>
</clipPath>
<clipPath id="clip19_2397_484">
<rect width="100.96" height="13.24" fill="white" transform="translate(1026.76 983.3)"/>
</clipPath>
<clipPath id="clip20_2397_484">
<rect width="84.2625" height="23.0198" fill="white" transform="translate(1188.7 908.124)"/>
</clipPath>
<clipPath id="clip21_2397_484">
<rect width="105.026" height="16.9323" fill="white" transform="translate(293.963 818.085)"/>
</clipPath>
<clipPath id="clip22_2397_484">
<rect width="911" height="681" fill="white" transform="translate(248 181)"/>
</clipPath>
</defs>
</svg>
