<svg width="1392" height="1227" viewBox="0 0 1392 1227" fill="none" xmlns="http://www.w3.org/2000/svg">
<g clip-path="url(#clip0_2397_466)">
<path d="M973.974 132.785C973.974 132.785 978.974 152.785 1011.97 132.785C1011.97 132.785 1028.97 156.675 1043.97 137.225C1043.97 137.225 1066.97 154.785 1073.97 132.785" stroke="white" stroke-width="2" stroke-miterlimit="10"/>
</g>
<g clip-path="url(#clip1_2397_466)">
<path d="M1258.97 0.755066C1258.97 0.755066 1263.97 20.7551 1296.97 0.755066C1296.97 0.755066 1313.97 24.6451 1328.97 5.19507C1328.97 5.19507 1351.97 22.7551 1358.97 0.755066" stroke="white" stroke-width="2" stroke-miterlimit="10"/>
</g>
<g clip-path="url(#clip2_2397_466)">
<path d="M476.453 265.288C476.453 265.288 481.453 285.288 514.453 265.288C514.453 265.288 531.453 289.178 546.453 269.728C546.453 269.728 569.453 287.288 576.453 265.288" stroke="white" stroke-width="2" stroke-miterlimit="10"/>
</g>
<g clip-path="url(#clip3_2397_466)">
<path d="M826.392 252.048C826.392 252.048 831.392 272.048 864.392 252.048C864.392 252.048 881.392 275.938 896.392 256.488C896.392 256.488 919.392 274.048 926.392 252.048" stroke="white" stroke-width="2" stroke-miterlimit="10"/>
</g>
<g clip-path="url(#clip4_2397_466)">
<path d="M1222.97 522.908C1222.97 522.908 1227.97 542.908 1260.97 522.908C1260.97 522.908 1277.97 546.798 1292.97 527.348C1292.97 527.348 1315.97 544.908 1322.97 522.908" stroke="white" stroke-width="2" stroke-miterlimit="10"/>
</g>
<g clip-path="url(#clip5_2397_466)">
<path d="M43.7925 654.739C43.7925 654.739 48.9939 680.317 83.323 654.739C83.323 654.739 101.008 685.291 116.612 660.417C116.612 660.417 140.538 682.874 147.82 654.739" stroke="white" stroke-width="2" stroke-miterlimit="10"/>
</g>
<path d="M572.963 700.085C572.963 700.085 585.475 727.685 608.935 700.085C608.935 700.085 624.575 741.918 652.727 706.216" stroke="white" stroke-width="2" stroke-miterlimit="10"/>
<g clip-path="url(#clip6_2397_466)">
<path d="M428.16 990.777C428.16 990.777 433.361 1016.35 467.69 990.777C467.69 990.777 485.375 1021.33 500.979 996.455C500.979 996.455 524.906 1018.91 532.187 990.777" stroke="white" stroke-width="2" stroke-miterlimit="10"/>
</g>
<g clip-path="url(#clip7_2397_466)">
<path d="M1.79395 397.174C1.79395 397.174 14.81 424.579 39.215 397.174C39.215 397.174 55.4851 438.711 84.7711 403.262" stroke="white" stroke-width="2" stroke-miterlimit="10"/>
</g>
<g clip-path="url(#clip8_2397_466)">
<path d="M173.96 344.74C173.96 344.74 186.976 372.145 211.381 344.74C211.381 344.74 227.651 386.278 256.937 350.828" stroke="white" stroke-width="2" stroke-miterlimit="10"/>
</g>
<g clip-path="url(#clip9_2397_466)">
<path d="M606.693 550.202C606.693 550.202 620.287 585.917 645.774 550.202C645.774 550.202 662.766 604.335 693.351 558.136" stroke="white" stroke-width="2" stroke-miterlimit="10"/>
</g>
<g clip-path="url(#clip10_2397_466)">
<path d="M349.702 352.132C349.702 352.132 363.449 386.656 389.227 352.132C389.227 352.132 406.411 404.46 437.344 359.801" stroke="white" stroke-width="2" stroke-miterlimit="10"/>
</g>
<g clip-path="url(#clip11_2397_466)">
<path d="M28.3213 988.501C28.3213 988.501 41.3373 1015.91 65.7424 988.501C65.7424 988.501 82.0124 1030.04 111.298 994.589" stroke="white" stroke-width="2" stroke-miterlimit="10"/>
</g>
<g clip-path="url(#clip12_2397_466)">
<path d="M688.39 1011.52C688.39 1011.52 701.406 1038.93 725.811 1011.52C725.811 1011.52 742.081 1053.06 771.367 1017.61" stroke="white" stroke-width="2" stroke-miterlimit="10"/>
</g>
<g clip-path="url(#clip13_2397_466)">
<path d="M1307.86 698.345C1307.86 698.345 1320.88 725.75 1345.28 698.345C1345.28 698.345 1361.55 739.883 1390.84 704.433" stroke="white" stroke-width="2" stroke-miterlimit="10"/>
</g>
<g clip-path="url(#clip14_2397_466)">
<path d="M1077.94 400.642C1077.94 400.642 1090.96 428.047 1115.36 400.642C1115.36 400.642 1131.63 442.179 1160.92 406.73" stroke="white" stroke-width="2" stroke-miterlimit="10"/>
</g>
<g clip-path="url(#clip15_2397_466)">
<path d="M664.135 867.801C664.135 867.801 676.647 895.205 700.107 867.801C700.107 867.801 715.748 909.338 743.9 873.888" stroke="white" stroke-width="2" stroke-miterlimit="10"/>
</g>
<path d="M1.27393 1205.42C1.27393 1205.42 14.29 1232.83 38.695 1205.42C38.695 1205.42 54.965 1246.96 84.2511 1211.51" stroke="white" stroke-width="2" stroke-miterlimit="10"/>
<g clip-path="url(#clip16_2397_466)">
<path d="M1125.08 602.095C1125.08 602.095 1138.1 629.499 1162.5 602.095C1162.5 602.095 1178.77 643.632 1208.06 608.182" stroke="white" stroke-width="2" stroke-miterlimit="10"/>
</g>
<path d="M765.963 769.085C765.963 769.085 770.963 794.845 803.963 769.085C803.963 769.085 820.963 799.855 835.963 774.804C835.963 774.804 858.963 797.421 865.963 769.085" stroke="white" stroke-width="2" stroke-miterlimit="10"/>
<g clip-path="url(#clip17_2397_466)">
<path d="M321.982 114.739C321.982 114.739 326.982 134.739 359.982 114.739C359.982 114.739 376.982 138.629 391.982 119.179C391.982 119.179 414.982 136.739 421.982 114.739" stroke="white" stroke-width="2" stroke-miterlimit="10"/>
</g>
<g clip-path="url(#clip18_2397_466)">
<path d="M1.79395 128.934C1.79395 128.934 14.81 156.338 39.215 128.934C39.215 128.934 55.4851 170.471 84.7711 135.021" stroke="white" stroke-width="2" stroke-miterlimit="10"/>
</g>
<g clip-path="url(#clip19_2397_466)">
<path d="M1027.25 983.97C1027.25 983.97 1032.25 1003.97 1065.25 983.97C1065.25 983.97 1082.25 1007.86 1097.25 988.41C1097.25 988.41 1120.25 1005.97 1127.25 983.97" stroke="white" stroke-width="2" stroke-miterlimit="10"/>
</g>
<g clip-path="url(#clip20_2397_466)">
<path d="M1189.4 909.748C1189.4 909.748 1202.42 937.153 1226.82 909.748C1226.82 909.748 1243.09 951.286 1272.38 915.836" stroke="white" stroke-width="2" stroke-miterlimit="10"/>
</g>
<g clip-path="url(#clip21_2397_466)">
<path d="M270 816.952C270 816.952 275.201 842.53 309.53 816.952C309.53 816.952 327.215 847.505 342.819 822.63C342.819 822.63 366.745 845.087 374.027 816.952" stroke="white" stroke-width="2" stroke-miterlimit="10"/>
<path d="M270 816.952C270 816.952 275.201 842.53 309.53 816.952C309.53 816.952 327.215 847.505 342.819 822.63C342.819 822.63 366.745 845.087 374.027 816.952" stroke="white" stroke-width="2" stroke-miterlimit="10"/>
</g>
<path d="M307 567.952C307 567.952 312.201 593.53 346.531 567.952C346.531 567.952 364.215 598.505 379.819 573.63C379.819 573.63 403.746 596.087 411.028 567.952" stroke="white" stroke-width="2" stroke-miterlimit="10"/>
<path d="M307 567.952C307 567.952 312.201 593.53 346.531 567.952C346.531 567.952 364.215 598.505 379.819 573.63C379.819 573.63 403.746 596.087 411.028 567.952" stroke="white" stroke-width="2" stroke-miterlimit="10"/>
<g clip-path="url(#clip22_2397_466)">
<g filter="url(#filter0_d_2397_466)">
<path d="M1004.13 626.656C1005.73 625.642 1008.15 625.117 1011.91 625.791C1011.84 625.779 1011.88 625.782 1012.1 625.856C1012.29 625.919 1012.55 626.01 1012.87 626.127C1013.52 626.362 1014.4 626.69 1015.42 627.084C1017.47 627.872 1020.1 628.914 1022.72 629.977C1025.33 631.041 1027.93 632.122 1029.9 632.99C1030.9 633.425 1031.72 633.798 1032.3 634.084C1032.49 634.18 1032.65 634.262 1032.77 634.328C1032.82 634.433 1032.89 634.611 1032.97 634.9C1033.14 635.482 1033.24 636.011 1033.47 636.889C1033.87 638.454 1034.51 640.509 1036.07 642.281V642.282C1037.55 643.961 1039.69 645.229 1041.81 646.317C1042.88 646.871 1044.02 647.415 1045.13 647.948C1046.24 648.487 1047.34 649.023 1048.39 649.59C1052.69 651.922 1055.43 654.384 1055.38 658.342L1055.34 661.229L1058.06 660.25C1065.88 657.435 1072.99 659.127 1080.01 662.65C1083.54 664.419 1086.99 666.624 1090.47 668.913C1093.91 671.182 1097.41 673.553 1100.9 675.54C1104.26 677.453 1108.22 679.155 1111.94 680.819C1115.72 682.513 1119.26 684.173 1122.03 686.062V686.063C1123.93 687.364 1128.08 690.275 1132.09 693.161C1136.08 696.037 1139.78 698.784 1141.06 699.926C1141.08 699.949 1141.12 699.994 1141.17 700.069C1141.29 700.231 1141.46 700.463 1141.66 700.765C1142.07 701.367 1142.61 702.192 1143.24 703.174C1144.49 705.136 1146.08 707.686 1147.64 710.251C1149.21 712.816 1150.75 715.385 1151.93 717.385C1152.51 718.386 1153 719.236 1153.35 719.868C1153.53 720.184 1153.66 720.434 1153.75 720.615C1153.8 720.697 1153.82 720.75 1153.83 720.779C1154.22 722.159 1154.32 724.102 1154.18 726.408C1154.04 728.721 1153.68 731.233 1153.27 733.613C1152.85 736.013 1152.41 738.166 1152.08 739.908C1151.93 740.751 1151.79 741.517 1151.72 742.118C1151.69 742.413 1151.66 742.73 1151.67 743.024C1151.67 743.17 1151.68 743.36 1151.72 743.564C1151.75 743.738 1151.83 744.093 1152.07 744.455V744.456C1153.27 746.246 1155.43 746.571 1157.07 746.592C1158.83 746.615 1160.89 746.29 1162.81 745.953C1164.82 745.603 1166.72 745.234 1168.42 745.063C1169.67 744.937 1170.59 744.951 1171.22 745.06C1171.23 745.102 1171.25 745.147 1171.26 745.195C1171.4 745.781 1171.56 746.604 1171.71 747.626C1172.03 749.663 1172.33 752.306 1172.65 755.055C1172.95 757.783 1173.27 760.611 1173.59 762.951C1173.76 764.121 1173.93 765.196 1174.1 766.092C1174.27 766.941 1174.47 767.787 1174.75 768.404L1174.75 768.41C1174.89 768.723 1175.12 769.023 1175.21 769.143C1175.36 769.335 1175.55 769.564 1175.76 769.816C1176.18 770.322 1176.75 770.977 1177.41 771.722C1178.74 773.216 1180.47 775.116 1182.21 776.998C1183.95 778.882 1185.7 780.756 1187.07 782.203C1187.76 782.926 1188.35 783.547 1188.81 784.011C1189.2 784.408 1189.62 784.835 1189.87 785.025L1189.9 785.046C1191.39 786.152 1193.36 786.966 1195.23 787.685C1197.2 788.44 1199.14 789.113 1200.96 789.969C1204.6 791.676 1206.9 793.697 1207 797.213V797.218C1207 797.197 1207 797.338 1206.93 797.729C1206.88 798.076 1206.79 798.521 1206.67 799.039C1206.44 800.075 1206.12 801.339 1205.78 802.58C1205.43 803.825 1205.07 805.017 1204.76 805.911C1204.65 806.224 1204.54 806.482 1204.46 806.686C1204.42 806.692 1204.38 806.701 1204.34 806.706C1203.87 806.764 1203.43 806.778 1202.68 806.837C1201.42 806.939 1199.51 807.158 1197.94 808.369L1197.94 808.372C1195.82 810.014 1195.46 812.504 1195.27 814.05C1195.16 814.956 1195.12 815.512 1195 816.003C1194.97 816.151 1194.94 816.242 1194.91 816.295C1194.73 816.4 1194.4 816.53 1193.85 816.677C1193.17 816.856 1192.48 816.989 1191.51 817.213C1189.68 817.633 1187.39 818.269 1185.19 819.776C1184.34 820.357 1183.09 821.464 1181.75 822.733C1180.37 824.038 1178.78 825.619 1177.2 827.227C1174.08 830.423 1170.94 833.809 1169.63 835.407C1168.63 836.619 1168.27 838.266 1168.08 839.276C1168.01 839.626 1167.97 839.867 1167.93 840.076C1167.91 840.077 1167.89 840.079 1167.87 840.08C1167.15 840.119 1166.21 840.119 1165.11 840.128C1163.06 840.145 1160.3 840.178 1158.41 840.76C1155.49 841.653 1153.35 843.972 1151.72 845.848C1150.84 846.859 1150.12 847.73 1149.38 848.501C1148.65 849.266 1148.05 849.744 1147.54 849.991H1147.54C1141.51 852.881 1137.82 853.222 1134.45 852.84C1132.68 852.639 1130.98 852.238 1128.92 851.792C1126.9 851.354 1124.62 850.897 1121.9 850.666C1118.58 850.384 1115.9 851.048 1113.68 852.362C1111.51 853.652 1109.92 855.489 1108.64 857.328C1107.44 859.06 1106.25 861.204 1105.31 862.679C1104.27 864.318 1103.32 865.496 1102.26 866.196L1102.26 866.199C1101.66 866.596 1100.87 866.915 1099.86 867.212C1098.82 867.518 1097.77 867.743 1096.52 868.056C1094.19 868.638 1091.35 869.472 1089.27 871.644C1087.65 873.341 1086.87 875.774 1086.44 877.52C1086.24 878.342 1086.09 879.11 1085.98 879.665C1085.93 879.666 1085.88 879.667 1085.82 879.666C1085.11 879.657 1084.23 879.56 1083.15 879.454C1082.13 879.355 1080.95 879.25 1079.85 879.277C1078.79 879.302 1077.52 879.449 1076.45 880.068L1076.44 880.072C1075.97 880.345 1075.68 880.739 1075.56 880.911C1075.4 881.135 1075.26 881.381 1075.15 881.599C1074.92 882.013 1074.64 882.592 1074.41 883.052C1073.85 884.146 1073.36 884.967 1072.91 885.355L1072.91 885.356C1070 887.871 1068.07 889.636 1066.78 891.059C1065.45 892.523 1064.7 893.719 1064.26 895.108C1063.87 896.316 1063.71 897.747 1063.46 899.191C1063.18 900.761 1062.72 902.862 1061.67 905.952V905.953C1060.74 908.67 1057.32 914.709 1053.27 920.141C1051.25 922.834 1049.15 925.282 1047.21 927.038C1046.24 927.917 1045.36 928.583 1044.58 929.021C1043.79 929.469 1043.24 929.605 1042.91 929.608H1042.91C1042.65 929.611 1042.37 929.529 1041.94 929.081C1041.47 928.584 1041 927.818 1040.43 926.752C1039.9 925.776 1039.27 924.492 1038.59 923.37C1037.89 922.226 1037.01 921.018 1035.82 920.117L1035.81 920.115L1035.54 919.913C1034.09 918.886 1031.6 917.523 1028.77 916.07C1025.7 914.491 1022.06 912.722 1018.54 911.025C1015.01 909.322 1011.61 907.694 1008.97 906.379C1007.65 905.722 1006.55 905.154 1005.73 904.702C1005.32 904.475 1005 904.288 1004.77 904.142C1004.7 904.095 1004.64 904.055 1004.6 904.027C1004.58 903.97 1004.55 903.882 1004.52 903.752C1004.41 903.36 1004.32 902.88 1004.19 902.224C1003.98 901.094 1003.64 899.306 1002.69 897.971L1002.69 897.969C1001.59 896.415 999.939 894.883 998.753 893.645C997.521 892.358 996.662 891.281 996.273 890.239L996.202 890.031C995.742 888.564 995.694 886.554 996.012 884.055C996.326 881.587 996.97 878.832 997.735 875.962C998.116 874.532 998.523 873.091 998.929 871.653C999.334 870.22 999.739 868.789 1000.11 867.402C1000.84 864.648 1001.47 861.96 1001.7 859.64L1001.7 859.638C1002.38 852.754 1002.39 843.101 1001.5 833.624C1000.61 824.195 998.812 814.692 995.734 808.241C994.777 806.232 992.859 803.914 991.323 802.039C990.513 801.051 989.784 800.16 989.216 799.381C988.605 798.543 988.361 798.069 988.309 797.887H988.308C987.79 796.038 987.778 793.897 987.76 791.221C987.743 788.642 987.715 785.667 986.978 782.62L986.976 782.614L986.729 781.661C985.43 776.932 983.225 772.656 980.924 768.657C978.422 764.308 975.896 760.419 973.959 756.328C972.054 752.302 970.848 748.317 970.991 744.028C971.133 739.756 972.62 734.983 976.438 729.401C979.483 724.948 983.723 722.457 987.531 720.84C989.446 720.027 991.188 719.459 992.663 718.942C993.377 718.691 994.069 718.439 994.645 718.176C995.154 717.943 995.87 717.574 996.372 716.975L996.373 716.976C996.734 716.546 997.002 715.963 997.189 715.521C997.405 715.012 997.631 714.397 997.863 713.73C998.322 712.407 998.862 710.702 999.427 708.995C1000.61 705.432 1001.9 701.856 1003.17 699.955L1003.17 699.954C1004.41 698.1 1005.79 696.71 1007.19 695.44C1008.51 694.229 1010.06 692.952 1011.24 691.574C1012.5 690.101 1013.47 688.367 1013.77 686.046C1014.07 683.785 1013.69 681.146 1012.6 677.874C1010.59 671.843 1007.52 668.68 1005.21 665.382C1002.94 662.137 1000.9 658.186 1000.23 649.848V649.847C999.739 643.649 999.227 636.783 1000.69 631.82C1001.4 629.403 1002.52 627.675 1004.13 626.656ZM1195.01 816.241L1195.01 816.242C1195.01 816.241 1195.01 816.24 1195.01 816.239L1195.01 816.241Z" fill="#E17F69" stroke="white" stroke-width="4"/>
<path d="M1023.07 775.527H1030.52C1031.5 775.527 1032.4 775.636 1033.23 775.855C1034.05 776.074 1034.75 776.386 1035.34 776.792C1035.93 777.188 1036.39 777.667 1036.71 778.23C1037.04 778.782 1037.21 779.397 1037.21 780.074C1037.21 780.574 1037.16 781.027 1037.06 781.433C1036.95 781.829 1036.77 782.199 1036.51 782.542C1036.25 782.876 1035.9 783.194 1035.46 783.496C1035.03 783.798 1034.49 784.105 1033.84 784.417V784.48C1034.49 784.584 1035.09 784.761 1035.62 785.011C1036.15 785.261 1036.6 785.584 1036.98 785.98C1037.36 786.365 1037.65 786.813 1037.85 787.324C1038.06 787.834 1038.16 788.402 1038.16 789.027C1038.16 789.725 1038.01 790.381 1037.7 790.996C1037.39 791.6 1036.96 792.126 1036.4 792.574C1035.84 793.022 1035.15 793.376 1034.35 793.636C1033.56 793.897 1032.67 794.027 1031.7 794.027H1023.07V775.527ZM1026.18 783.855H1030.13C1030.76 783.855 1031.31 783.766 1031.79 783.589C1032.28 783.412 1032.69 783.167 1033.02 782.855C1033.36 782.542 1033.61 782.173 1033.77 781.746C1033.95 781.319 1034.04 780.855 1034.04 780.355C1034.04 779.813 1033.94 779.324 1033.73 778.886C1033.53 778.438 1033.21 778.058 1032.77 777.746C1032.35 777.433 1031.8 777.194 1031.13 777.027C1030.47 776.85 1029.67 776.761 1028.74 776.761H1026.18V783.855ZM1026.18 792.667H1029.54C1030.45 792.667 1031.23 792.584 1031.88 792.417C1032.55 792.24 1033.1 791.996 1033.52 791.683C1033.96 791.371 1034.28 791.001 1034.49 790.574C1034.7 790.136 1034.81 789.652 1034.81 789.121C1034.81 788.537 1034.71 787.996 1034.52 787.496C1034.34 786.996 1034.03 786.563 1033.6 786.199C1033.19 785.824 1032.63 785.532 1031.95 785.324C1031.27 785.105 1030.44 784.996 1029.45 784.996H1026.18V792.667ZM1042.01 772.464C1042.23 772.464 1042.44 772.501 1042.63 772.574C1042.84 772.647 1043.02 772.751 1043.16 772.886C1043.31 773.011 1043.42 773.162 1043.51 773.339C1043.6 773.506 1043.65 773.688 1043.65 773.886C1043.65 774.074 1043.6 774.256 1043.51 774.433C1043.42 774.6 1043.31 774.751 1043.16 774.886C1043.02 775.011 1042.84 775.115 1042.63 775.199C1042.44 775.272 1042.23 775.308 1042.01 775.308C1041.79 775.308 1041.58 775.272 1041.38 775.199C1041.19 775.115 1041.01 775.011 1040.87 774.886C1040.72 774.751 1040.6 774.6 1040.51 774.433C1040.42 774.256 1040.38 774.074 1040.38 773.886C1040.38 773.688 1040.42 773.506 1040.51 773.339C1040.6 773.162 1040.72 773.011 1040.87 772.886C1041.01 772.751 1041.19 772.647 1041.38 772.574C1041.58 772.501 1041.79 772.464 1042.01 772.464ZM1040.63 780.277L1042.62 779.464H1043.45V794.027H1040.63V780.277ZM1061.06 780.511V781.683H1058.35C1058.63 782.079 1058.86 782.522 1059.02 783.011C1059.19 783.49 1059.27 783.964 1059.27 784.433C1059.27 785.173 1059.11 785.85 1058.79 786.464C1058.47 787.069 1058.01 787.589 1057.41 788.027C1056.83 788.464 1056.13 788.803 1055.32 789.042C1054.51 789.282 1053.62 789.402 1052.65 789.402C1052.29 789.402 1051.93 789.371 1051.56 789.308C1051.18 789.246 1050.86 789.173 1050.59 789.089C1050.32 789.308 1050.09 789.563 1049.9 789.855C1049.71 790.147 1049.62 790.444 1049.62 790.746C1049.62 791.027 1049.77 791.256 1050.09 791.433C1050.4 791.61 1050.84 791.709 1051.4 791.73L1056.7 791.949C1057.54 791.99 1058.24 792.095 1058.79 792.261C1059.35 792.417 1059.8 792.631 1060.13 792.902C1060.48 793.173 1060.72 793.496 1060.85 793.871C1060.99 794.246 1061.06 794.667 1061.06 795.136C1061.06 795.97 1060.86 796.72 1060.48 797.386C1060.09 798.063 1059.53 798.641 1058.81 799.121C1058.08 799.6 1057.19 799.964 1056.13 800.214C1055.09 800.475 1053.91 800.605 1052.6 800.605C1050.24 800.605 1048.47 800.339 1047.31 799.808C1046.15 799.277 1045.57 798.574 1045.57 797.699C1045.57 797.303 1045.67 796.923 1045.87 796.558C1046.07 796.194 1046.32 795.845 1046.62 795.511C1046.92 795.178 1047.26 794.86 1047.63 794.558C1048.01 794.256 1048.38 793.964 1048.74 793.683C1048.21 793.516 1047.77 793.287 1047.41 792.996C1047.06 792.694 1046.88 792.345 1046.88 791.949C1046.88 791.657 1046.96 791.36 1047.1 791.058C1047.26 790.746 1047.47 790.449 1047.73 790.167C1047.99 789.886 1048.29 789.631 1048.65 789.402C1049 789.162 1049.38 788.97 1049.77 788.824C1048.81 788.417 1048.05 787.85 1047.51 787.121C1046.97 786.391 1046.7 785.553 1046.7 784.605C1046.7 783.897 1046.86 783.23 1047.18 782.605C1047.5 781.98 1047.95 781.438 1048.51 780.98C1049.07 780.511 1049.73 780.141 1050.49 779.871C1051.26 779.6 1052.09 779.464 1052.98 779.464C1053.39 779.464 1053.81 779.496 1054.23 779.558C1054.64 779.61 1055.03 779.683 1055.38 779.777C1055.75 779.871 1056.07 779.985 1056.34 780.121C1056.62 780.246 1056.84 780.376 1056.99 780.511H1061.06ZM1049.62 793.902C1049.19 794.214 1048.86 794.595 1048.63 795.042C1048.41 795.501 1048.31 795.928 1048.31 796.324C1048.31 796.647 1048.41 796.954 1048.63 797.246C1048.86 797.537 1049.2 797.792 1049.65 798.011C1050.1 798.24 1050.66 798.417 1051.34 798.542C1052.01 798.678 1052.8 798.746 1053.7 798.746C1054.64 798.746 1055.49 798.667 1056.24 798.511C1056.99 798.365 1057.63 798.167 1058.15 797.917C1058.67 797.678 1059.07 797.402 1059.34 797.089C1059.62 796.787 1059.76 796.48 1059.76 796.167C1059.76 795.532 1059.44 795.069 1058.81 794.777C1058.17 794.485 1057.31 794.339 1056.21 794.339C1055.52 794.339 1054.83 794.324 1054.13 794.292C1053.44 794.261 1052.78 794.22 1052.18 794.167C1051.59 794.126 1051.06 794.079 1050.6 794.027C1050.14 793.985 1049.82 793.944 1049.62 793.902ZM1053.15 788.667C1053.56 788.667 1053.94 788.579 1054.31 788.402C1054.68 788.214 1055.01 787.964 1055.29 787.652C1055.57 787.329 1055.79 786.954 1055.96 786.527C1056.13 786.1 1056.21 785.641 1056.21 785.152C1056.21 784.454 1056.12 783.808 1055.93 783.214C1055.74 782.61 1055.48 782.089 1055.15 781.652C1054.83 781.204 1054.45 780.855 1054.01 780.605C1053.58 780.355 1053.12 780.23 1052.63 780.23C1052.15 780.23 1051.74 780.329 1051.38 780.527C1051.04 780.725 1050.75 780.996 1050.52 781.339C1050.31 781.683 1050.14 782.089 1050.02 782.558C1049.92 783.027 1049.87 783.532 1049.87 784.074C1049.87 784.72 1049.95 785.324 1050.1 785.886C1050.26 786.438 1050.48 786.923 1050.77 787.339C1051.07 787.756 1051.41 788.084 1051.81 788.324C1052.21 788.553 1052.66 788.667 1053.15 788.667ZM1072.35 775.527H1075.46V794.027H1072.35V775.527ZM1083.99 793.355C1084.38 793.355 1084.73 793.298 1085.06 793.183C1085.39 793.058 1085.67 792.897 1085.9 792.699C1086.14 792.501 1086.33 792.277 1086.46 792.027C1086.6 791.777 1086.66 791.516 1086.66 791.246C1086.66 790.808 1086.56 790.428 1086.34 790.105C1086.12 789.782 1085.83 789.49 1085.46 789.23C1085.11 788.97 1084.7 788.735 1084.24 788.527C1083.78 788.308 1083.32 788.089 1082.84 787.871C1082.37 787.641 1081.9 787.397 1081.45 787.136C1080.99 786.876 1080.58 786.574 1080.21 786.23C1079.86 785.886 1079.57 785.49 1079.35 785.042C1079.13 784.595 1079.02 784.063 1079.02 783.449C1079.02 782.876 1079.14 782.345 1079.38 781.855C1079.63 781.365 1079.97 780.944 1080.4 780.589C1080.84 780.235 1081.35 779.959 1081.95 779.761C1082.54 779.563 1083.19 779.464 1083.9 779.464C1084.37 779.464 1084.81 779.501 1085.23 779.574C1085.64 779.636 1086.04 779.761 1086.43 779.949C1086.83 780.136 1087.22 780.407 1087.62 780.761C1088.01 781.105 1088.42 781.558 1088.85 782.121L1087.82 783.042C1087.28 782.157 1086.67 781.501 1085.99 781.074C1085.33 780.636 1084.61 780.417 1083.85 780.417C1083.45 780.417 1083.08 780.47 1082.74 780.574C1082.41 780.667 1082.12 780.803 1081.88 780.98C1081.64 781.147 1081.46 781.345 1081.32 781.574C1081.2 781.803 1081.13 782.048 1081.13 782.308C1081.13 782.735 1081.25 783.11 1081.49 783.433C1081.73 783.746 1082.04 784.032 1082.43 784.292C1082.83 784.553 1083.27 784.792 1083.76 785.011C1084.26 785.22 1084.77 785.438 1085.29 785.667C1085.81 785.886 1086.32 786.126 1086.81 786.386C1087.31 786.647 1087.75 786.949 1088.13 787.292C1088.53 787.626 1088.85 788.016 1089.09 788.464C1089.33 788.912 1089.45 789.433 1089.45 790.027C1089.45 790.631 1089.33 791.199 1089.1 791.73C1088.88 792.251 1088.54 792.704 1088.09 793.089C1087.64 793.475 1087.07 793.782 1086.38 794.011C1085.71 794.23 1084.91 794.339 1083.99 794.339C1083.58 794.339 1083.15 794.303 1082.71 794.23C1082.27 794.167 1081.83 794.042 1081.38 793.855C1080.94 793.667 1080.49 793.402 1080.04 793.058C1079.59 792.704 1079.15 792.246 1078.73 791.683L1079.88 790.636C1080.23 791.126 1080.56 791.542 1080.87 791.886C1081.19 792.23 1081.51 792.511 1081.84 792.73C1082.17 792.949 1082.51 793.11 1082.85 793.214C1083.21 793.308 1083.59 793.355 1083.99 793.355ZM1095.27 794.027H1092.45V773.261L1094.46 772.464H1095.27V794.027ZM1109.26 794.027H1106.41V792.074C1106.08 792.334 1105.75 792.6 1105.43 792.871C1105.11 793.131 1104.76 793.371 1104.38 793.589C1104.01 793.808 1103.59 793.985 1103.13 794.121C1102.67 794.266 1102.14 794.339 1101.54 794.339C1100.98 794.339 1100.47 794.246 1100.01 794.058C1099.56 793.881 1099.18 793.636 1098.87 793.324C1098.56 793.001 1098.31 792.621 1098.13 792.183C1097.97 791.746 1097.88 791.277 1097.88 790.777C1097.88 790.162 1098 789.61 1098.24 789.121C1098.49 788.631 1098.83 788.194 1099.24 787.808C1099.67 787.412 1100.16 787.063 1100.71 786.761C1101.27 786.459 1101.87 786.188 1102.51 785.949C1103.14 785.709 1103.79 785.501 1104.46 785.324C1105.13 785.136 1105.78 784.959 1106.41 784.792V783.902C1106.41 783.256 1106.35 782.714 1106.21 782.277C1106.09 781.829 1105.9 781.47 1105.66 781.199C1105.42 780.917 1105.13 780.72 1104.79 780.605C1104.46 780.48 1104.08 780.417 1103.65 780.417C1103.17 780.417 1102.78 780.48 1102.48 780.605C1102.17 780.73 1101.94 780.897 1101.76 781.105C1101.59 781.303 1101.48 781.532 1101.41 781.792C1101.35 782.042 1101.32 782.303 1101.32 782.574C1101.32 782.824 1101.3 783.063 1101.26 783.292C1101.22 783.522 1101.14 783.725 1101.04 783.902C1100.94 784.079 1100.79 784.22 1100.6 784.324C1100.42 784.428 1100.2 784.48 1099.91 784.48C1099.48 784.48 1099.12 784.324 1098.84 784.011C1098.57 783.688 1098.43 783.287 1098.43 782.808C1098.43 782.339 1098.58 781.902 1098.88 781.496C1099.2 781.079 1099.61 780.725 1100.13 780.433C1100.66 780.131 1101.28 779.897 1101.98 779.73C1102.67 779.553 1103.41 779.464 1104.18 779.464C1105.12 779.464 1105.91 779.558 1106.56 779.746C1107.2 779.923 1107.72 780.178 1108.12 780.511C1108.52 780.834 1108.82 781.23 1108.99 781.699C1109.17 782.167 1109.26 782.688 1109.26 783.261V794.027ZM1106.41 785.714C1105.8 785.902 1105.16 786.141 1104.49 786.433C1103.83 786.714 1103.21 787.037 1102.65 787.402C1102.09 787.766 1101.62 788.173 1101.26 788.621C1100.89 789.058 1100.71 789.527 1100.71 790.027C1100.71 790.371 1100.77 790.699 1100.9 791.011C1101.03 791.324 1101.21 791.6 1101.41 791.839C1101.63 792.069 1101.88 792.256 1102.15 792.402C1102.43 792.537 1102.72 792.605 1103.02 792.605C1103.35 792.605 1103.65 792.563 1103.93 792.48C1104.22 792.397 1104.5 792.287 1104.77 792.152C1105.04 792.006 1105.32 791.839 1105.59 791.652C1105.86 791.454 1106.13 791.251 1106.41 791.042V785.714ZM1113.06 779.761H1115.88V782.371C1116.75 781.391 1117.64 780.662 1118.57 780.183C1119.5 779.704 1120.45 779.464 1121.41 779.464C1121.91 779.464 1122.38 779.579 1122.81 779.808C1123.24 780.037 1123.62 780.35 1123.95 780.746C1124.28 781.131 1124.54 781.589 1124.73 782.121C1124.91 782.641 1125.01 783.199 1125.01 783.792V794.027H1122.16V784.261C1122.16 783.313 1121.95 782.6 1121.52 782.121C1121.11 781.641 1120.57 781.402 1119.9 781.402C1119.6 781.402 1119.28 781.454 1118.95 781.558C1118.61 781.652 1118.27 781.787 1117.91 781.964C1117.57 782.141 1117.23 782.355 1116.88 782.605C1116.54 782.855 1116.21 783.136 1115.88 783.449V794.027H1113.06V779.761ZM1138.37 792.636C1138.04 792.897 1137.69 793.131 1137.31 793.339C1136.92 793.548 1136.52 793.73 1136.12 793.886C1135.71 794.032 1135.29 794.141 1134.87 794.214C1134.45 794.298 1134.04 794.339 1133.65 794.339C1132.81 794.339 1132.02 794.147 1131.29 793.761C1130.56 793.365 1129.92 792.839 1129.37 792.183C1128.83 791.516 1128.4 790.746 1128.09 789.871C1127.77 788.985 1127.62 788.053 1127.62 787.074C1127.62 786.105 1127.82 785.167 1128.21 784.261C1128.61 783.345 1129.14 782.532 1129.82 781.824C1130.5 781.105 1131.29 780.532 1132.2 780.105C1133.1 779.678 1134.07 779.464 1135.1 779.464C1135.8 779.464 1136.41 779.589 1136.93 779.839C1137.45 780.079 1137.93 780.397 1138.37 780.792V773.261L1140.35 772.464H1141.18V794.339H1138.37V792.636ZM1138.37 784.292C1138.37 783.73 1138.26 783.22 1138.06 782.761C1137.85 782.292 1137.57 781.897 1137.23 781.574C1136.89 781.24 1136.51 780.985 1136.09 780.808C1135.67 780.621 1135.24 780.527 1134.81 780.527C1134.24 780.527 1133.71 780.667 1133.21 780.949C1132.72 781.23 1132.29 781.626 1131.93 782.136C1131.57 782.647 1131.27 783.256 1131.06 783.964C1130.85 784.662 1130.74 785.433 1130.74 786.277C1130.74 787.183 1130.86 788.032 1131.09 788.824C1131.33 789.615 1131.65 790.308 1132.06 790.902C1132.46 791.485 1132.94 791.949 1133.48 792.292C1134.03 792.626 1134.62 792.792 1135.24 792.792C1135.53 792.792 1135.83 792.756 1136.12 792.683C1136.42 792.6 1136.71 792.49 1136.98 792.355C1137.25 792.22 1137.5 792.063 1137.74 791.886C1137.98 791.709 1138.19 791.522 1138.37 791.324V784.292Z" fill="white"/>
</g>
<g filter="url(#filter1_d_2397_466)">
<path d="M879.826 452.409C886.686 448.581 890.413 448.534 893.25 449.975C894.778 450.752 896.238 452.049 897.854 453.891C899.479 455.744 901.132 457.99 903.138 460.615L903.139 460.616C908.345 467.423 913.235 476.294 916.791 484.47L912.909 484.915L918.667 487.793L918.705 487.812L923.263 490.092L922.249 487.617C931.714 485.973 939.728 481.471 947.466 478.134C955.751 474.561 964.086 472.095 974.726 474.658C976.09 477.338 977.826 479.363 979.603 481.163C981.64 483.226 983.466 484.764 985.277 486.867L985.281 486.872C985.379 486.985 985.516 487.211 985.676 487.641C985.836 488.071 985.969 488.556 986.138 489.161C986.296 489.726 986.488 490.4 986.748 491.033C987.007 491.665 987.384 492.383 987.983 492.981C989.024 494.022 990.508 494.675 991.909 495.137C993.353 495.612 994.974 495.964 996.482 496.266C998.038 496.579 999.438 496.834 1000.62 497.131C1001.9 497.45 1002.49 497.722 1002.66 497.864C1002.79 497.979 1003.03 498.301 1003.25 499.03C1003.47 499.727 1003.61 500.576 1003.74 501.507C1003.85 502.358 1003.96 503.41 1004.09 504.192C1004.16 504.6 1004.26 505.045 1004.4 505.452C1004.52 505.808 1004.77 506.413 1005.32 506.865C1005.69 507.163 1006.12 507.313 1006.3 507.374C1006.56 507.463 1006.86 507.546 1007.17 507.625C1007.79 507.783 1008.6 507.961 1009.52 508.161C1011.39 508.567 1013.8 509.088 1016.42 509.803C1021.57 511.208 1027.17 513.277 1030.76 516.386L1031.1 516.689C1035.27 520.516 1037.43 524.212 1038.25 527.694C1039.07 531.168 1038.61 534.622 1037.19 538.051C1034.31 545.015 1027.61 551.623 1020.56 557.331C1012.07 564.21 1007.64 565.96 1003.23 566.491C1000.9 566.771 998.565 566.718 995.422 566.762C992.327 566.805 988.646 566.948 983.895 567.65H983.894C979.738 568.266 975.457 569.799 971.176 571.587C969.029 572.484 966.848 573.46 964.667 574.432C962.478 575.407 960.284 576.38 958.071 577.291C949.574 580.789 941.163 583.199 932.859 581.203C932.294 577.628 930.759 574.431 929.308 571.515C927.622 568.127 926.067 565.137 925.525 561.885C925.273 560.362 925.123 557.08 924.903 552.747C924.688 548.501 924.41 543.407 923.885 538.487C923.364 533.594 922.586 528.746 921.333 525.035C920.707 523.184 919.924 521.492 918.904 520.203C917.869 518.896 916.472 517.868 914.669 517.723L913.836 517.655L913.221 518.221C909.404 521.728 904.388 522.421 899.02 521.382C893.634 520.339 888.145 517.583 883.833 514.581L883.832 514.58L883.418 514.287C874.792 508.042 868.558 495.612 867.192 483.057C865.804 470.305 869.485 458.18 879.826 452.409Z" fill="#E17F69" stroke="white" stroke-width="3.82521"/>
<path d="M943.694 520.787H946.866L954.069 534.99H954.209L961.272 520.787H964.397V539.287H961.272V524.13H961.162L953.584 539.287H952.944L945.272 524.24H945.053V539.287H943.694V520.787ZM978.912 539.287H976.069V537.334C975.735 537.594 975.407 537.86 975.084 538.13C974.761 538.391 974.412 538.63 974.037 538.849C973.662 539.068 973.246 539.245 972.787 539.38C972.329 539.526 971.798 539.599 971.194 539.599C970.631 539.599 970.121 539.505 969.662 539.318C969.215 539.141 968.834 538.896 968.522 538.584C968.209 538.261 967.965 537.88 967.787 537.443C967.621 537.005 967.537 536.537 967.537 536.037C967.537 535.422 967.657 534.87 967.897 534.38C968.147 533.891 968.48 533.453 968.897 533.068C969.324 532.672 969.813 532.323 970.366 532.021C970.928 531.719 971.527 531.448 972.162 531.209C972.798 530.969 973.449 530.761 974.116 530.584C974.782 530.396 975.433 530.219 976.069 530.052V529.162C976.069 528.516 976.001 527.974 975.866 527.537C975.741 527.089 975.558 526.729 975.319 526.459C975.079 526.177 974.787 525.979 974.444 525.865C974.11 525.74 973.73 525.677 973.303 525.677C972.824 525.677 972.433 525.74 972.131 525.865C971.829 525.99 971.59 526.157 971.412 526.365C971.246 526.563 971.131 526.792 971.069 527.052C971.006 527.302 970.975 527.563 970.975 527.834C970.975 528.084 970.954 528.323 970.912 528.552C970.871 528.782 970.798 528.985 970.694 529.162C970.59 529.339 970.444 529.479 970.256 529.584C970.079 529.688 969.85 529.74 969.569 529.74C969.131 529.74 968.772 529.584 968.491 529.271C968.22 528.948 968.084 528.547 968.084 528.068C968.084 527.599 968.235 527.162 968.537 526.755C968.85 526.339 969.267 525.985 969.787 525.693C970.319 525.391 970.933 525.157 971.631 524.99C972.329 524.813 973.063 524.724 973.834 524.724C974.772 524.724 975.563 524.818 976.209 525.005C976.855 525.183 977.376 525.438 977.772 525.771C978.178 526.094 978.47 526.49 978.647 526.959C978.824 527.427 978.912 527.948 978.912 528.521V539.287ZM976.069 530.974C975.454 531.162 974.813 531.401 974.147 531.693C973.48 531.974 972.866 532.297 972.303 532.662C971.741 533.026 971.277 533.433 970.912 533.88C970.548 534.318 970.366 534.787 970.366 535.287C970.366 535.63 970.428 535.959 970.553 536.271C970.688 536.584 970.86 536.86 971.069 537.099C971.287 537.328 971.532 537.516 971.803 537.662C972.084 537.797 972.376 537.865 972.678 537.865C973.001 537.865 973.303 537.823 973.584 537.74C973.876 537.657 974.157 537.547 974.428 537.412C974.699 537.266 974.97 537.099 975.241 536.912C975.511 536.714 975.787 536.511 976.069 536.302V530.974ZM985.537 525.021V535.177C985.537 535.532 985.621 535.865 985.787 536.177C985.954 536.479 986.178 536.75 986.459 536.99C986.741 537.219 987.069 537.401 987.444 537.537C987.829 537.672 988.241 537.74 988.678 537.74C988.959 537.74 989.261 537.683 989.584 537.568C989.907 537.443 990.22 537.276 990.522 537.068C990.824 536.86 991.11 536.615 991.381 536.334C991.652 536.052 991.876 535.755 992.053 535.443V525.021H994.881V539.287H992.053V536.615C991.803 537.021 991.491 537.407 991.116 537.771C990.741 538.136 990.329 538.453 989.881 538.724C989.444 538.995 988.991 539.209 988.522 539.365C988.063 539.521 987.626 539.599 987.209 539.599C986.584 539.599 985.996 539.485 985.444 539.255C984.902 539.016 984.428 538.698 984.022 538.302C983.616 537.896 983.293 537.427 983.053 536.896C982.824 536.354 982.709 535.782 982.709 535.177V525.021H985.537ZM999.725 517.724C999.944 517.724 1000.15 517.761 1000.35 517.834C1000.56 517.907 1000.74 518.011 1000.88 518.146C1001.03 518.271 1001.14 518.422 1001.22 518.599C1001.32 518.766 1001.37 518.948 1001.37 519.146C1001.37 519.334 1001.32 519.516 1001.22 519.693C1001.14 519.86 1001.03 520.011 1000.88 520.146C1000.74 520.271 1000.56 520.375 1000.35 520.459C1000.15 520.532 999.944 520.568 999.725 520.568C999.506 520.568 999.298 520.532 999.1 520.459C998.902 520.375 998.73 520.271 998.584 520.146C998.438 520.011 998.319 519.86 998.225 519.693C998.142 519.516 998.1 519.334 998.1 519.146C998.1 518.948 998.142 518.766 998.225 518.599C998.319 518.422 998.438 518.271 998.584 518.146C998.73 518.011 998.902 517.907 999.1 517.834C999.298 517.761 999.506 517.724 999.725 517.724ZM998.35 525.537L1000.33 524.724H1001.16V539.287H998.35V525.537Z" fill="white"/>
</g>
<g filter="url(#filter2_d_2397_466)">
<path d="M597.469 293.088C606.991 297.094 612.676 304.89 618.255 313.944C619.367 315.761 623.567 323.058 627.562 330.149C629.557 333.691 631.492 337.164 632.954 339.854C633.685 341.201 634.293 342.342 634.729 343.193C634.948 343.62 635.117 343.962 635.234 344.213C635.315 344.387 635.351 344.475 635.362 344.501C636.001 347.011 635.907 350.418 635.834 354.165C635.799 355.981 635.774 357.851 635.883 359.581C635.992 361.295 636.238 363.016 636.819 364.496L636.821 364.501C637.322 365.768 638.136 366.821 638.938 367.708C639.692 368.541 640.678 369.475 641.366 370.183C642.915 371.778 643.837 373.091 643.864 374.771L643.915 377.945L646.475 376.663C647.552 376.509 648.446 376.067 649.108 375.271C649.705 374.554 650.002 373.614 650.141 373.25C650.328 372.759 650.467 372.488 650.685 372.261C650.888 372.049 651.297 371.736 652.232 371.482C655.797 370.517 659.254 370.54 663.004 370.633C662.54 371.969 662.299 373.214 662.261 374.397C662.196 376.408 662.717 378.078 663.445 379.543C664.133 380.93 665.084 382.259 665.813 383.38C666.585 384.567 667.235 385.692 667.641 386.979C668.137 388.553 668.201 390.201 668.353 392.333C668.49 394.253 668.701 396.449 669.554 398.75L669.733 399.211C670.972 402.26 673.988 405.583 677.28 408.144C679.813 410.114 682.792 411.852 685.633 412.652C682.557 421.423 676.732 427.999 667.691 429.098L666.953 424.806L666.675 423.191L665.038 423.148C660.627 423.033 656.668 425.049 653.322 426.601C649.783 428.242 646.821 429.437 643.659 428.923C640.397 428.392 637.653 426.464 634.829 424.013C634.129 423.406 633.442 422.782 632.741 422.147C632.046 421.518 631.337 420.876 630.623 420.261C629.2 419.036 627.68 417.847 626.03 416.954L626.028 416.953C613.96 410.439 603.556 412.281 594.251 415.03C589.522 416.428 585.352 417.96 581.073 418.942C577.205 419.83 573.529 420.186 569.869 419.484C567.103 413.637 564.793 407.657 562.165 401.566C559.432 395.234 556.403 388.912 552.313 383.038V383.037L551.978 382.574C550.23 380.243 547.41 377.656 545.018 375.433C543.698 374.206 542.485 373.071 541.517 372.062C540.627 371.133 540.095 370.461 539.85 370.03L539.763 369.86C538.844 367.792 538.73 365.411 538.778 362.577C538.823 359.876 539.029 356.663 538.408 353.624L538.286 353.095C537.607 350.441 535.924 347.654 534.326 345.155C532.52 342.333 530.769 339.797 529.756 337.509C528.719 335.163 528.864 333.992 529.485 333.271C529.873 332.82 530.641 332.278 532.135 331.815C533.623 331.354 535.699 331.013 538.532 330.866L538.535 330.865C540.731 330.749 542.969 331.176 545.609 331.671C548.172 332.152 551.059 332.683 554.176 332.54H554.177C567.041 331.942 573.39 322.775 578.802 313.874C581.571 309.32 584.08 304.852 587.15 301.047C590.028 297.48 593.285 294.652 597.469 293.088Z" fill="#E17F69" stroke="white" stroke-width="3.99273"/>
<path d="M568.969 372.902C568.011 372.902 567.094 372.783 566.219 372.543C565.344 372.314 564.527 371.986 563.766 371.559C563.016 371.132 562.329 370.621 561.704 370.027C561.089 369.434 560.563 368.772 560.126 368.043C559.699 367.314 559.365 366.533 559.126 365.699C558.886 364.866 558.766 364.001 558.766 363.105C558.766 362.22 558.886 361.371 559.126 360.559C559.365 359.746 559.699 358.986 560.126 358.277C560.563 357.569 561.089 356.923 561.704 356.34C562.329 355.757 563.016 355.262 563.766 354.855C564.527 354.439 565.344 354.116 566.219 353.887C567.094 353.658 568.011 353.543 568.969 353.543C570.407 353.543 571.745 353.793 572.985 354.293C574.225 354.793 575.298 355.475 576.204 356.34C577.12 357.204 577.839 358.22 578.36 359.387C578.891 360.543 579.157 361.783 579.157 363.105C579.157 364.001 579.037 364.866 578.798 365.699C578.558 366.533 578.219 367.314 577.782 368.043C577.355 368.772 576.834 369.434 576.219 370.027C575.605 370.621 574.917 371.132 574.157 371.559C573.407 371.986 572.594 372.314 571.719 372.543C570.844 372.783 569.928 372.902 568.969 372.902ZM568.969 371.98C570.021 371.98 570.954 371.762 571.766 371.324C572.579 370.876 573.261 370.257 573.813 369.465C574.376 368.673 574.798 367.736 575.079 366.652C575.37 365.569 575.516 364.387 575.516 363.105C575.516 361.835 575.37 360.673 575.079 359.621C574.798 358.559 574.376 357.647 573.813 356.887C573.261 356.116 572.579 355.517 571.766 355.09C570.954 354.663 570.021 354.449 568.969 354.449C567.886 354.449 566.933 354.663 566.11 355.09C565.298 355.517 564.615 356.116 564.063 356.887C563.511 357.647 563.094 358.559 562.813 359.621C562.542 360.673 562.407 361.835 562.407 363.105C562.407 364.387 562.542 365.569 562.813 366.652C563.094 367.736 563.511 368.673 564.063 369.465C564.615 370.257 565.298 370.876 566.11 371.324C566.933 371.762 567.886 371.98 568.969 371.98ZM592.876 372.465H590.032V370.512C589.699 370.772 589.37 371.038 589.048 371.309C588.725 371.569 588.376 371.809 588.001 372.027C587.626 372.246 587.209 372.423 586.751 372.559C586.292 372.704 585.761 372.777 585.157 372.777C584.594 372.777 584.084 372.684 583.626 372.496C583.178 372.319 582.798 372.074 582.485 371.762C582.173 371.439 581.928 371.059 581.751 370.621C581.584 370.184 581.501 369.715 581.501 369.215C581.501 368.6 581.62 368.048 581.86 367.559C582.11 367.069 582.443 366.632 582.86 366.246C583.287 365.85 583.777 365.501 584.329 365.199C584.891 364.897 585.49 364.626 586.126 364.387C586.761 364.147 587.412 363.939 588.079 363.762C588.745 363.574 589.396 363.397 590.032 363.23V362.34C590.032 361.694 589.964 361.152 589.829 360.715C589.704 360.267 589.521 359.908 589.282 359.637C589.042 359.355 588.751 359.158 588.407 359.043C588.074 358.918 587.693 358.855 587.266 358.855C586.787 358.855 586.396 358.918 586.094 359.043C585.792 359.168 585.553 359.335 585.376 359.543C585.209 359.741 585.094 359.97 585.032 360.23C584.969 360.48 584.938 360.741 584.938 361.012C584.938 361.262 584.917 361.501 584.876 361.73C584.834 361.96 584.761 362.163 584.657 362.34C584.553 362.517 584.407 362.658 584.219 362.762C584.042 362.866 583.813 362.918 583.532 362.918C583.094 362.918 582.735 362.762 582.454 362.449C582.183 362.126 582.048 361.725 582.048 361.246C582.048 360.777 582.199 360.34 582.501 359.934C582.813 359.517 583.23 359.163 583.751 358.871C584.282 358.569 584.896 358.335 585.594 358.168C586.292 357.991 587.027 357.902 587.798 357.902C588.735 357.902 589.527 357.996 590.173 358.184C590.818 358.361 591.339 358.616 591.735 358.949C592.141 359.272 592.433 359.668 592.61 360.137C592.787 360.605 592.876 361.126 592.876 361.699V372.465ZM590.032 364.152C589.417 364.34 588.777 364.579 588.11 364.871C587.443 365.152 586.829 365.475 586.266 365.84C585.704 366.204 585.24 366.611 584.876 367.059C584.511 367.496 584.329 367.965 584.329 368.465C584.329 368.809 584.391 369.137 584.516 369.449C584.652 369.762 584.824 370.038 585.032 370.277C585.251 370.507 585.495 370.694 585.766 370.84C586.048 370.975 586.339 371.043 586.641 371.043C586.964 371.043 587.266 371.001 587.548 370.918C587.839 370.835 588.12 370.725 588.391 370.59C588.662 370.444 588.933 370.277 589.204 370.09C589.475 369.892 589.751 369.689 590.032 369.48V364.152ZM599.501 360.809C600.355 359.829 601.245 359.1 602.173 358.621C603.11 358.142 604.063 357.902 605.032 357.902C605.532 357.902 605.995 358.017 606.423 358.246C606.86 358.475 607.24 358.788 607.563 359.184C607.886 359.569 608.141 360.027 608.329 360.559C608.516 361.079 608.61 361.637 608.61 362.23V372.465H605.782V362.699C605.782 361.751 605.568 361.038 605.141 360.559C604.725 360.079 604.178 359.84 603.501 359.84C603.199 359.84 602.881 359.892 602.548 359.996C602.214 360.09 601.876 360.225 601.532 360.402C601.188 360.579 600.844 360.793 600.501 361.043C600.157 361.293 599.824 361.574 599.501 361.887V372.465H596.673V351.699L598.688 350.902H599.501V360.809ZM614.782 358.199V368.355C614.782 368.71 614.865 369.043 615.032 369.355C615.199 369.658 615.423 369.928 615.704 370.168C615.985 370.397 616.313 370.579 616.688 370.715C617.074 370.85 617.485 370.918 617.923 370.918C618.204 370.918 618.506 370.861 618.829 370.746C619.152 370.621 619.464 370.454 619.766 370.246C620.068 370.038 620.355 369.793 620.626 369.512C620.896 369.23 621.12 368.934 621.298 368.621V358.199H624.126V372.465H621.298V369.793C621.048 370.199 620.735 370.585 620.36 370.949C619.985 371.314 619.574 371.632 619.126 371.902C618.688 372.173 618.235 372.387 617.766 372.543C617.308 372.699 616.87 372.777 616.454 372.777C615.829 372.777 615.24 372.663 614.688 372.434C614.146 372.194 613.673 371.876 613.266 371.48C612.86 371.074 612.537 370.605 612.298 370.074C612.068 369.533 611.954 368.96 611.954 368.355V358.199H614.782Z" fill="white"/>
</g>
<g filter="url(#filter3_d_2397_466)">
<path d="M343.725 195.132C347.585 194.645 354.073 194.711 360.291 195.587C363.39 196.024 366.362 196.655 368.869 197.492C371.413 198.342 373.295 199.347 374.387 200.427V200.428C377.667 203.681 380.396 209.109 382.197 215.097C383.99 221.059 384.782 227.306 384.389 232.023C384.07 235.815 382.713 238.894 381.184 241.894C379.707 244.792 377.901 247.876 377.228 251.217C376.524 254.693 376.647 258.106 376.701 261.272C376.755 264.502 376.744 267.547 375.94 270.683C375.554 272.178 374.29 274.408 372.276 277.061C370.304 279.658 367.752 282.483 365.012 285.14C362.272 287.796 359.378 290.252 356.733 292.123C354.027 294.037 351.784 295.192 350.309 295.489L350.305 295.49C348.065 295.947 344.98 295.691 341.224 294.926C337.51 294.169 333.368 292.966 329.083 291.695C324.831 290.434 320.438 289.106 316.341 288.151C312.56 287.27 308.887 286.67 305.694 286.77C303.764 285.186 302.317 283.305 300.695 281.21C298.963 278.973 297.046 276.516 294.237 274.454H294.236C291.818 272.669 288.992 271.327 286.185 270.134C283.298 268.907 280.538 267.876 277.869 266.611C272.614 264.121 268.636 261.128 267.406 255.602C266.105 249.759 267.348 245.519 269.644 241.478C270.82 239.407 272.264 237.405 273.835 235.229C275.194 233.349 276.639 231.351 277.987 229.166L278.558 228.219C279.712 226.256 280.31 223.721 280.812 221.717C281.077 220.658 281.317 219.724 281.593 218.924C281.875 218.108 282.144 217.588 282.393 217.285C282.582 217.056 283.075 216.686 284.045 216.212C284.965 215.762 286.1 215.317 287.369 214.842C289.784 213.936 292.8 212.889 294.835 211.586L294.836 211.587C296.856 210.3 299.019 208.65 301.213 206.942C303.432 205.217 305.695 203.424 308.004 201.768C312.358 198.644 316.525 196.276 320.285 195.793L321.148 195.753C323.164 195.657 325.111 196.538 326.955 197.655C327.406 197.929 327.836 198.206 328.255 198.479C328.665 198.746 329.082 199.022 329.466 199.259C329.847 199.493 330.256 199.729 330.661 199.909C331.034 200.075 331.572 200.271 332.178 200.269V200.27C332.181 200.27 332.185 200.269 332.188 200.269C332.192 200.269 332.196 200.27 332.2 200.27L332.199 200.269C332.579 200.265 332.891 200.161 333.051 200.102C333.243 200.03 333.425 199.943 333.577 199.862C333.88 199.702 334.222 199.492 334.559 199.278C335.271 198.828 336.085 198.288 337.064 197.712C339.024 196.558 341.358 195.434 343.725 195.132Z" fill="#E17F69" stroke="white" stroke-width="3.75551"/>
<path d="M298.318 231.233H301.428V239.42L311.147 231.233H313.178L303.928 239.014L315.662 249.733H311.709L301.428 240.342V249.733H298.318V231.233ZM327.912 249.733H325.068V247.78C324.735 248.04 324.407 248.306 324.084 248.577C323.761 248.837 323.412 249.077 323.037 249.295C322.662 249.514 322.246 249.691 321.787 249.827C321.329 249.972 320.798 250.045 320.193 250.045C319.631 250.045 319.121 249.952 318.662 249.764C318.214 249.587 317.834 249.342 317.522 249.03C317.209 248.707 316.964 248.327 316.787 247.889C316.621 247.452 316.537 246.983 316.537 246.483C316.537 245.868 316.657 245.316 316.897 244.827C317.147 244.337 317.48 243.9 317.897 243.514C318.324 243.118 318.813 242.769 319.365 242.467C319.928 242.165 320.527 241.894 321.162 241.655C321.798 241.415 322.449 241.207 323.115 241.03C323.782 240.842 324.433 240.665 325.068 240.499V239.608C325.068 238.962 325.001 238.42 324.865 237.983C324.74 237.535 324.558 237.176 324.318 236.905C324.079 236.624 323.787 236.426 323.443 236.311C323.11 236.186 322.73 236.124 322.303 236.124C321.824 236.124 321.433 236.186 321.131 236.311C320.829 236.436 320.589 236.603 320.412 236.811C320.246 237.009 320.131 237.238 320.068 237.499C320.006 237.749 319.975 238.009 319.975 238.28C319.975 238.53 319.954 238.769 319.912 238.999C319.871 239.228 319.798 239.431 319.693 239.608C319.589 239.785 319.443 239.926 319.256 240.03C319.079 240.134 318.85 240.186 318.568 240.186C318.131 240.186 317.772 240.03 317.49 239.717C317.219 239.394 317.084 238.993 317.084 238.514C317.084 238.045 317.235 237.608 317.537 237.202C317.85 236.785 318.266 236.431 318.787 236.139C319.318 235.837 319.933 235.603 320.631 235.436C321.329 235.259 322.063 235.17 322.834 235.17C323.772 235.17 324.563 235.264 325.209 235.452C325.855 235.629 326.376 235.884 326.772 236.217C327.178 236.54 327.469 236.936 327.647 237.405C327.824 237.874 327.912 238.394 327.912 238.967V249.733ZM325.068 241.42C324.454 241.608 323.813 241.847 323.147 242.139C322.48 242.42 321.865 242.743 321.303 243.108C320.74 243.472 320.277 243.879 319.912 244.327C319.548 244.764 319.365 245.233 319.365 245.733C319.365 246.077 319.428 246.405 319.553 246.717C319.688 247.03 319.86 247.306 320.068 247.545C320.287 247.775 320.532 247.962 320.803 248.108C321.084 248.243 321.376 248.311 321.678 248.311C322.001 248.311 322.303 248.269 322.584 248.186C322.876 248.103 323.157 247.993 323.428 247.858C323.699 247.712 323.969 247.545 324.24 247.358C324.511 247.16 324.787 246.957 325.068 246.749V241.42ZM334.537 235.467V245.624C334.537 245.978 334.621 246.311 334.787 246.624C334.954 246.926 335.178 247.196 335.459 247.436C335.74 247.665 336.068 247.847 336.443 247.983C336.829 248.118 337.24 248.186 337.678 248.186C337.959 248.186 338.261 248.129 338.584 248.014C338.907 247.889 339.219 247.722 339.522 247.514C339.824 247.306 340.11 247.061 340.381 246.78C340.652 246.499 340.876 246.202 341.053 245.889V235.467H343.881V249.733H341.053V247.061C340.803 247.467 340.49 247.853 340.115 248.217C339.74 248.582 339.329 248.9 338.881 249.17C338.443 249.441 337.99 249.655 337.522 249.811C337.063 249.967 336.626 250.045 336.209 250.045C335.584 250.045 334.996 249.931 334.443 249.702C333.902 249.462 333.428 249.144 333.022 248.749C332.615 248.342 332.292 247.874 332.053 247.342C331.824 246.801 331.709 246.228 331.709 245.624V235.467H334.537ZM357.725 249.733H354.881V247.78C354.548 248.04 354.219 248.306 353.897 248.577C353.574 248.837 353.225 249.077 352.85 249.295C352.475 249.514 352.058 249.691 351.6 249.827C351.141 249.972 350.61 250.045 350.006 250.045C349.443 250.045 348.933 249.952 348.475 249.764C348.027 249.587 347.647 249.342 347.334 249.03C347.022 248.707 346.777 248.327 346.6 247.889C346.433 247.452 346.35 246.983 346.35 246.483C346.35 245.868 346.469 245.316 346.709 244.827C346.959 244.337 347.292 243.9 347.709 243.514C348.136 243.118 348.626 242.769 349.178 242.467C349.74 242.165 350.339 241.894 350.975 241.655C351.61 241.415 352.261 241.207 352.928 241.03C353.594 240.842 354.246 240.665 354.881 240.499V239.608C354.881 238.962 354.813 238.42 354.678 237.983C354.553 237.535 354.371 237.176 354.131 236.905C353.891 236.624 353.6 236.426 353.256 236.311C352.923 236.186 352.542 236.124 352.115 236.124C351.636 236.124 351.246 236.186 350.943 236.311C350.641 236.436 350.402 236.603 350.225 236.811C350.058 237.009 349.943 237.238 349.881 237.499C349.818 237.749 349.787 238.009 349.787 238.28C349.787 238.53 349.766 238.769 349.725 238.999C349.683 239.228 349.61 239.431 349.506 239.608C349.402 239.785 349.256 239.926 349.068 240.03C348.891 240.134 348.662 240.186 348.381 240.186C347.943 240.186 347.584 240.03 347.303 239.717C347.032 239.394 346.897 238.993 346.897 238.514C346.897 238.045 347.048 237.608 347.35 237.202C347.662 236.785 348.079 236.431 348.6 236.139C349.131 235.837 349.746 235.603 350.443 235.436C351.141 235.259 351.876 235.17 352.647 235.17C353.584 235.17 354.376 235.264 355.022 235.452C355.667 235.629 356.188 235.884 356.584 236.217C356.99 236.54 357.282 236.936 357.459 237.405C357.636 237.874 357.725 238.394 357.725 238.967V249.733ZM354.881 241.42C354.266 241.608 353.626 241.847 352.959 242.139C352.292 242.42 351.678 242.743 351.115 243.108C350.553 243.472 350.089 243.879 349.725 244.327C349.36 244.764 349.178 245.233 349.178 245.733C349.178 246.077 349.24 246.405 349.365 246.717C349.501 247.03 349.673 247.306 349.881 247.545C350.1 247.775 350.344 247.962 350.615 248.108C350.897 248.243 351.188 248.311 351.49 248.311C351.813 248.311 352.115 248.269 352.397 248.186C352.688 248.103 352.969 247.993 353.24 247.858C353.511 247.712 353.782 247.545 354.053 247.358C354.324 247.16 354.6 246.957 354.881 246.749V241.42ZM363.037 228.17C363.256 228.17 363.464 228.207 363.662 228.28C363.871 228.353 364.048 228.457 364.193 228.592C364.339 228.717 364.454 228.868 364.537 229.045C364.631 229.212 364.678 229.394 364.678 229.592C364.678 229.78 364.631 229.962 364.537 230.139C364.454 230.306 364.339 230.457 364.193 230.592C364.048 230.717 363.871 230.821 363.662 230.905C363.464 230.978 363.256 231.014 363.037 231.014C362.818 231.014 362.61 230.978 362.412 230.905C362.214 230.821 362.042 230.717 361.897 230.592C361.751 230.457 361.631 230.306 361.537 230.139C361.454 229.962 361.412 229.78 361.412 229.592C361.412 229.394 361.454 229.212 361.537 229.045C361.631 228.868 361.751 228.717 361.897 228.592C362.042 228.457 362.214 228.353 362.412 228.28C362.61 228.207 362.818 228.17 363.037 228.17ZM361.662 235.983L363.647 235.17H364.475V249.733H361.662V235.983Z" fill="white"/>
</g>
<path d="M791.643 417.019L794.826 410.729C803.982 405.107 802.587 421.747 809.56 423.035C813.547 423.763 826.735 420.519 832.056 420.307C837.377 420.095 842.834 419.898 847.851 422.065C846.729 452.179 814.684 454.891 791.552 445.768C787.353 444.116 780.82 438.872 777.636 438.751C772.831 438.584 764.524 441.343 759.34 441.57C750.032 441.979 740.619 441.312 731.311 441.57C728.962 432.295 741.028 426.218 742.802 420.429C744.075 416.261 740.861 410.911 744.409 409.941L791.643 417.019Z" fill="#F9B9AA"/>
<path d="M790.036 475.275C802.83 472.972 812.395 474.805 820.793 484.732C833.845 500.16 834.83 513.648 813.85 520.301C783.791 529.834 798.495 512.087 789.263 496.553C786.353 491.643 780.668 492.583 779.774 487.763C778.455 480.671 783.563 476.442 790.036 475.275Z" fill="#F9B9AA"/>
<path d="M215.933 261.223C201.274 263.315 194.847 273.332 191.542 286.866C187.707 289.533 179.658 281.637 178.657 277.97C178.324 276.742 182.311 259.329 182.947 258.556C183.918 257.404 186.661 257.631 187.556 256.798C191.861 252.812 198.364 249.251 200.319 247.144C203.078 244.174 204.836 233.595 207.853 232.595C212.279 233.171 218.54 231.14 219.753 236.839C219.237 245.159 211.567 253.039 215.948 261.223H215.933Z" fill="#F9B9AA"/>
<path d="M882.898 571.905L851.186 576.406C849.033 569.98 845.122 566.555 851.792 561.281C855.476 558.386 859.038 559.099 861.6 557.447C863.389 556.295 863.859 553.173 866.284 551.536C881.094 541.488 880.639 562.69 882.883 571.92L882.898 571.905Z" fill="#F9B9AA"/>
</g>
<defs>
<filter id="filter0_d_2397_466" x="932.979" y="591.495" width="312.021" height="380.118" filterUnits="userSpaceOnUse" color-interpolation-filters="sRGB">
<feFlood flood-opacity="0" result="BackgroundImageFix"/>
<feColorMatrix in="SourceAlpha" type="matrix" values="0 0 0 0 0 0 0 0 0 0 0 0 0 0 0 0 0 0 127 0" result="hardAlpha"/>
<feOffset dy="4.00564"/>
<feGaussianBlur stdDeviation="18"/>
<feComposite in2="hardAlpha" operator="out"/>
<feColorMatrix type="matrix" values="0 0 0 0 0 0 0 0 0 0 0 0 0 0 0 0 0 0 0.25 0"/>
<feBlend mode="normal" in2="BackgroundImageFix" result="effect1_dropShadow_2397_466"/>
<feBlend mode="normal" in="SourceGraphic" in2="effect1_dropShadow_2397_466" result="shape"/>
</filter>
<filter id="filter1_d_2397_466" x="819.098" y="406.386" width="267.374" height="228.458" filterUnits="userSpaceOnUse" color-interpolation-filters="sRGB">
<feFlood flood-opacity="0" result="BackgroundImageFix"/>
<feColorMatrix in="SourceAlpha" type="matrix" values="0 0 0 0 0 0 0 0 0 0 0 0 0 0 0 0 0 0 127 0" result="hardAlpha"/>
<feOffset dy="5.10028"/>
<feGaussianBlur stdDeviation="22.9512"/>
<feComposite in2="hardAlpha" operator="out"/>
<feColorMatrix type="matrix" values="0 0 0 0 0 0 0 0 0 0 0 0 0 0 0 0 0 0 0.25 0"/>
<feBlend mode="normal" in2="BackgroundImageFix" result="effect1_dropShadow_2397_466"/>
<feBlend mode="normal" in="SourceGraphic" in2="effect1_dropShadow_2397_466" result="shape"/>
</filter>
<filter id="filter2_d_2397_466" x="479.088" y="248.363" width="257.052" height="236.109" filterUnits="userSpaceOnUse" color-interpolation-filters="sRGB">
<feFlood flood-opacity="0" result="BackgroundImageFix"/>
<feColorMatrix in="SourceAlpha" type="matrix" values="0 0 0 0 0 0 0 0 0 0 0 0 0 0 0 0 0 0 127 0" result="hardAlpha"/>
<feOffset dy="5.32364"/>
<feGaussianBlur stdDeviation="23.9564"/>
<feComposite in2="hardAlpha" operator="out"/>
<feColorMatrix type="matrix" values="0 0 0 0 0 0 0 0 0 0 0 0 0 0 0 0 0 0 0.25 0"/>
<feBlend mode="normal" in2="BackgroundImageFix" result="effect1_dropShadow_2397_466"/>
<feBlend mode="normal" in="SourceGraphic" in2="effect1_dropShadow_2397_466" result="shape"/>
</filter>
<filter id="filter3_d_2397_466" x="213.926" y="174.425" width="231.026" height="214.303" filterUnits="userSpaceOnUse" color-interpolation-filters="sRGB">
<feFlood flood-opacity="0" result="BackgroundImageFix"/>
<feColorMatrix in="SourceAlpha" type="matrix" values="0 0 0 0 0 0 0 0 0 0 0 0 0 0 0 0 0 0 127 0" result="hardAlpha"/>
<feOffset dx="3.75551" dy="36.3032"/>
<feGaussianBlur stdDeviation="27.4152"/>
<feColorMatrix type="matrix" values="0 0 0 0 0 0 0 0 0 0 0 0 0 0 0 0 0 0 0.1 0"/>
<feBlend mode="normal" in2="BackgroundImageFix" result="effect1_dropShadow_2397_466"/>
<feBlend mode="normal" in="SourceGraphic" in2="effect1_dropShadow_2397_466" result="shape"/>
</filter>
<clipPath id="clip0_2397_466">
<rect width="100.96" height="13.24" fill="white" transform="translate(973.483 132.115)"/>
</clipPath>
<clipPath id="clip1_2397_466">
<rect width="100.96" height="13.24" fill="white" transform="translate(1258.48 0.085083)"/>
</clipPath>
<clipPath id="clip2_2397_466">
<rect width="100.96" height="13.24" fill="white" transform="translate(475.963 264.618)"/>
</clipPath>
<clipPath id="clip3_2397_466">
<rect width="100.96" height="13.24" fill="white" transform="translate(825.901 251.378)"/>
</clipPath>
<clipPath id="clip4_2397_466">
<rect width="100.96" height="13.24" fill="white" transform="translate(1222.48 522.238)"/>
</clipPath>
<clipPath id="clip5_2397_466">
<rect width="105.026" height="16.9323" fill="white" transform="translate(43.2827 653.882)"/>
</clipPath>
<clipPath id="clip6_2397_466">
<rect width="105.026" height="16.9323" fill="white" transform="translate(427.65 989.92)"/>
</clipPath>
<clipPath id="clip7_2397_466">
<rect width="84.2625" height="23.0198" fill="white" transform="translate(1.09424 395.549)"/>
</clipPath>
<clipPath id="clip8_2397_466">
<rect width="84.2625" height="23.0198" fill="white" transform="translate(173.26 343.115)"/>
</clipPath>
<clipPath id="clip9_2397_466">
<rect width="88" height="30" fill="white" transform="translate(605.963 548.085)"/>
</clipPath>
<clipPath id="clip10_2397_466">
<rect width="89" height="29" fill="white" transform="translate(348.963 350.085)"/>
</clipPath>
<clipPath id="clip11_2397_466">
<rect width="84.2625" height="23.0198" fill="white" transform="translate(27.6216 986.876)"/>
</clipPath>
<clipPath id="clip12_2397_466">
<rect width="84.2625" height="23.0198" fill="white" transform="translate(687.69 1009.9)"/>
</clipPath>
<clipPath id="clip13_2397_466">
<rect width="84.2625" height="23.0198" fill="white" transform="translate(1307.16 696.72)"/>
</clipPath>
<clipPath id="clip14_2397_466">
<rect width="84.2625" height="23.0198" fill="white" transform="translate(1077.24 399.017)"/>
</clipPath>
<clipPath id="clip15_2397_466">
<rect width="81" height="23.0198" fill="white" transform="translate(663.463 866.176)"/>
</clipPath>
<clipPath id="clip16_2397_466">
<rect width="84.2625" height="23.0198" fill="white" transform="translate(1124.38 600.47)"/>
</clipPath>
<clipPath id="clip17_2397_466">
<rect width="100.96" height="13.24" fill="white" transform="translate(321.492 114.069)"/>
</clipPath>
<clipPath id="clip18_2397_466">
<rect width="84.2625" height="23.0198" fill="white" transform="translate(1.09424 127.309)"/>
</clipPath>
<clipPath id="clip19_2397_466">
<rect width="100.96" height="13.24" fill="white" transform="translate(1026.76 983.3)"/>
</clipPath>
<clipPath id="clip20_2397_466">
<rect width="84.2625" height="23.0198" fill="white" transform="translate(1188.7 908.124)"/>
</clipPath>
<clipPath id="clip21_2397_466">
<rect width="105.026" height="16.9323" fill="white" transform="translate(293.963 818.085)"/>
</clipPath>
<clipPath id="clip22_2397_466">
<rect width="1030" height="749" fill="white" transform="translate(178.627 182.143)"/>
</clipPath>
</defs>
</svg>
