<svg width="1440" height="704" viewBox="0 0 1440 704" fill="none" xmlns="http://www.w3.org/2000/svg">
<path opacity="0.4" d="M-464.413 412.072L-414.246 619.877L1440 574.419V217.255C1403.77 204.267 1294.52 173.796 1147.36 155.813C963.414 133.334 755.029 171.798 520.916 321.157C286.804 470.517 95.141 279.197 -247.666 279.197C-521.912 279.197 -506.433 367.78 -464.413 412.072Z" fill="#74BFBA"/>
<path opacity="0.4" d="M-225.413 302.817L-175.246 546.877L1679 493.488V74.0104C1642.77 58.7567 1533.52 22.969 1386.36 1.84847C1202.41 -24.5523 969.5 242.377 560.5 132.377C277.998 56.3982 334.141 146.759 -8.66629 146.759C-282.912 146.759 -267.433 250.797 -225.413 302.817Z" fill="#74BFBA"/>
<path opacity="0.4" d="M-236.771 375.817L-180.983 619.877L1881 566.488V147.01C1840.71 131.757 1719.22 95.9689 1555.57 74.8484C1351.02 48.4476 1119.29 93.6222 858.948 269.04C598.608 444.458 385.472 219.759 4.25906 219.759C-300.711 219.759 -283.498 323.797 -236.771 375.817Z" fill="#74BFBA"/>
<path d="M-40.7,495.3L-1.7,703.3l1441.5.7v-403.7c-28.2-13-113.1-43.5-227.5-61.5-143-22.5-305,16-487,165.5s-331-42-597.5-42-201.2,88.7-168.5,133Z" fill="#74bfba"/>
</svg>
