<svg width="1133" height="419" viewBox="0 0 1133 419" fill="none" xmlns="http://www.w3.org/2000/svg">
<path d="M414.894 289.542C393.158 293.667 382.363 306.782 386.134 323.215C230.985 364.265 357.155 443.886 505.076 410.112C568.121 424.776 691.127 422.603 640.105 371.009C660.031 339.707 631.525 322.538 597.696 306.922C774.684 233.999 360.106 191.028 414.894 289.542Z" fill="white"/>
<path opacity="0.75" d="M567.859 301.906C623.205 331.22 648.082 341.142 623.778 373.011C673.586 398.083 600.291 417.157 600.291 417.157C600.291 417.157 682.146 414.039 640.094 371.006C660.02 339.704 631.514 322.535 597.685 306.919C694.562 269.109 610.811 232.621 548.555 235.094C645.825 260.985 635.711 273.178 567.859 301.906Z" fill="#EFF1F3"/>
<path d="M26.9018 300.654C42.6406 273.832 122.214 276.347 128.363 319.86C188.619 339.124 109.012 358.738 33.1558 346.574C-8.97404 344.719 -10.8346 315.427 26.9039 300.654H26.9018Z" fill="white"/>
<path opacity="0.75" d="M26.9019 300.654C33.4336 289.123 52.5367 282.625 72.7169 283.432C50.278 287.609 37.6983 289.888 34.9064 303.094C8.5164 313.889 -8.58187 329.874 33.1538 346.575C-8.97599 344.72 -10.8366 315.427 26.9019 300.654Z" fill="#F5F5F5"/>
<path d="M734.776 51.2255C531.288 77.0621 618.567 145.678 816.061 140.234C872.908 209.851 1101.22 183.493 1057.76 110.803C1159.3 88.3052 1178.16 9.50918 985.643 19.6428C944.581 -2.21827 899.319 -5.13659 850.587 7.44023C785.047 0.876471 755.645 22.7002 734.774 51.2267L734.776 51.2255Z" fill="white"/>
<path opacity="0.75" d="M734.776 51.2257C651.766 61.7657 574.633 89.1032 646.912 119.95C582.778 78.1094 696.818 62.7803 740.903 60.3484C781.069 11.3845 808.685 23.4014 849.529 22.2759C905.663 8.04294 927.104 12.2415 986.902 34.7707C1033.26 24.4991 1161.27 26.6923 1109.88 90.5037C1174.41 38.6537 1090.26 14.1336 985.643 19.6425C944.581 -2.21855 899.319 -5.13681 850.587 7.44C785.047 0.876247 755.645 22.6999 734.774 51.2265L734.776 51.2257Z" fill="#F5F5F5"/>
</svg>
